<svg xmlns:xlink="http://www.w3.org/1999/xlink" xmlns="http://www.w3.org/2000/svg" width="30" height="23" viewBox="0 0 30 23" fill="none">
    <g clip-path="url(#clip0_47_19518)">
        <path d="M2.04545 23H6.81818V11.1515L0 5.92419V20.909C0 22.066 0.917045 23 2.04545 23Z" fill="#4285F4"/>
        <path d="M23.1816 23H27.9544C29.0862 23 29.9998 22.0625 29.9998 20.909V5.92419L23.1816 11.1515" fill="#34A853"/>
        <path d="M23.1816 2.09135V11.152L29.9998 5.92468V3.1368C29.9998 0.551044 27.1123 -0.923046 25.0907 0.627711" fill="#FBBC04"/>
        <path d="M6.81836 11.1517V2.09106L15.0002 8.36379L23.182 2.09106V11.1517L15.0002 17.4244" fill="#EA4335"/>
        <path d="M0 3.1368V5.92468L6.81818 11.152V2.09135L4.90909 0.627711C2.88409 -0.923046 0 0.551044 0 3.1368Z" fill="#C5221F"/>
    </g>
    <defs>
        <clipPath id="clip0_47_19518">
            <rect width="30" height="23" fill="white"/>
        </clipPath>
    </defs>
</svg>