<svg xmlns:xlink="http://www.w3.org/1999/xlink" xmlns="http://www.w3.org/2000/svg" width="31" height="31" viewBox="0 0 31 31" fill="none">
    <path d="M6.8167 19.7136C6.8167 21.4933 5.37839 22.9316 3.59878 22.9316C1.81917 22.9316 0.380859 21.4933 0.380859 19.7136C0.380859 17.934 1.81917 16.4957 3.59878 16.4957H6.8167V19.7136ZM8.42566 19.7136C8.42566 17.934 9.86397 16.4957 11.6436 16.4957C13.4232 16.4957 14.8615 17.934 14.8615 19.7136V27.7584C14.8615 29.5381 13.4232 30.9764 11.6436 30.9764C9.86397 30.9764 8.42566 29.5381 8.42566 27.7584V19.7136Z" fill="#E01E5A"/>
    <path d="M11.6435 6.7918C9.86394 6.7918 8.42562 5.35348 8.42562 3.57388C8.42562 1.79427 9.86394 0.355957 11.6435 0.355957C13.4232 0.355957 14.8615 1.79427 14.8615 3.57388V6.7918H11.6435ZM11.6435 8.42514C13.4232 8.42514 14.8615 9.86345 14.8615 11.6431C14.8615 13.4227 13.4232 14.861 11.6435 14.861H3.57437C1.79476 14.861 0.356445 13.4227 0.356445 11.6431C0.356445 9.86345 1.79476 8.42514 3.57437 8.42514H11.6435Z" fill="#36C5F0"/>
    <path d="M24.5389 11.6431C24.5389 9.86345 25.9773 8.42514 27.7569 8.42514C29.5365 8.42514 30.9748 9.86345 30.9748 11.6431C30.9748 13.4227 29.5365 14.861 27.7569 14.861H24.5389V11.6431ZM22.93 11.6431C22.93 13.4227 21.4917 14.861 19.7121 14.861C17.9325 14.861 16.4941 13.4227 16.4941 11.6431V3.57388C16.4941 1.79427 17.9325 0.355957 19.7121 0.355957C21.4917 0.355957 22.93 1.79427 22.93 3.57388V11.6431Z" fill="#2EB67D"/>
    <path d="M19.7121 24.5405C21.4917 24.5405 22.93 25.9788 22.93 27.7584C22.93 29.5381 21.4917 30.9764 19.7121 30.9764C17.9325 30.9764 16.4941 29.5381 16.4941 27.7584V24.5405H19.7121ZM19.7121 22.9316C17.9325 22.9316 16.4941 21.4933 16.4941 19.7136C16.4941 17.934 17.9325 16.4957 19.7121 16.4957H27.7812C29.5608 16.4957 30.9992 17.934 30.9992 19.7136C30.9992 21.4933 29.5608 22.9316 27.7812 22.9316H19.7121Z" fill="#ECB22E"/>
</svg>