<svg xmlns:xlink="http://www.w3.org/1999/xlink" xmlns="http://www.w3.org/2000/svg" width="16" height="16" viewBox="0 0 16 16" fill="none">
  <path d="M7.99994 0.22229C6.46162 0.22229 4.95785 0.67846 3.67879 1.53311C2.39973 2.38777 1.40284 3.60252 0.814172 5.02375C0.225506 6.44498 0.0715084 8.00885 0.371655 9.5176C0.671801 11.0264 1.41261 12.4122 2.5004 13.4999C3.58819 14.5877 4.9741 15.3284 6.48287 15.6284C7.99164 15.9285 9.55551 15.7744 10.9767 15.1856C12.3979 14.5969 13.6126 13.5999 14.4672 12.3208C15.3217 11.0417 15.7778 9.53789 15.7777 7.99957C15.7776 5.93686 14.9581 3.95867 13.4995 2.50015C12.0409 1.04164 10.0627 0.222272 7.99994 0.22229ZM7.99994 13.7279C6.86712 13.7278 5.75977 13.3918 4.8179 12.7624C3.87604 12.133 3.14196 11.2384 2.7085 10.1918C2.27503 9.14518 2.16164 7.99354 2.38267 6.88249C2.60369 5.77145 3.14921 4.75089 3.95023 3.94986C4.75125 3.14884 5.77181 2.60333 6.88286 2.3823C7.99391 2.16128 9.14555 2.27466 10.1922 2.70813C11.2388 3.1416 12.1333 3.87567 12.7627 4.81754C13.3922 5.7594 13.7282 6.86675 13.7283 7.99957C13.7283 8.75184 13.5801 9.49674 13.2923 10.1917C13.0044 10.8868 12.5825 11.5182 12.0505 12.0502C11.5186 12.5821 10.8871 13.0041 10.1921 13.2919C9.49711 13.5798 8.7522 13.7279 7.99994 13.7279Z" fill="#DB132A"></path>
  <path d="M8.31971 6.06285C8.31971 5.74298 8.41456 5.4303 8.59227 5.16434C8.76998 4.89837 9.02256 4.69108 9.31809 4.56867C9.61361 4.44627 9.93879 4.41424 10.2525 4.47664C10.5662 4.53905 10.8544 4.69308 11.0806 4.91926C11.3068 5.14544 11.4608 5.43362 11.5232 5.74734C11.5856 6.06106 11.5536 6.38625 11.4312 6.68177C11.3088 6.97729 11.1015 7.22987 10.8355 7.40758C10.5695 7.58529 10.2569 7.68015 9.93699 7.68015C9.72461 7.68015 9.5143 7.63832 9.31808 7.55704C9.12186 7.47577 8.94357 7.35664 8.79339 7.20646C8.64321 7.05628 8.52408 6.87799 8.4428 6.68177C8.36153 6.48555 8.3197 6.27524 8.31971 6.06285Z" fill="#DB132A"></path>
  <path d="M8.31971 9.93704C8.31961 9.61715 8.41438 9.30441 8.59203 9.03838C8.76968 8.77236 9.02223 8.56499 9.31775 8.44251C9.61326 8.32002 9.93846 8.28793 10.2522 8.35028C10.566 8.41262 10.8542 8.56662 11.0804 8.79278C11.3066 9.01894 11.4607 9.30712 11.5232 9.62085C11.5856 9.93459 11.5536 10.2598 11.4312 10.5553C11.3088 10.8509 11.1015 11.1035 10.8356 11.2812C10.5696 11.459 10.2569 11.5538 9.93699 11.5538C9.50814 11.5538 9.09685 11.3835 8.79356 11.0803C8.49027 10.7771 8.31983 10.3659 8.31971 9.93704Z" fill="#DB132A"></path>
  <path d="M4.44582 9.93704C4.44573 9.61715 4.5405 9.30441 4.71815 9.03838C4.8958 8.77236 5.14835 8.56499 5.44386 8.44251C5.73938 8.32002 6.06458 8.28793 6.37833 8.35028C6.69209 8.41262 6.98031 8.56662 7.20654 8.79278C7.43277 9.01894 7.58685 9.30712 7.64929 9.62085C7.71173 9.93459 7.67973 10.2598 7.55734 10.5553C7.43494 10.8509 7.22765 11.1035 6.96168 11.2812C6.69571 11.459 6.383 11.5538 6.06311 11.5538C5.63426 11.5538 5.22297 11.3835 4.91968 11.0803C4.61639 10.7771 4.44594 10.3659 4.44582 9.93704Z" fill="#DB132A"></path>
  <path d="M4.44582 6.06285C4.44582 5.74298 4.54068 5.4303 4.71839 5.16434C4.8961 4.89837 5.14868 4.69108 5.4442 4.56867C5.73972 4.44627 6.06491 4.41424 6.37863 4.47664C6.69235 4.53905 6.98053 4.69308 7.20671 4.91926C7.43289 5.14544 7.58692 5.43362 7.64933 5.74734C7.71173 6.06106 7.6797 6.38625 7.55729 6.68177C7.43488 6.97729 7.22759 7.22987 6.96163 7.40758C6.69567 7.58529 6.38298 7.68015 6.06311 7.68015C5.85072 7.68015 5.64042 7.63832 5.4442 7.55704C5.24798 7.47577 5.06969 7.35664 4.91951 7.20646C4.76933 7.05628 4.6502 6.87799 4.56892 6.68177C4.48765 6.48555 4.44582 6.27524 4.44582 6.06285Z" fill="#DB132A"></path>
</svg>