<svg width="703" height="782" viewBox="0 0 703 782" fill="none" xmlns="http://www.w3.org/2000/svg">
<path d="M131.474 0.574585H95.3854V36.675H131.474V0.574585Z" fill="#F1C421"/>
<path d="M179.32 0.574585H143.231V36.675H179.32V0.574585Z" fill="#F1C421"/>
<path d="M227.167 0.574585H191.078V36.675H227.167V0.574585Z" fill="#F1C421"/>
<path d="M275.013 0.574585H238.924V36.675H275.013V0.574585Z" fill="#F1C421"/>
<path d="M83.9351 50.9923H47.8461V87.0927H83.9351V50.9923Z" fill="#F1C421"/>
<path d="M131.474 50.9923H95.3854V87.0927H131.474V50.9923Z" fill="#F1C421"/>
<path d="M179.116 50.9923H143.027V87.0927H179.116V50.9923Z" fill="#F1C421"/>
<path d="M226.757 50.9923H190.668V87.0927H226.757V50.9923Z" fill="#F1C421"/>
<path d="M274.399 50.9923H238.31V87.0927H274.399V50.9923Z" fill="#F1C421"/>
<path d="M321.938 50.9923H285.849V87.0927H321.938V50.9923Z" fill="#F1C421"/>
<path d="M369.58 50.9923H333.491V87.0927H369.58V50.9923Z" fill="#F1C421"/>
<path d="M417.222 50.9923H381.133V87.0927H417.222V50.9923Z" fill="#F1C421"/>
<path d="M464.863 50.9923H428.774V87.0927H464.863V50.9923Z" fill="#F1C421"/>
<path d="M512.402 50.9923H476.313V87.0927H512.402V50.9923Z" fill="#F1C421"/>
<path d="M83.9351 101.103H47.8461V137.204H83.9351V101.103Z" fill="#F1C421"/>
<path d="M131.474 101.103H95.3854V137.204H131.474V101.103Z" fill="#F1C421"/>
<path d="M179.116 101.103H143.027V137.204H179.116V101.103Z" fill="#F1C421"/>
<path d="M226.757 101.103H190.668V137.204H226.757V101.103Z" fill="#F1C421"/>
<path d="M274.399 101.103H238.31V137.204H274.399V101.103Z" fill="#F1C421"/>
<path d="M321.938 101.103H285.849V137.204H321.938V101.103Z" fill="#F1C421"/>
<path d="M417.222 101.103H333.491V186.497H417.222V101.103Z" fill="#1EA3C0"/>
<path d="M464.863 101.103H428.774V137.204H464.863V101.103Z" fill="#F1C421"/>
<path d="M512.402 101.103H476.313V137.204H512.402V101.103Z" fill="#F1C421"/>
<path d="M83.9351 150.499H47.8461V186.599H83.9351V150.499Z" fill="#F1C421"/>
<path d="M131.474 150.499H95.3854V186.599H131.474V150.499Z" fill="#F1C421"/>
<path d="M179.116 150.499H143.027V186.599H179.116V150.499Z" fill="#F1C421"/>
<path d="M226.757 150.499H190.668V186.599H226.757V150.499Z" fill="#F1C421"/>
<path d="M179.116 300.218H143.027V336.318H179.116V300.218Z" fill="#F1C421"/>
<path d="M226.757 300.218H190.668V336.318H226.757V300.218Z" fill="#F1C421"/>
<path d="M274.399 150.499H238.31V186.599H274.399V150.499Z" fill="#F1C421"/>
<path d="M321.938 150.499H285.849V186.599H321.938V150.499Z" fill="#F1C421"/>
<path d="M321.938 200.61H285.849V236.71H321.938V200.61Z" fill="#F1C421"/>
<path d="M321.938 250.005H285.849V286.105H321.938V250.005Z" fill="#F1C421"/>
<path d="M369.58 150.499H333.491V186.599H369.58V150.499Z" fill="#1EA3C0"/>
<path d="M464.863 150.499H428.774V186.599H464.863V150.499Z" fill="#F1C421"/>
<path d="M512.402 150.499H476.313V186.599H512.402V150.499Z" fill="#F1C421"/>
<path d="M559.84 150.499H523.751V186.599H559.84V150.499Z" fill="#F1C421"/>
<path d="M83.9351 200.61H47.8461V236.71H83.9351V200.61Z" fill="#F1C421"/>
<path d="M274.297 200.61H95.3854V286.003H274.297V200.61Z" fill="#1EA3C0"/>
<path d="M369.58 200.61H333.491V236.71H369.58V200.61Z" fill="#F1C421"/>
<path d="M417.222 200.61H381.133V236.71H417.222V200.61Z" fill="#F1C421"/>
<path d="M464.863 200.61H428.774V236.71H464.863V200.61Z" fill="#F1C421"/>
<path d="M512.402 200.61H476.313V236.71H512.402V200.61Z" fill="#F1C421"/>
<path d="M512.505 250.005H428.774V433.268H512.505V250.005Z" fill="#1EA3C0"/>
<path d="M559.84 200.61H523.751V236.71H559.84V200.61Z" fill="#F1C421"/>
<path d="M607.481 200.61H571.392V236.71H607.481V200.61Z" fill="#F1C421"/>
<path d="M559.84 250.823H523.751V286.923H559.84V250.823Z" fill="#F1C421"/>
<path d="M607.481 250.823H571.392V286.923H607.481V250.823Z" fill="#F1C421"/>
<path d="M559.84 300.218H523.751V336.318H559.84V300.218Z" fill="#F1C421"/>
<path d="M607.481 300.218H571.392V336.318H607.481V300.218Z" fill="#F1C421"/>
<path d="M655.123 300.218H619.034V336.318H655.123V300.218Z" fill="#F1C421"/>
<path d="M702.764 300.218H666.675V336.318H702.764V300.218Z" fill="#F1C421"/>
<path d="M83.9351 250.005H47.8461V286.105H83.9351V250.005Z" fill="#F1C421"/>
<path d="M36.089 150.499H0V186.599H36.089V150.499Z" fill="#F1C421"/>
<path d="M36.089 200.61H0V236.71H36.089V200.61Z" fill="#F1C421"/>
<path d="M36.089 250.005H0V286.105H36.089V250.005Z" fill="#F1C421"/>
<path d="M131.474 250.005H95.3854V286.105H131.474V250.005Z" fill="#1EA3C0"/>
<path d="M369.58 250.005H333.491V286.105H369.58V250.005Z" fill="#F1C421"/>
<path d="M417.222 250.005H381.133V286.105H417.222V250.005Z" fill="#F1C421"/>
<path d="M512.402 250.005H476.313V286.105H512.402V250.005Z" fill="#1EA3C0"/>
<path d="M83.9351 300.218H47.8461V336.318H83.9351V300.218Z" fill="#F1C421"/>
<path d="M131.474 300.218H95.3854V336.318H131.474V300.218Z" fill="#F1C421"/>
<path d="M274.399 300.218H238.31V336.318H274.399V300.218Z" fill="#F1C421"/>
<path d="M321.938 300.218H285.849V336.318H321.938V300.218Z" fill="#F1C421"/>
<path d="M369.58 300.218H333.491V336.318H369.58V300.218Z" fill="#F1C421"/>
<path d="M417.222 300.218H381.133V336.318H417.222V300.218Z" fill="#F1C421"/>
<path d="M559.84 349.307H523.751V385.407H559.84V349.307Z" fill="#F1C421"/>
<path d="M607.481 349.307H571.392V385.407H607.481V349.307Z" fill="#F1C421"/>
<path d="M655.123 349.307H619.034V385.407H655.123V349.307Z" fill="#F1C421"/>
<path d="M321.938 349.307H285.849V385.407H321.938V349.307Z" fill="#F1C421"/>
<path d="M369.58 349.307H333.491V385.407H369.58V349.307Z" fill="#F1C421"/>
<path d="M417.222 349.307H381.133V385.407H417.222V349.307Z" fill="#F1C421"/>
<path d="M559.84 397.168H523.751V433.268H559.84V397.168Z" fill="#F1C421"/>
<path d="M607.481 397.168H571.392V433.268H607.481V397.168Z" fill="#F1C421"/>
<path d="M321.938 397.168H285.849V433.268H321.938V397.168Z" fill="#F1C421"/>
<path d="M369.58 397.168H333.491V433.268H369.58V397.168Z" fill="#F1C421"/>
<path d="M417.222 397.168H381.133V433.268H417.222V397.168Z" fill="#F1C421"/>
<path d="M500.645 397.168H428.774V433.268H500.645V397.168Z" fill="#1EA3C0"/>
<path d="M512.402 397.168H476.313V433.268H512.402V397.168Z" fill="#1EA3C0"/>
<path d="M559.84 447.279H523.751V483.379H559.84V447.279Z" fill="#F1C421"/>
<path d="M369.58 447.279H333.491V483.379H369.58V447.279Z" fill="#F1C421"/>
<path d="M417.222 447.279H381.133V483.379H417.222V447.279Z" fill="#F1C421"/>
<path d="M464.863 447.279H428.774V483.379H464.863V447.279Z" fill="#F1C421"/>
<path d="M512.402 447.279H476.313V483.379H512.402V447.279Z" fill="#F1C421"/>
<path d="M559.84 497.492H523.751V533.592H559.84V497.492Z" fill="#F1C421"/>
<path d="M369.58 497.492H333.491V533.592H369.58V497.492Z" fill="#F1C421"/>
<path d="M417.222 497.492H381.133V533.592H417.222V497.492Z" fill="#F1C421"/>
<path d="M464.863 497.492H428.774V533.592H464.863V497.492Z" fill="#F1C421"/>
<path d="M512.402 497.492H476.313V533.592H512.402V497.492Z" fill="#F1C421"/>
<path d="M559.84 546.785H523.751V582.885H559.84V546.785Z" fill="#F1C421"/>
<path d="M512.402 497.492H333.491V582.885H512.402V497.492Z" fill="#1EA3C0"/>
<path d="M369.58 596.998H333.491V633.099H369.58V596.998Z" fill="#F1C421"/>
<path d="M417.222 596.998H381.133V633.099H417.222V596.998Z" fill="#F1C421"/>
<path d="M464.863 596.998H428.774V633.099H464.863V596.998Z" fill="#F1C421"/>
<path d="M512.402 596.998H476.313V633.099H512.402V596.998Z" fill="#F1C421"/>
<path d="M369.58 646.393H333.491V682.494H369.58V646.393Z" fill="#F1C421"/>
<path d="M321.938 546.785H285.849V582.885H321.938V546.785Z" fill="#F1C421"/>
<path d="M321.938 596.998H285.849V633.099H321.938V596.998Z" fill="#F1C421"/>
<path d="M321.938 646.393H285.849V682.494H321.938V646.393Z" fill="#F1C421"/>
<path d="M417.222 646.393H381.133V682.494H417.222V646.393Z" fill="#F1C421"/>
<path d="M464.863 646.393H428.774V682.494H464.863V646.393Z" fill="#F1C421"/>
<path d="M512.402 646.393H476.313V682.494H512.402V646.393Z" fill="#F1C421"/>
<path d="M369.58 696.504H333.491V732.605H369.58V696.504Z" fill="#F1C421"/>
<path d="M464.863 696.504H381.133V781.898H464.863V696.504Z" fill="#1EA3C0"/>
<path d="M417.222 745.9H381.133V782H417.222V745.9Z" fill="#1EA3C0"/>
<path d="M644.899 646.393H561.169V732.707H644.899V646.393Z" fill="#1EA3C0"/>
<path d="M597.258 745.9H561.169V782H597.258V745.9Z" fill="#F1C421"/>
<path d="M487.253 561.511C488.582 563.557 489.093 566.216 488.479 568.466C487.764 570.818 486.128 572.863 483.981 573.988C482.652 574.499 481.221 574.806 479.789 574.806H453.617C448.914 574.806 445.234 571.329 444.927 566.625V548.012C444.927 546.887 445.95 545.967 447.074 545.967H472.122C472.122 545.967 472.531 545.967 472.735 545.967C472.735 545.967 472.94 545.762 473.042 545.967C473.042 545.967 473.553 545.66 473.758 545.558C473.758 545.558 473.962 545.353 474.064 545.251C474.269 545.046 474.473 544.944 474.678 544.739L475.087 544.33C475.087 544.33 475.087 544.024 475.291 543.921C475.291 543.717 475.496 543.614 475.496 543.41C475.7 543.103 475.802 542.592 475.802 542.183V541.16C475.802 541.16 475.802 540.649 475.802 540.546C475.802 540.342 475.802 540.138 475.598 540.035C475.598 540.035 475.598 539.728 475.598 539.626C475.598 539.319 475.291 539.115 475.087 538.808C475.087 538.808 475.087 538.604 474.882 538.501C474.678 538.501 474.473 538.297 474.269 538.092C474.269 538.092 473.655 537.683 473.451 537.479C473.451 537.479 473.246 537.479 473.144 537.479C472.94 537.479 472.735 537.274 472.531 537.274H472.326H447.483C446.256 537.274 445.336 536.456 445.336 535.229V514.673C445.336 509.969 449.119 506.185 453.822 506.185H479.892C483.47 506.185 486.741 507.412 488.377 510.889C489.502 513.343 489.604 516.002 488.377 518.355C486.946 521.832 483.47 523.263 479.892 523.263H462.205V528.275C462.205 529.502 461.183 530.32 460.16 530.32C458.933 530.32 458.013 529.399 458.013 528.275V521.116C458.013 519.991 459.138 519.173 460.16 519.173H480.607C480.607 519.173 480.812 519.173 480.914 519.173H481.323C481.323 519.173 481.834 519.173 482.141 518.968C482.141 518.968 482.345 518.968 482.448 518.968C482.652 518.968 482.959 518.764 483.061 518.559C483.061 518.559 483.572 518.15 483.572 518.252C483.572 518.048 483.879 517.945 483.981 517.843C483.981 517.843 484.39 517.332 484.39 517.434C484.39 517.23 484.594 517.127 484.697 516.923C484.697 516.923 484.901 516.411 484.697 516.411C484.697 516.411 484.901 516.105 484.901 515.9C484.901 515.695 485.106 515.491 485.106 515.184V514.162C485.106 514.162 485.106 514.161 485.106 513.957C485.106 513.752 485.106 513.65 485.106 513.548C485.106 513.548 485.106 513.343 485.106 513.139C485.106 513.139 484.901 512.73 484.901 512.628C484.901 512.423 484.697 512.116 484.492 511.912L484.186 511.707C484.186 511.707 483.879 511.298 483.674 511.196C483.674 511.196 483.674 510.991 483.47 510.991C483.47 510.787 483.061 510.684 482.856 510.582C482.856 510.582 482.652 510.378 482.55 510.378C482.243 510.378 482.039 510.378 481.834 510.378H453.004C453.004 510.378 452.595 510.378 452.493 510.582C452.288 510.582 452.084 510.787 451.879 510.889C451.879 510.889 451.573 511.093 451.47 511.196C451.47 511.196 451.164 511.503 451.061 511.605C450.857 511.605 450.755 511.911 450.652 512.014C450.652 512.321 450.243 512.73 450.039 512.934C450.039 513.139 450.039 513.343 449.835 513.446C449.835 513.65 449.835 513.855 449.835 514.059C449.835 514.059 449.835 514.673 449.835 514.775V533.286H471.815C473.246 533.286 474.678 533.592 476.007 534.206C478.051 535.433 479.789 537.478 480.403 539.933C480.914 542.183 480.403 544.842 479.074 546.785C477.029 549.648 474.575 550.466 471.099 550.466H449.835V567.034C449.835 567.034 449.835 567.238 449.835 567.34C449.835 567.545 450.039 568.159 450.141 568.363C450.346 568.67 450.55 568.977 450.755 569.284C450.755 569.488 450.959 569.59 451.061 569.693C451.061 569.897 451.368 570 451.573 570.102C451.573 570.102 451.777 570.306 451.879 570.306C452.084 570.511 452.39 570.613 452.493 570.715C452.493 570.715 452.697 570.715 452.902 570.92C453.106 570.92 453.413 570.92 453.617 570.92C453.617 570.92 453.822 570.92 453.924 570.92H481.425C481.425 570.92 481.732 570.92 481.834 570.92C482.039 570.92 482.243 570.92 482.55 570.92C482.55 570.92 482.754 570.92 482.959 570.715C483.163 570.511 483.47 570.511 483.572 570.306L484.083 570C484.083 570 484.288 569.795 484.39 569.693C484.39 569.693 484.697 569.488 484.799 569.386C484.799 569.386 485.106 568.875 485.208 568.772C485.208 568.568 485.412 568.159 485.208 568.261C485.412 568.056 485.515 567.545 485.515 567.238C485.515 567.238 485.515 567.238 485.515 567.034V565.909V565.5C485.515 565.5 485.106 564.477 485.106 564.375C485.106 564.17 484.799 563.966 484.697 563.863L483.879 562.943C483.674 562.943 483.674 562.739 483.572 562.739C483.572 562.739 483.265 562.432 482.959 562.329H482.652L481.834 562.023H460.671C459.445 562.023 458.524 561 458.524 559.875V555.069C458.524 553.944 459.649 553.125 460.671 553.125C461.694 553.125 462.716 554.046 462.716 555.171V557.83H481.732C484.39 558.136 486.639 559.364 488.07 561.614L487.253 561.511Z" fill="#010C23"/>
<path d="M582.331 673.596H586.012C586.012 673.596 586.523 673.596 586.83 673.596C586.83 673.596 587.239 673.596 587.341 673.596C587.954 673.596 588.568 673.392 589.079 673.187C589.692 673.187 590.306 672.881 590.817 672.574C591.021 672.574 591.124 672.574 591.226 672.574C591.226 672.574 591.737 672.267 591.942 672.165C593.168 671.653 594.191 670.937 595.418 670.221L595.622 669.915C596.542 669.301 597.36 668.79 598.382 668.381C599.711 667.767 601.347 667.563 602.778 667.563C606.254 667.563 608.708 668.79 611.264 671.142C611.468 671.551 611.775 671.858 611.98 672.165C611.98 672.165 611.98 672.369 611.98 672.471C611.98 672.471 612.389 672.983 612.695 673.187C612.695 673.187 613.002 673.494 613.104 673.494C613.309 673.699 613.513 673.801 613.718 673.801C613.922 673.801 614.024 673.801 614.127 674.006C614.331 674.006 614.535 674.006 614.74 674.006C614.74 674.006 615.149 674.006 615.353 674.006H616.273C616.273 674.006 616.785 673.801 617.091 673.699C617.091 673.699 617.296 673.699 617.398 673.699C617.705 673.699 618.011 673.494 618.216 673.29C618.216 673.29 619.136 672.369 619.238 672.369C619.238 672.369 619.238 672.165 619.238 672.063C619.238 672.063 619.443 671.756 619.545 671.551C619.545 671.551 619.545 671.346 619.545 671.244C619.545 671.04 619.852 670.324 619.852 670.119V669.097C619.852 669.097 619.852 668.79 619.852 668.688C619.852 668.483 619.852 668.176 619.647 667.972C619.647 667.972 619.647 667.767 619.443 667.665C619.136 667.153 618.829 666.54 618.42 666.131L618.216 665.926C618.216 665.926 618.011 665.722 618.011 665.62C617.807 665.415 617.705 665.108 617.398 664.801C616.887 664.392 616.376 663.779 615.967 663.37C615.66 663.165 615.456 663.063 615.149 662.858L614.74 662.449C613.718 661.631 612.797 661.12 611.673 660.506C611.366 660.506 610.957 660.199 610.651 660.097H610.344C609.73 659.79 609.117 659.586 608.606 659.381C607.89 659.177 607.379 659.074 606.766 658.87C606.766 658.87 605.641 658.87 605.641 658.666H605.232C604.312 658.666 603.392 658.666 602.472 658.666H601.245C601.245 658.666 600.325 658.666 600.018 658.666C600.018 658.666 599.609 658.666 599.711 658.666H599.405C598.178 658.87 596.644 659.177 595.52 659.79L594.6 660.097H594.395C594.395 660.097 594.088 660.097 593.986 660.302C592.862 660.915 591.737 661.529 590.715 662.245C590.715 662.245 590.101 662.654 590.101 662.756C589.795 662.961 589.59 663.165 589.386 663.37C588.874 663.779 588.466 664.29 588.057 664.597C588.057 664.904 587.648 665.21 587.443 665.517C587.443 665.517 587.239 665.517 587.239 665.722L587.034 665.926C587.034 665.926 586.319 666.949 586.114 667.46C585.705 667.972 585.398 668.585 585.092 669.097C585.092 669.301 585.092 669.506 584.887 669.608C584.887 669.915 584.887 670.222 584.683 670.426C584.376 671.449 583.558 671.96 582.638 671.96C582.434 671.96 582.229 671.96 582.025 671.96C581.002 671.756 580.389 670.528 580.593 669.403C584.172 659.79 592.35 654.473 602.574 654.473C608.504 654.473 614.127 656.62 618.523 660.506C619.647 661.631 620.567 662.654 621.59 663.881C622.305 664.904 623.021 666.029 623.43 667.358C624.759 671.756 621.999 676.767 617.398 677.994C616.682 677.994 616.069 678.198 615.251 678.198C612.593 678.198 610.344 677.278 608.708 675.233C608.401 674.926 608.197 674.619 607.992 674.21L607.583 673.699C607.379 673.392 607.072 673.085 606.766 672.881C606.766 672.881 606.357 672.574 606.254 672.574C605.948 672.369 605.743 672.267 605.437 672.063C605.437 672.063 605.232 672.063 605.028 672.063C605.028 672.063 603.699 671.653 603.596 671.653H601.347H601.143C600.529 671.653 600.018 671.858 599.711 672.063H599.098C599.098 672.063 598.587 672.369 598.382 672.574C598.382 672.574 598.178 672.574 598.178 672.778C597.769 673.085 597.462 673.392 597.053 673.596C596.031 674.415 595.009 675.028 593.782 675.54C591.328 676.767 588.568 677.585 585.705 677.892C584.99 677.892 584.478 677.892 583.763 677.892V678.403C583.763 678.403 583.967 679.426 584.069 679.63C584.069 680.244 584.376 680.858 584.581 681.369C584.581 681.676 584.581 681.88 584.785 682.187C584.785 682.187 584.785 682.187 584.785 682.391C584.785 682.596 584.99 682.698 584.99 682.903C585.296 683.414 585.603 683.925 586.012 684.334L586.523 685.255C586.523 685.255 586.523 685.255 586.728 685.46C587.136 686.073 587.545 686.585 587.954 686.789L589.386 688.221C589.386 688.221 589.692 688.425 589.795 688.425L590.612 689.039C591.839 689.755 592.964 690.266 594.191 690.88C594.191 690.88 594.395 690.88 594.497 690.88C594.497 690.88 594.804 690.88 594.906 691.084C595.111 691.084 595.52 691.084 595.826 691.289C596.44 691.493 596.951 691.8 597.564 692.005C599.916 692.72 602.472 693.334 604.823 694.152C606.766 694.97 608.708 695.686 610.344 697.118C611.366 698.038 611.877 699.061 612.082 700.288C612.389 701.618 612.491 703.152 611.877 704.481C610.446 708.367 606.459 710.106 602.574 710.106C599.711 710.106 596.44 709.083 594.395 706.936C593.986 706.322 593.475 705.811 593.168 705.299C593.168 705.299 593.168 705.299 592.964 705.299C592.964 705.299 592.964 705.299 592.964 705.095C592.759 704.89 592.555 704.686 592.248 704.584C592.248 704.584 592.044 704.379 591.942 704.379C591.942 704.379 591.635 704.175 591.533 704.072C591.533 704.072 591.464 704.072 591.328 704.072C591.328 704.072 590.919 704.072 590.715 704.072C590.715 704.072 590.51 704.072 590.408 704.072C590.408 704.072 589.897 704.072 589.692 704.072C589.386 704.072 589.181 704.072 588.977 704.072H588.67C588.67 704.072 588.261 704.072 587.954 704.277C587.954 704.277 587.75 704.277 587.648 704.277C587.648 704.277 587.341 704.584 587.136 704.686C587.136 704.686 586.932 704.686 586.83 704.89C586.625 704.89 586.523 705.095 586.319 705.197C586.319 705.197 586.012 705.811 586.012 705.708C586.012 705.708 585.807 705.913 585.807 706.117C585.807 706.322 585.603 706.527 585.501 706.629C585.501 706.629 585.501 706.697 585.501 706.833C585.501 706.833 585.296 707.345 585.296 707.651C585.296 707.651 585.296 707.652 585.296 707.856V708.572L585.501 709.595C585.501 709.799 585.501 710.004 585.705 710.106C585.91 710.515 586.114 710.924 586.319 711.231C586.523 711.64 586.83 711.947 587.034 712.254L587.341 712.56C587.75 713.174 588.261 713.685 588.67 713.992C589.181 714.503 589.692 714.912 590.101 715.321C590.101 715.321 590.306 715.321 590.408 715.321C590.408 715.321 590.408 715.322 590.612 715.526C590.817 715.935 593.884 717.469 594.293 717.674L594.702 717.878C594.702 717.878 595.009 717.878 595.111 718.083L596.031 718.287C596.951 718.799 598.485 719.003 599.405 719.208H600.12C600.12 719.208 602.063 719.412 602.574 719.412C603.392 719.412 604.005 719.412 604.823 719.208H605.232H605.437C605.743 719.208 606.05 719.208 606.357 719.208C606.97 719.208 607.583 718.901 608.095 718.799C608.606 718.594 609.321 718.492 609.833 718.287C610.037 718.287 610.344 718.083 610.548 717.878C610.548 717.878 610.753 717.878 610.957 717.878C611.98 717.265 612.9 716.753 614.024 716.14C614.229 715.935 614.535 715.731 614.74 715.628C614.74 715.628 615.047 715.424 615.149 715.321L616.376 714.094C616.376 714.094 617.296 713.174 617.603 712.663C617.603 712.663 617.807 712.663 617.807 712.458C618.523 711.538 618.932 710.822 619.341 709.901C619.545 709.697 619.647 709.492 619.749 709.186C619.749 709.186 619.749 708.981 619.954 708.879V708.674C620.261 707.447 620.67 706.424 620.874 705.095C620.874 705.095 620.874 704.583 620.874 704.481V703.561C620.874 702.947 620.874 702.334 620.874 701.822C620.874 701.413 620.874 701.106 620.874 700.697V700.288C620.874 699.675 620.67 699.061 620.465 698.652C620.465 698.038 620.261 697.425 620.056 697.016C620.056 696.811 620.056 696.607 619.852 696.402C619.852 696.402 619.647 695.993 619.545 695.891C619.034 694.868 618.523 693.948 617.909 693.13C617.909 693.13 617.909 693.129 617.909 692.925L617.603 692.618C617.603 692.618 617.296 692.209 617.091 692.005C616.682 691.595 616.273 691.186 615.865 690.777C615.66 690.573 615.353 690.368 615.149 690.061C615.149 690.061 614.842 690.062 614.74 689.857C614.229 689.448 613.615 689.039 613.104 688.732C612.593 688.425 611.98 688.016 611.468 687.709C611.162 687.709 610.855 687.403 610.446 687.3C610.446 687.3 610.242 687.3 610.037 687.096C610.037 687.096 610.037 687.096 609.833 687.096C608.606 686.585 607.379 686.175 606.254 685.766C605.028 685.46 603.801 685.153 602.574 684.641C600.018 683.823 597.564 682.596 595.622 680.857C594.804 680.039 594.906 678.71 595.622 677.892C596.031 677.482 596.644 677.278 597.053 677.278C597.462 677.278 598.178 677.482 598.485 677.892C598.689 678.096 598.894 678.301 599.2 678.403C599.2 678.403 599.405 678.403 599.507 678.607C599.916 678.914 600.427 679.323 600.836 679.528C601.245 679.835 601.756 680.039 602.267 680.244C602.267 680.244 602.472 680.244 602.472 680.448C602.472 680.448 602.983 680.653 603.187 680.755C605.641 681.573 608.197 682.187 610.548 683.107C613.309 684.232 615.762 685.664 618.114 687.3C621.794 690.368 624.248 694.766 624.861 699.573C625.27 702.334 625.168 705.095 624.555 707.754C621.794 717.571 612.184 723.503 602.165 723.503C594.191 723.503 588.159 720.026 583.149 714.094C582.434 713.072 581.718 712.049 581.411 710.822C580.082 706.322 582.74 701.209 587.341 700.084C588.057 699.879 588.772 699.777 589.59 699.777C591.328 699.777 593.168 700.288 594.497 701.311C595.111 701.72 595.622 702.231 596.031 702.64C596.338 703.049 596.542 703.356 596.747 703.663L597.156 704.174L598.076 704.993C598.076 704.993 598.382 705.299 598.485 705.299C598.791 705.504 598.996 705.606 599.302 705.811C599.302 705.811 599.371 705.811 599.507 705.811C599.507 705.811 599.711 705.811 599.814 705.811C600.12 705.811 600.427 705.811 600.734 706.015C600.938 706.015 601.245 706.015 601.449 706.22H603.903C603.903 706.22 604.925 705.913 605.334 705.811C605.334 705.811 605.641 705.811 605.641 705.606C605.641 705.606 606.152 705.299 606.459 705.197C606.459 705.197 606.766 704.993 606.97 704.89C606.97 704.89 607.175 704.583 607.277 704.481C607.481 704.481 607.583 704.175 607.686 704.072L607.992 703.356C607.992 703.356 607.992 703.356 607.992 703.152C607.992 703.152 607.992 702.947 607.992 702.845V701.618C607.992 701.618 607.992 701.209 607.992 701.106C607.992 701.106 607.992 701.106 607.992 700.902C607.992 700.902 607.992 700.697 607.788 700.595C607.788 700.39 607.481 700.288 607.277 700.186C606.97 699.879 606.663 699.777 606.357 699.573C605.846 699.368 605.539 699.061 605.13 698.857H604.925H604.721C604.721 698.857 604.21 698.652 604.005 698.55C602.676 698.038 601.347 697.629 600.12 697.323C595.009 695.789 589.692 694.152 585.705 690.471C581.616 686.789 579.571 681.369 579.571 675.949C579.571 674.722 580.491 673.801 581.616 673.801L582.331 673.596Z" fill="#010C23"/>
<g style="mix-blend-mode:multiply">
<path d="M206.924 236.301C213.586 236.301 218.988 230.898 218.988 224.233C218.988 217.569 213.586 212.166 206.924 212.166C200.261 212.166 194.86 217.569 194.86 224.233C194.86 230.898 200.261 236.301 206.924 236.301Z" fill="#1EA3C0"/>
</g>
<g style="mix-blend-mode:multiply">
<path d="M251.907 236.301C258.57 236.301 263.971 230.898 263.971 224.233C263.971 217.569 258.57 212.166 251.907 212.166C245.245 212.166 239.844 217.569 239.844 224.233C239.844 230.898 245.245 236.301 251.907 236.301Z" fill="#1EA3C0"/>
</g>
<g style="mix-blend-mode:multiply">
<path d="M206.924 277.208C213.586 277.208 218.988 271.805 218.988 265.14C218.988 258.476 213.586 253.073 206.924 253.073C200.261 253.073 194.86 258.476 194.86 265.14C194.86 271.805 200.261 277.208 206.924 277.208Z" fill="#1EA3C0"/>
</g>
<g style="mix-blend-mode:multiply">
<path d="M251.907 277.208C258.57 277.208 263.971 271.805 263.971 265.14C263.971 258.476 258.57 253.073 251.907 253.073C245.245 253.073 239.844 258.476 239.844 265.14C239.844 271.805 245.245 277.208 251.907 277.208Z" fill="#1EA3C0"/>
</g>
<g style="mix-blend-mode:multiply">
<path d="M449.426 382.237C456.088 382.237 461.489 376.834 461.489 370.169C461.489 363.504 456.088 358.101 449.426 358.101C442.763 358.101 437.362 363.504 437.362 370.169C437.362 376.834 442.763 382.237 449.426 382.237Z" fill="#1EA3C0"/>
</g>
<g style="mix-blend-mode:multiply">
<path d="M494.409 382.237C501.072 382.237 506.473 376.834 506.473 370.169C506.473 363.504 501.072 358.101 494.409 358.101C487.746 358.101 482.345 363.504 482.345 370.169C482.345 376.834 487.746 382.237 494.409 382.237Z" fill="#1EA3C0"/>
</g>
<g style="mix-blend-mode:multiply">
<path d="M449.426 423.144C456.088 423.144 461.489 417.741 461.489 411.076C461.489 404.411 456.088 399.008 449.426 399.008C442.763 399.008 437.362 404.411 437.362 411.076C437.362 417.741 442.763 423.144 449.426 423.144Z" fill="#1EA3C0"/>
</g>
<g style="mix-blend-mode:multiply">
<path d="M494.409 423.144C501.072 423.144 506.473 417.741 506.473 411.076C506.473 404.411 501.072 399.008 494.409 399.008C487.746 399.008 482.345 404.411 482.345 411.076C482.345 417.741 487.746 423.144 494.409 423.144Z" fill="#1EA3C0"/>
</g>
<g style="mix-blend-mode:multiply">
<path d="M358.641 531.854C365.304 531.854 370.705 526.451 370.705 519.786C370.705 513.121 365.304 507.719 358.641 507.719C351.978 507.719 346.577 513.121 346.577 519.786C346.577 526.451 351.978 531.854 358.641 531.854Z" fill="#1EA3C0"/>
</g>
<g style="mix-blend-mode:multiply">
<path d="M403.624 531.854C410.287 531.854 415.688 526.451 415.688 519.786C415.688 513.121 410.287 507.719 403.624 507.719C396.962 507.719 391.561 513.121 391.561 519.786C391.561 526.451 396.962 531.854 403.624 531.854Z" fill="#1EA3C0"/>
</g>
<g style="mix-blend-mode:multiply">
<path d="M358.641 572.761C365.304 572.761 370.705 567.358 370.705 560.693C370.705 554.028 365.304 548.626 358.641 548.626C351.978 548.626 346.577 554.028 346.577 560.693C346.577 567.358 351.978 572.761 358.641 572.761Z" fill="#1EA3C0"/>
</g>
<g style="mix-blend-mode:multiply">
<path d="M403.624 572.761C410.287 572.761 415.688 567.358 415.688 560.693C415.688 554.028 410.287 548.626 403.624 548.626C396.962 548.626 391.561 554.028 391.561 560.693C391.561 567.358 396.962 572.761 403.624 572.761Z" fill="#1EA3C0"/>
</g>
<path d="M434.193 271.583C434.704 269.64 436.033 267.697 437.975 266.879C439.1 266.265 440.327 265.958 441.554 265.958C444.109 265.958 446.563 267.493 447.79 269.64C447.79 269.64 447.79 269.708 447.79 269.845C447.79 269.845 448.199 270.765 448.403 271.174L448.71 271.992C449.221 273.526 449.63 274.958 450.141 276.492C451.675 281.298 453.208 286.207 454.742 291.014C455.049 292.241 455.56 293.366 455.866 294.491C456.378 292.855 456.991 291.116 457.4 289.378C458.934 284.776 460.467 279.969 462.001 275.265C462.41 274.038 462.716 272.81 463.125 271.583C463.33 270.97 463.534 270.458 463.841 269.947C463.841 269.947 463.841 269.947 463.841 269.743C464.148 269.436 464.352 269.027 464.659 268.72C465.988 267.084 468.135 266.061 470.282 266.061C472.429 266.061 474.473 266.981 475.905 268.515C476.211 268.822 476.518 269.333 476.722 269.743C476.722 269.743 476.722 269.742 476.722 269.947C477.029 270.356 477.234 270.867 477.438 271.379C477.643 272.094 477.847 272.708 478.052 273.424C479.176 276.901 480.505 280.583 481.63 284.06L486.435 299.093C487.866 303.491 489.4 307.888 490.831 312.286C490.831 312.286 490.831 312.286 490.831 312.49C491.955 309.422 492.876 306.354 493.796 303.388C495.431 298.275 496.965 293.264 498.601 288.253L502.895 274.754C502.895 274.754 502.895 274.447 502.895 274.344C502.895 274.242 502.895 274.038 502.895 273.833V272.81L502.588 271.89C502.588 271.89 502.588 271.686 502.383 271.583C502.383 271.583 502.383 271.379 502.077 271.174C502.077 271.174 501.463 270.561 501.361 270.561C501.361 270.561 501.157 270.356 501.054 270.254C500.85 270.254 500.748 270.049 500.543 269.947C500.543 269.947 500.339 269.947 500.237 269.947C500.032 269.947 499.828 269.947 499.623 269.947H498.294C498.294 269.947 497.885 269.947 497.681 269.947C497.681 269.947 497.681 269.947 497.476 269.947C497.476 269.947 497.408 269.947 497.272 269.947C497.272 269.947 496.965 270.152 496.658 270.356L496.454 270.561C496.454 270.561 496.147 270.867 495.943 270.97C495.943 270.97 495.738 271.174 495.738 271.276C495.738 271.276 495.534 271.686 495.431 271.992C495.431 271.992 495.431 272.197 495.431 272.299C495.431 272.299 495.431 272.504 495.227 272.606C494.614 274.447 494.102 276.185 493.489 278.026C492.262 281.708 491.138 285.389 490.013 289.071C489.604 290.298 488.888 290.4 487.866 290.4C486.844 290.094 486.23 289.071 486.639 288.151C487.457 285.594 488.173 283.037 488.991 280.583C489.706 278.231 490.422 275.981 491.138 273.526C491.547 272.197 491.955 270.97 492.467 269.845C492.467 269.845 492.467 269.777 492.467 269.64C492.467 269.64 492.978 268.822 493.285 268.311C494.92 266.572 496.863 265.856 499.214 265.856C501.566 266.061 503.508 267.083 504.837 268.924C506.371 270.867 506.575 273.424 505.859 275.878C504.939 278.64 504.019 281.401 503.099 284.264C501.566 289.071 500.032 293.98 498.499 298.889C497.067 303.388 495.534 308.093 494.205 312.592C493.489 314.638 492.876 316.581 492.16 318.728C491.955 319.547 491.24 320.058 490.422 320.058C489.706 320.058 488.991 319.649 488.684 318.728C488.173 317.297 487.764 315.763 487.253 314.229L483.163 301.65C481.425 296.639 479.892 291.628 478.154 286.617C476.927 282.73 475.7 278.946 474.371 275.06C474.064 274.14 473.758 273.22 473.553 272.299V272.094C473.553 272.094 473.553 272.026 473.553 271.89C473.553 271.89 473.349 271.481 473.349 271.379C473.349 271.174 473.042 271.072 473.042 270.867L472.735 270.663L472.531 270.356C472.531 270.356 472.122 270.049 472.02 270.049C472.02 270.049 471.713 269.845 471.611 269.845C471.611 269.845 471.611 269.845 471.406 269.845C471.406 269.845 471.202 269.845 471.1 269.64H469.055C469.055 269.64 468.748 269.64 468.748 269.845L468.237 270.151L467.419 270.765L467.215 271.072C467.215 271.072 467.215 271.14 467.215 271.276C467.215 271.276 467.01 271.583 466.908 271.685L466.601 272.197V272.401C466.601 272.401 466.397 272.81 466.397 273.117C465.988 274.651 465.477 276.185 464.965 277.617C463.534 282.628 461.898 287.435 460.365 292.241C459.547 295.105 458.525 297.866 457.707 300.627C457.4 301.445 456.889 301.957 455.866 301.957H455.56C454.64 301.957 454.026 301.343 453.72 300.627C453.72 300.218 453.515 299.809 453.311 299.4C451.982 295.207 450.653 291.116 449.323 286.821L445.336 274.038C445.336 274.038 445.03 273.219 444.927 272.708C444.927 272.708 444.927 272.708 444.927 272.504L444.723 272.197C444.723 272.197 444.518 271.685 444.416 271.481C444.416 271.481 444.416 271.413 444.416 271.276L443.803 270.663C443.803 270.663 443.803 270.663 443.598 270.663C443.598 270.663 443.53 270.663 443.394 270.663C443.394 270.663 443.087 270.356 442.883 270.356C442.883 270.356 442.883 270.356 442.678 270.356C442.678 270.356 442.167 270.151 441.86 270.151H440.736C440.736 270.151 440.327 270.152 440.02 270.356H439.713C439.713 270.356 439.304 270.663 439.1 270.765C438.793 271.072 438.589 271.174 438.384 271.481C438.384 271.481 438.316 271.481 438.18 271.481C438.18 271.481 437.873 271.788 437.873 271.992C437.873 272.197 437.669 272.504 437.669 272.504C437.669 272.708 437.669 272.708 437.669 272.913C437.669 272.913 437.669 273.424 437.464 273.424V274.242C437.464 274.242 437.669 274.856 437.669 274.958C437.669 274.958 437.669 274.958 437.669 275.163C437.669 275.163 437.669 275.674 437.873 275.878C438.18 277.106 438.691 278.23 438.998 279.355C440.327 283.651 441.656 287.844 442.985 292.037C444.621 297.15 446.256 302.059 447.892 307.07C449.017 310.752 450.244 314.433 451.368 318.217C451.573 318.933 451.777 319.649 452.084 320.365V320.569V320.774C452.084 320.774 452.39 321.285 452.493 321.592C452.493 321.592 452.493 321.796 452.697 321.899C452.697 322.103 453.004 322.205 453.106 322.205V322.41C453.106 322.41 453.822 322.717 454.026 322.819H454.231C454.435 322.819 454.64 323.024 454.946 323.024C454.946 323.024 455.151 323.024 455.253 323.024H455.969C455.969 323.024 456.173 323.024 456.275 323.024C456.275 323.024 456.684 323.024 456.991 322.819H457.196H457.4C457.4 322.819 457.707 322.512 458.013 322.512C458.013 322.512 458.218 322.308 458.32 322.308C458.525 322.308 458.627 322.001 458.729 321.899C458.729 321.899 458.729 321.694 458.934 321.592C458.934 321.592 459.342 320.672 459.445 320.672V320.467L459.751 319.649C460.16 318.217 460.672 316.683 461.08 315.047C462.716 310.24 464.25 305.332 465.783 300.423C466.601 297.662 467.521 294.9 468.441 292.139C468.748 291.321 469.362 290.81 470.179 290.81C470.895 290.81 471.611 291.218 471.917 292.139C472.838 295.309 473.86 298.48 474.882 301.548C476.416 306.456 477.847 311.161 479.381 315.967C479.79 317.297 480.198 318.728 480.71 319.956C480.71 320.16 480.71 320.16 480.71 320.365C480.71 320.365 480.914 320.569 480.914 320.774C480.914 320.774 480.914 320.978 481.119 320.978C481.119 321.183 481.323 321.285 481.425 321.387C481.63 321.592 481.63 321.694 481.834 321.899C481.834 321.899 482.345 322.205 482.141 322.205L482.959 322.615C483.266 322.615 483.368 322.819 483.674 322.819H483.981C483.981 322.819 484.288 322.819 484.492 322.819C485.515 322.819 486.333 323.637 486.333 324.558C486.333 325.683 485.515 326.398 484.39 326.398C481.732 326.398 479.381 324.967 478.052 322.717C477.745 322.206 477.54 321.694 477.336 321.081L477.029 320.365C476.518 318.728 476.109 317.195 475.598 315.661C473.962 310.854 472.531 306.047 470.997 301.138C470.691 300.116 470.282 299.196 470.077 298.173C468.748 302.059 467.624 305.945 466.397 309.831C465.272 313.411 464.045 317.092 462.921 320.569C462.103 324.047 458.934 326.296 455.355 326.296C452.084 326.296 449.221 324.046 448.199 320.978C447.483 318.728 446.768 316.581 446.052 314.331C444.621 309.729 443.087 305.025 441.656 300.525C440.122 295.718 438.589 290.707 437.055 285.798C436.135 282.833 435.113 279.662 434.09 276.492C433.579 274.958 433.375 273.424 433.784 271.788L434.193 271.583Z" fill="#010C23"/>
<path d="M120.331 209.405C121.046 209.2 121.762 209.098 122.478 209.098C124.216 209.098 126.056 209.609 127.385 210.632C128.407 211.348 129.123 212.166 129.736 213.291C129.941 213.598 130.043 213.802 130.248 214.109C130.248 214.518 130.554 214.825 130.656 215.234C130.861 216.052 131.168 216.666 131.474 217.586C132.701 221.575 134.132 225.768 135.359 229.756C137.302 235.585 139.142 241.21 141.084 246.937C142.72 251.948 144.356 256.959 145.992 262.072V262.277C147.423 257.675 149.059 252.971 150.49 248.164C152.33 242.539 154.171 236.914 156.011 231.188C157.135 227.506 158.26 223.824 159.487 220.143C159.487 219.734 159.691 219.427 159.794 219.12C159.794 219.12 159.794 218.916 159.794 218.813C159.794 218.609 159.794 218.404 159.998 218.2V217.075C159.998 217.075 159.998 216.563 159.998 216.461C159.998 216.256 159.998 216.154 159.794 215.95C159.794 215.95 159.589 215.541 159.487 215.438C159.487 215.029 158.771 214.211 158.362 214.109C158.362 214.109 158.294 214.109 158.158 214.109C158.158 214.109 157.851 213.802 157.544 213.7C157.34 213.7 157.238 213.7 157.238 213.495C156.931 213.495 156.624 213.495 156.318 213.495H156.011C156.011 213.495 155.602 213.495 155.397 213.495H154.988C154.988 213.495 154.375 213.495 154.068 213.495C154.068 213.495 154.068 213.495 153.864 213.495C153.557 213.7 153.25 213.802 152.944 214.109H153.25L151.512 215.847V216.052C151.512 216.052 151.512 216.256 151.512 216.461C151.206 217.177 151.001 217.688 150.797 218.404C149.979 220.859 149.263 223.518 148.445 225.972C147.116 229.961 145.787 234.051 144.56 238.04C144.56 238.551 144.049 239.062 143.64 239.267C143.027 239.267 142.618 239.471 142.107 239.471C140.982 239.062 140.267 238.039 140.676 236.914C142.516 230.472 144.56 223.824 146.912 217.484C147.219 216.257 147.628 215.132 148.036 214.007C148.241 213.7 148.343 213.495 148.445 213.189C148.752 212.677 149.161 212.166 149.57 211.757C151.41 209.814 153.557 208.996 156.215 208.996C158.976 209.2 161.225 210.325 162.758 212.575C164.394 214.825 164.701 217.79 163.883 220.552C162.758 223.722 161.838 226.892 160.714 230.165C159.078 235.687 157.34 241.21 155.5 246.834C153.864 252.05 152.024 257.368 150.388 262.584L148.241 269.538C147.934 270.56 147.014 270.97 146.298 270.97C145.378 270.97 144.663 270.458 144.356 269.538C141.596 262.072 139.244 254.402 136.893 246.732C135.053 241.108 133.11 235.483 131.168 229.756C129.941 225.87 128.612 221.983 127.385 217.995C127.181 217.381 126.976 216.768 126.772 216.257C126.772 216.052 126.772 215.95 126.567 215.847C126.567 215.643 126.567 215.541 126.567 215.336C126.567 215.132 126.363 215.029 126.26 214.825C126.26 214.825 125.851 214.518 125.749 214.518C125.749 214.313 125.545 214.211 125.34 214.109C125.34 214.109 125.136 213.802 124.931 213.7C124.931 213.7 124.113 213.291 124.42 213.393C124.216 213.393 124.011 213.393 123.807 213.189H123.296C123.296 213.189 122.887 213.189 122.682 213.189H121.558C121.558 213.189 121.149 213.189 121.046 213.393H120.842C120.842 213.393 120.535 213.598 120.433 213.7C120.229 213.7 120.024 213.904 119.922 214.007C119.922 214.007 119.922 214.211 119.717 214.313L119.104 214.825C119.104 214.825 119.104 215.029 119.104 215.131C118.899 215.336 118.797 215.643 118.695 215.847V216.154C118.695 216.154 118.491 216.666 118.491 216.973V218.097C118.491 218.097 118.695 219.018 118.797 219.324C119.206 220.552 119.513 221.575 119.82 222.699C121.251 227.301 122.784 231.903 124.216 236.403C126.056 242.233 127.794 247.857 129.736 253.584C131.168 258.186 132.701 262.686 134.03 267.186C134.337 268.209 134.644 269.333 135.053 270.356C135.053 270.356 135.053 270.561 135.053 270.663C135.053 270.663 135.257 271.276 135.462 271.481C135.462 271.685 135.462 271.788 135.666 271.992C135.666 271.992 135.973 272.401 136.075 272.606C136.075 272.606 136.791 273.015 136.586 272.913C136.791 272.913 136.893 273.117 137.097 273.22C137.097 273.22 137.302 273.219 137.506 273.424C137.711 273.424 138.017 273.629 138.222 273.731H138.631C138.631 273.731 139.04 273.731 139.244 273.731C140.471 273.731 141.391 274.651 141.391 275.674C141.391 276.901 140.369 277.821 139.244 277.821C135.257 277.821 132.292 275.367 131.065 271.685C131.065 271.276 130.861 271.072 130.759 270.663C130.248 269.333 129.736 267.799 129.43 266.47C127.896 261.459 126.26 256.55 124.727 251.641C122.887 245.914 121.046 240.187 119.308 234.46C117.979 230.472 116.65 226.279 115.321 222.188L114.708 220.143C113.379 215.643 116.037 210.529 120.74 209.405H120.331Z" fill="#010C23"/>
<path d="M407.407 131.272C409.656 136.795 410.678 142.624 410.167 148.453C408.02 166.248 394.219 179.133 376.021 179.44H375.714C356.801 179.133 341.465 164.305 341.465 145.078C341.465 143.851 342.385 143.033 343.51 143.033H354.449C355.165 132.09 365.082 123.705 375.816 123.705H376.021C380.826 123.705 385.222 125.341 389.107 128.204C396.263 133.624 399.228 143.544 396.263 151.93C394.832 156.123 392.174 159.907 388.391 162.464C384.813 165.225 380.417 166.452 376.021 166.554C366.922 166.35 359.254 160.93 355.778 152.544C355.369 151.521 356.289 150.396 357.21 150.089C357.414 150.089 357.721 150.089 357.925 150.089C358.845 150.089 359.459 150.805 359.765 151.623C359.765 151.623 359.97 151.828 359.97 151.93C359.97 152.135 360.174 152.339 360.174 152.544C360.583 153.362 361.094 154.283 361.606 154.998C361.606 154.998 361.912 155.407 362.015 155.612C363.139 156.839 364.059 157.862 365.286 158.782L365.491 158.987C365.695 158.987 365.797 159.294 366.104 159.396C366.82 159.907 367.535 160.418 368.455 160.827C368.762 160.827 368.967 161.032 369.171 161.032C369.171 161.032 369.375 161.032 369.478 161.237C369.989 161.441 370.398 161.543 370.705 161.748C371.727 162.055 372.647 162.259 373.567 162.464H373.976C373.976 162.464 374.487 162.464 374.794 162.464H378.065C378.065 162.464 378.27 162.259 378.372 162.464C379.19 162.464 380.008 162.157 380.826 161.953C381.133 161.953 381.541 161.646 382.053 161.543C382.257 161.543 382.359 161.339 382.564 161.339C382.564 161.339 382.871 161.339 382.973 161.134C383.688 160.93 384.302 160.521 384.915 160.112L386.244 159.293C386.244 159.293 386.653 158.987 386.858 158.782C386.858 158.782 386.926 158.714 387.062 158.578C387.062 158.578 389.925 156.021 389.925 155.51C389.925 155.51 390.538 154.692 390.743 154.282C391.254 153.464 391.765 152.646 392.072 151.828C392.072 151.828 392.072 151.623 392.072 151.521C392.072 151.521 392.072 151.317 392.276 151.112C392.276 150.908 392.276 150.703 392.481 150.499C392.685 149.987 392.787 149.373 392.89 148.964C392.89 148.453 393.094 147.942 393.196 147.533V147.124C393.196 147.124 393.196 146.612 393.196 146.306C393.196 145.181 393.196 144.158 393.196 143.033V142.726C393.196 142.726 393.196 142.01 393.196 141.806C393.196 141.295 392.89 140.783 392.89 140.374C392.685 139.863 392.583 139.351 392.378 138.84C392.378 138.84 392.174 138.533 392.174 138.431C392.174 138.431 391.969 138.022 391.867 137.92C391.458 136.999 390.947 136.079 390.436 135.261C390.231 134.954 390.027 134.749 389.925 134.443C389.925 134.443 389.925 134.443 389.925 134.238C389.516 133.931 389.209 133.522 388.8 133.113C388.085 132.397 387.471 131.783 386.653 131.068C386.653 131.068 386.449 131.068 386.347 130.863C386.142 130.659 385.938 130.556 385.631 130.454C385.222 130.147 384.813 129.84 384.404 129.534C383.995 129.534 383.484 129.125 382.973 128.92C382.973 128.92 382.973 128.92 382.768 128.716C382.564 128.716 382.359 128.715 382.155 128.511C381.133 128.102 380.11 127.897 379.088 127.693H378.679H377.861C377.861 127.693 376.839 127.693 376.43 127.693H376.123C375.51 127.693 374.896 127.693 374.283 127.693H373.772C373.772 127.693 373.26 127.897 372.852 127.897C371.829 128.102 370.807 128.409 369.784 128.818C369.784 128.818 369.58 128.818 369.376 128.818C369.171 129.023 368.967 129.125 368.66 129.227C368.149 129.431 367.74 129.636 367.433 129.943L366.104 130.863C366.104 130.863 365.695 131.068 365.491 131.17C365.491 131.17 365.286 131.374 365.184 131.477C364.366 132.193 363.65 132.806 363.037 133.727L362.424 134.34C362.424 134.34 362.424 134.34 362.424 134.545C362.015 135.056 361.81 135.568 361.503 135.772C361.197 136.283 360.89 136.795 360.583 137.204C360.583 137.408 360.379 137.715 360.379 137.92C360.379 137.92 360.379 138.124 360.174 138.226C359.765 139.249 359.356 140.169 359.152 141.294C359.152 141.601 358.948 141.908 358.948 142.317C358.948 142.317 358.948 142.726 358.948 142.624V143.033C358.948 143.647 358.948 144.26 358.948 144.976C358.948 146.101 357.823 147.022 356.801 147.022H345.964C345.964 147.022 345.964 147.328 345.964 147.43C345.964 147.942 345.964 148.351 345.964 148.658V148.862C345.964 148.862 345.964 149.169 345.964 149.271C346.168 150.703 346.577 152.135 346.884 153.567C347.19 154.385 347.497 154.998 347.804 155.816C347.804 156.123 347.804 156.328 348.008 156.43C348.008 156.43 348.213 157.248 348.315 157.555C348.928 158.782 349.542 159.907 350.258 161.032C350.666 161.646 351.075 162.259 351.382 162.668C351.587 162.975 351.791 163.18 351.996 163.486C351.996 163.486 352.2 163.691 352.302 163.793C353.12 164.918 353.938 165.839 354.96 166.759C355.472 167.168 355.88 167.68 356.392 168.089C356.596 168.293 356.903 168.498 357.107 168.6C357.107 168.804 357.414 168.907 357.516 169.009C359.356 170.338 362.015 172.077 364.162 172.793C364.162 172.793 364.468 172.997 364.57 172.997C364.775 172.997 364.877 173.202 365.082 173.202C365.388 173.407 365.695 173.509 366.002 173.611L367.944 174.224C368.66 174.224 369.273 174.531 370.091 174.736C370.398 174.736 370.705 174.736 371.011 174.94H371.625C373.056 175.247 374.487 175.35 375.919 175.35H376.123C377.043 175.35 377.861 175.35 378.781 175.145C379.19 175.145 379.599 175.145 380.008 175.145C380.008 175.145 380.417 175.145 380.621 175.145C381.235 175.145 381.848 174.94 382.462 174.736C383.791 174.531 385.222 174.122 386.449 173.509C386.858 173.509 387.164 173.304 387.573 173.1C387.573 173.1 387.88 172.895 388.085 172.895C388.596 172.588 389.209 172.384 389.72 172.077C390.845 171.463 391.867 170.85 392.992 170.032C393.401 170.032 393.707 169.725 394.014 169.418L394.321 169.111C394.321 169.111 394.525 169.111 394.628 168.907C395.139 168.6 395.548 168.293 395.854 167.884C396.979 166.861 397.797 166.043 398.717 165.123C399.126 164.509 399.637 163.998 400.046 163.589C400.046 163.589 400.046 163.384 400.046 163.282C400.046 163.282 400.046 163.214 400.046 163.077C400.046 163.077 400.455 162.566 400.659 162.362C401.477 161.134 401.989 160.112 402.704 158.987C403.011 158.271 403.215 157.76 403.522 157.146C403.522 157.146 403.727 156.839 403.727 156.634C403.727 156.634 404.033 155.919 404.135 155.612C404.544 154.385 404.953 152.953 405.362 151.726C405.362 150.908 405.669 150.294 405.771 149.476V149.169V148.964C405.771 148.555 405.771 148.249 405.771 147.84C405.771 146.51 405.976 144.976 405.771 143.647V141.499C405.771 141.499 405.567 141.295 405.771 141.192V140.885C405.771 140.885 405.771 140.17 405.567 139.863C405.26 138.533 404.953 136.999 404.442 135.772C404.238 135.056 404.033 134.443 403.727 133.829C403.727 133.624 403.727 133.522 403.727 133.42C403.727 133.42 403.727 133.352 403.727 133.215C403.727 133.215 403.42 132.602 403.318 132.295C402.704 131.068 402.091 129.943 401.477 128.818C401.068 128.204 400.762 127.591 400.251 127.182C400.046 126.977 399.842 126.67 399.739 126.466C399.739 126.466 399.535 126.056 399.433 125.954C398.513 125.034 397.695 124.011 396.775 123.091C396.263 122.579 395.65 122.17 395.241 121.864C395.037 121.557 394.73 121.352 394.525 121.148C394.525 121.148 394.219 121.148 394.116 120.841C393.094 120.023 392.072 119.307 390.947 118.693L387.573 117.057C387.573 117.057 387.062 117.057 387.062 116.853C386.858 116.853 386.755 116.853 386.551 116.648C386.244 116.648 385.938 116.444 385.529 116.341C384.915 116.137 384.302 115.83 383.688 115.727C382.973 115.523 382.257 115.319 381.644 115.216C381.235 115.216 380.928 115.216 380.621 115.012C380.417 115.012 380.212 115.012 380.11 115.012H379.906C378.577 114.807 377.145 114.807 375.816 114.807H372.647C372.647 114.807 372.34 114.807 372.136 114.807H371.931C371.931 114.807 371.625 114.807 371.522 114.807C371.114 114.807 370.705 114.807 370.296 115.012C368.558 115.319 366.82 115.83 364.979 116.341C364.57 116.546 364.162 116.648 363.855 116.853C363.855 116.853 363.548 116.852 363.344 117.057C361.606 117.977 359.97 118.693 358.334 119.818C358.13 120.125 357.721 120.33 357.414 120.534C357.414 120.534 357.21 120.739 357.005 120.739L356.801 120.943C356.392 121.352 355.88 121.659 355.574 122.068C354.551 122.989 353.734 123.807 352.813 124.932C352.302 125.341 351.893 125.954 351.587 126.466H351.382C351.382 126.466 351.382 126.67 351.178 126.67L350.666 127.591C349.849 128.613 349.235 129.738 348.724 130.966C348.315 131.477 348.008 132.193 347.804 132.602C347.804 132.806 347.804 133.011 347.599 133.113C347.599 133.113 347.293 133.931 347.088 134.238C346.577 135.568 346.27 136.999 345.861 138.329C345.453 139.556 344.635 139.863 343.306 139.863C342.181 139.454 341.67 138.431 341.874 137.204C345.657 121.557 359.152 110.41 375.407 110.41H375.612C377.963 110.41 380.315 110.716 382.564 111.228C393.299 113.375 402.704 120.943 406.998 130.966L407.407 131.272Z" fill="#010C23"/>
<path d="M405.362 711.64C405.873 707.14 409.247 703.663 413.848 703.663C418.448 703.663 422.333 707.549 422.333 712.254V750.501C422.333 751.626 421.311 752.445 420.186 752.445C419.062 752.445 418.244 751.524 418.244 750.399V711.538C418.244 711.538 418.244 711.333 418.244 711.128C418.244 710.924 418.039 710.617 417.937 710.413C417.937 710.413 417.937 710.106 417.733 710.004C417.733 709.799 417.528 709.492 417.324 709.288C417.324 709.288 417.256 709.288 417.119 709.288C417.119 709.288 416.915 708.879 416.71 708.674C416.71 708.674 416.506 708.674 416.404 708.47C416.404 708.47 415.995 708.163 415.688 708.061C415.688 708.061 415.177 707.856 414.87 707.856H414.359C414.359 707.856 414.052 707.856 413.746 707.856H413.439C413.439 707.856 412.928 707.856 412.723 707.856C412.723 707.856 412.417 707.856 412.314 707.856C412.008 707.856 411.803 708.06 411.599 708.265C411.599 708.265 411.19 708.674 411.19 708.572C411.19 708.776 410.883 708.879 410.781 708.981L410.474 709.288L410.167 709.901C410.167 709.901 409.861 710.617 409.861 710.413L409.656 711.333V755.206H437.055C438.078 755.206 438.998 755.41 440.02 755.615C442.371 756.433 444.212 758.069 445.336 760.319C446.359 762.671 446.359 765.432 445.03 767.785C443.905 769.932 441.758 771.569 439.407 771.978C438.384 772.284 437.464 772.284 436.442 772.284H407.509C406.385 772.284 405.465 771.262 405.465 770.137C405.465 769.012 406.487 768.194 407.611 768.194H438.078C438.078 768.194 438.486 768.194 438.589 767.989C438.793 767.989 438.998 767.989 439.202 767.989C439.202 767.989 439.202 767.989 439.407 767.989C439.407 767.989 439.611 767.785 439.713 767.785C439.918 767.785 440.122 767.478 440.327 767.375C440.327 767.375 440.531 767.376 440.531 767.171C440.736 766.967 440.94 766.864 441.145 766.66C441.145 766.66 441.145 766.353 441.145 766.251C441.145 766.251 441.656 765.535 441.656 765.33C441.656 765.024 441.86 764.819 441.962 764.41V763.183C441.962 763.183 441.962 763.183 441.962 762.978C441.962 762.774 441.962 762.569 441.758 762.364C441.758 762.364 441.758 762.058 441.758 761.955C441.758 761.751 441.451 761.546 441.349 761.24C441.349 761.24 441.349 761.171 441.349 761.035C441.349 761.035 441.042 760.626 440.838 760.421C440.633 760.421 440.531 760.217 440.429 760.115C440.224 760.115 440.02 759.808 439.816 759.705C439.816 759.705 439.611 759.705 439.509 759.705C439.202 759.705 438.998 759.706 438.793 759.501C438.589 759.501 438.486 759.501 438.282 759.501H407.714C406.589 759.501 405.669 758.376 405.669 757.353V714.299C405.669 713.379 405.669 712.56 405.669 711.64H405.362Z" fill="#010C23"/>
</svg>
