<svg width="2780" height="782" viewBox="0 0 2780 782" fill="none" xmlns="http://www.w3.org/2000/svg">
<path d="M35.9476 197.58C39.8325 196.456 44.3309 195.944 48.2158 195.944C58.2348 195.944 68.2539 198.706 76.0238 204.842C81.5445 208.728 86.0428 213.739 89.4165 219.875C90.5411 221.511 91.0524 222.636 92.1769 224.375C92.6881 226.625 93.8127 228.261 94.4261 230.511C95.5507 235.01 97.1864 238.897 98.9244 243.908C106.183 266.713 113.953 290.132 121.212 312.938C132.355 345.766 142.886 378.083 153.518 410.297C162.924 438.625 171.818 467.055 181.326 495.997C181.326 496.508 181.837 497.122 181.837 497.122C190.22 470.941 199.115 444.25 207.396 417.046C217.926 385.344 227.945 353.027 238.578 320.813C244.712 300.257 251.357 279.088 258.002 258.532C258.514 256.282 259.127 254.646 259.638 253.009C260.149 252.498 260.149 251.885 260.149 251.373C260.66 250.248 260.66 249.123 261.274 247.998V241.862C261.274 241.351 260.763 239.101 260.763 238.487C260.251 237.363 260.251 236.851 259.638 235.726C259.127 235.215 258.514 233.476 258.002 232.965C257.491 230.715 254.117 226.318 251.868 225.193V224.681H251.357C251.016 224.341 250.641 224.17 250.232 224.17C249.108 223.045 248.597 222.534 246.859 221.92C245.734 221.409 245.223 221.409 245.223 220.795C243.587 220.795 241.849 220.795 240.213 220.284H238.578C237.453 220.284 236.328 219.773 235.204 220.284H232.955C231.319 220.284 229.581 220.284 227.945 220.795C227.945 221.307 227.434 221.307 226.821 221.307C225.185 222.432 223.447 222.943 221.811 224.681H223.447L213.428 234.704V235.829C213.428 236.954 212.917 236.954 212.917 238.078C211.281 241.965 210.156 245.339 209.032 249.226C204.533 263.134 200.137 278.167 195.639 292.076C187.869 314.881 180.61 337.687 173.352 360.493C172.84 363.254 170.591 366.015 168.342 367.753C164.968 368.265 162.821 368.878 159.448 368.878C153.313 366.629 148.917 360.493 151.064 354.356C161.595 317.642 173.352 280.417 186.131 244.214C187.767 237.567 190.016 230.817 192.265 224.784C193.39 223.147 193.901 222.022 194.514 220.284C196.15 217.523 198.399 214.762 200.648 211.898C211.179 200.751 223.447 196.353 238.475 196.353C254.015 197.478 266.795 204.126 275.689 216.398C285.095 229.181 286.833 245.851 281.823 261.498C275.689 279.292 270.168 297.7 264.034 316.006C254.629 347.198 244.61 378.901 234.59 410.604C225.083 440.057 215.166 470.123 205.658 499.576L193.39 539.051C191.754 544.574 186.744 547.437 182.246 547.437C177.237 547.437 172.738 544.676 171.102 539.051C155.563 496.815 142.17 453.351 128.879 409.99C118.349 378.287 107.205 345.971 96.6752 313.756C89.4165 291.462 82.2601 269.781 75.0014 246.976C73.8768 243.601 72.7522 239.715 71.6277 236.954C71.6277 235.829 71.1165 235.317 70.5031 234.704C70.5031 233.579 70.503 233.067 69.9919 231.942C69.4807 230.817 68.8673 230.306 68.3561 229.181C67.845 229.181 66.1069 227.545 65.5957 227.545C65.0846 226.42 64.4712 225.909 63.3466 225.295L62.8354 224.784C62.3243 224.272 61.7108 223.659 60.5862 223.147C60.0751 222.636 56.1902 220.898 57.8259 221.511C56.7013 221 55.5767 221 54.4522 220.386H51.6918C50.5673 220.386 49.4426 219.875 48.3181 220.386H42.184C41.0594 220.386 39.9347 220.898 39.4236 221.511H38.299C37.1744 222.023 36.6632 222.636 36.0498 223.147C34.9252 223.659 33.8007 224.272 33.2895 224.784H32.7783C32.7783 225.295 32.2671 225.909 31.6537 226.42L28.28 229.181C28.28 229.693 27.7688 230.306 27.7688 230.817C26.6442 231.942 26.133 233.579 25.5196 234.704L25.0085 235.215V236.34C24.4973 237.465 23.8839 239.101 23.8839 240.84L23.3727 241.351V247.487L23.8839 247.998C23.8839 250.248 25.0084 252.498 25.5196 254.134C27.7688 260.782 29.4045 266.918 31.0403 273.054C39.4236 299.234 47.7047 325.313 56.088 350.982C66.6182 383.809 76.6371 416.126 87.1674 448.34C95.5506 474.521 103.832 500.088 111.602 525.654C113.237 531.177 114.975 537.927 117.122 543.449C117.122 543.96 117.633 544.574 117.633 545.085V545.597C118.145 546.721 118.758 548.358 119.883 549.483C120.394 550.608 120.394 551.119 121.007 552.244H121.518V552.755C122.643 553.267 123.154 554.392 123.768 555.516C124.279 556.028 127.653 557.766 126.528 557.153C127.653 557.664 128.164 558.278 129.288 558.789C129.799 559.3 130.413 559.3 131.537 559.914C132.662 560.425 134.298 561.039 135.422 561.55H137.672C138.796 562.062 139.921 562.062 141.045 562.062C147.691 562.062 153.314 567.073 153.314 573.209C153.314 579.856 147.793 585.481 141.045 585.481C118.247 585.481 101.583 571.572 94.835 550.403C94.3238 548.153 93.7105 547.028 93.1993 544.881C90.4389 537.108 87.6786 528.723 85.4294 520.95C76.5349 492.622 67.6405 464.805 58.746 436.989C48.2158 404.672 38.1968 371.946 28.1777 339.63C20.4079 316.824 13.1491 293.507 5.37925 270.088L2.00555 258.43C-5.76432 232.863 9.77542 203.921 35.9476 197.785V197.58Z" fill="#69E3E3"/>
<path d="M664.489 312.222C677.269 343.414 682.79 376.753 680.029 409.581C667.761 510.314 589.347 583.742 486.498 585.378H484.862C377.515 583.742 290.82 499.678 290.82 390.661C290.82 384.014 295.83 379.003 302.475 379.003H364.225C368.11 317.233 424.339 269.372 485.476 269.372H486.6C513.897 269.372 538.842 278.781 560.619 294.939C601.206 325.517 617.87 381.764 601.206 429.523C592.823 453.454 577.794 474.623 556.734 489.042C536.696 504.587 511.648 511.848 486.6 512.462H486.089C434.358 511.337 391.01 480.759 371.484 432.898C369.234 427.375 374.244 420.626 379.867 418.989C380.991 418.478 382.627 418.478 383.752 418.478C388.761 418.478 392.646 422.364 394.282 427.375C394.793 427.887 395.407 428.5 395.407 429.012C395.918 430.137 396.531 431.261 396.531 432.386C398.78 436.784 401.541 442.409 404.914 446.295C405.426 446.806 406.55 448.545 407.164 449.67C413.809 456.931 418.818 462.453 425.566 467.464C425.566 467.975 426.691 468.589 426.691 468.589C427.815 469.1 428.326 470.225 430.064 470.839C433.949 473.6 438.448 476.361 443.457 479.225C445.093 479.736 446.217 480.35 447.342 480.35C447.853 480.861 448.467 480.861 448.978 481.475C451.738 482.6 453.987 483.111 456.237 484.236C461.757 485.872 467.38 486.997 472.39 488.122H474.639C476.275 488.122 477.399 488.633 479.035 488.633H497.335C497.846 488.122 498.46 487.509 498.971 488.122C503.469 487.611 508.376 486.486 512.875 485.361C514.51 484.85 516.76 483.725 519.52 483.111C520.645 482.6 521.156 481.986 522.28 481.986C522.792 481.475 523.916 481.475 524.53 480.861C528.414 479.736 532.3 477.486 535.673 475.339L543.443 470.839C544.568 469.714 545.692 469.203 546.817 468.078L547.941 466.953C550.191 464.703 564.095 452.533 564.095 449.67H564.606C566.241 447.42 567.979 445.272 569.104 443.022C571.864 438.522 574.625 433.614 576.874 429.114C576.874 428.602 577.385 427.989 577.385 427.478C577.896 426.966 577.896 426.353 578.51 425.228C578.51 424.103 579.021 422.978 579.634 421.853C580.759 419.092 581.27 415.717 581.883 412.956C582.395 410.194 583.008 407.433 583.519 404.57V402.32C584.03 400.683 584.03 399.559 584.03 397.82C584.542 391.684 584.542 385.548 584.03 379.514C583.519 379.514 583.519 377.878 583.519 377.878V377.366C583.519 375.73 583.008 373.992 583.008 372.867C582.497 370.105 581.372 367.344 581.372 364.481C580.248 361.72 579.737 358.958 578.612 355.584C578.101 355.072 577.487 353.947 577.487 353.334C576.976 352.822 576.363 351.084 575.852 350.572C573.602 345.561 570.842 340.039 567.468 335.539C566.344 333.903 565.219 332.778 564.708 331.142C564.197 331.142 564.197 330.63 564.197 330.017C561.948 328.38 560.312 326.131 558.063 323.881C554.178 319.995 550.293 316.108 545.794 312.222H545.283C544.772 312.222 544.159 311.711 543.648 311.097C542.523 309.972 541.398 309.461 539.763 308.847C537.513 307.211 535.264 305.472 533.117 303.836C530.868 303.325 528.108 301.586 524.734 300.461L524.223 299.95C523.882 299.95 523.507 299.78 523.098 299.439C521.974 299.439 520.849 298.927 519.724 298.314C514.204 296.064 508.07 294.939 502.447 293.916H500.198C499.857 293.916 499.686 293.746 499.686 293.405H495.188C492.428 292.894 489.667 292.894 486.805 292.894H485.169C481.795 292.894 477.91 292.894 474.639 293.405H472.39L471.878 293.916C470.754 293.916 469.118 294.428 466.869 294.428C461.348 295.553 455.214 297.189 449.591 299.439C449.08 299.439 448.467 299.95 447.342 299.95C446.217 301.075 445.093 301.586 443.457 302.2C440.697 303.325 438.448 304.45 436.198 306.086L428.429 311.097L425.055 312.734V313.245C424.544 313.245 423.93 313.756 423.419 314.37C418.921 318.256 414.525 322.142 411.151 327.153C410.026 328.278 408.902 329.403 407.777 330.528C407.777 331.039 407.266 331.039 407.266 331.653C405.017 334.414 403.892 337.175 402.256 338.914C400.621 341.675 398.883 344.436 397.247 347.3C396.736 348.425 396.122 350.061 396.122 351.186C395.611 351.697 395.611 352.311 394.998 352.822C392.748 358.345 390.499 363.97 389.477 370.106C388.966 371.742 388.352 373.48 388.352 375.628C388.352 375.628 387.841 377.878 387.841 377.264V379.514C387.841 382.889 387.33 386.775 387.841 390.661C387.841 396.797 381.707 402.32 375.573 402.32H314.436C314.948 402.831 314.948 403.956 314.948 404.57C314.948 407.331 314.948 409.581 315.459 411.831V412.956C315.97 414.08 315.97 414.592 315.97 415.205C317.094 423.591 319.344 431.364 320.979 439.647C322.615 444.045 324.353 448.033 325.989 452.431C326.5 454.067 326.5 455.192 327.113 455.806L327.625 456.317C328.136 457.953 328.749 460.203 329.26 461.839C332.634 468.487 336.519 475.236 340.404 481.27C342.653 484.645 344.902 487.918 346.538 490.679C347.663 492.315 348.787 493.44 349.912 495.179V495.69H350.423C350.934 496.201 351.548 496.815 352.059 497.326C356.557 503.462 361.567 508.985 367.087 513.996C369.848 516.246 372.097 519.007 375.471 521.768C376.595 522.893 378.231 524.018 379.356 524.529C379.867 525.654 380.991 526.166 381.605 526.779C392.237 534.552 407.164 544.062 419.432 547.949C419.432 548.46 421.068 549.074 421.681 549.074C422.806 549.585 423.317 550.199 424.441 550.199C426.077 551.323 427.815 551.835 429.451 552.448L440.594 555.823C444.479 556.334 448.364 557.459 452.863 558.584C454.499 558.584 456.236 559.096 457.872 559.709H461.246C469.629 561.346 477.399 561.959 485.68 561.959H486.805C491.814 561.959 496.824 561.448 501.833 560.834C504.082 560.834 506.332 560.834 508.479 560.323H508.99C510.114 560.323 511.239 559.812 512.364 559.812C515.737 559.3 519.622 558.687 522.996 557.562C530.766 556.437 538.536 554.187 545.794 550.914C548.044 550.403 549.679 549.789 551.929 548.664H552.44V548.153C553.564 548.153 554.075 547.642 555.2 547.642C557.96 546.006 561.334 544.881 564.606 543.244C570.74 539.869 576.874 535.983 583.008 531.586C585.257 531.074 586.893 529.949 588.529 528.211L590.164 526.575C590.676 526.575 591.289 526.063 591.8 525.45C594.561 523.813 596.81 522.075 598.446 519.927C604.58 514.405 609.589 509.394 614.599 504.383C616.848 501.008 619.608 498.247 622.369 495.485C622.369 494.974 622.88 494.36 622.88 493.849C623.221 493.508 623.391 493.133 623.391 492.724C624.515 491.088 625.64 489.963 626.765 488.838C631.263 482.191 634.535 476.055 638.419 469.919C640.055 466.032 641.18 463.271 642.918 459.385C643.429 458.874 644.042 457.749 644.042 456.624H644.554V456.112C645.065 454.987 646.189 452.738 646.803 451.101C649.052 443.84 651.199 436.068 653.448 428.807C653.959 424.307 655.084 420.421 655.697 416.024L656.208 414.387V413.262C656.208 411.013 656.72 409.376 656.72 407.126C657.231 399.354 657.844 390.968 656.72 383.196V370.924C656.208 370.412 655.595 369.799 656.208 369.287V367.651C655.697 365.401 655.697 363.765 655.084 362.129C653.448 354.356 651.71 345.97 648.95 338.812C647.825 334.925 646.701 331.039 645.065 327.665C645.065 326.54 644.554 326.028 644.554 325.415C644.213 325.074 644.042 324.699 644.042 324.29C642.918 322.653 642.407 320.915 641.793 319.279C638.419 312.631 635.148 305.882 631.263 299.848C629.014 296.473 627.378 293.2 624.618 290.439C623.493 289.314 622.369 287.678 621.857 286.553V286.042C621.346 285.53 620.733 284.405 620.222 283.792C615.212 278.781 610.203 272.645 605.193 267.634C602.433 264.872 599.059 262.622 596.299 260.373C595.174 258.736 593.538 257.611 592.414 256.486C591.902 255.975 590.778 255.975 590.164 254.85H589.653V254.339C584.133 250.453 577.999 245.953 571.864 242.68L552.951 233.272C552.44 233.272 550.191 232.76 550.191 232.147C549.066 232.147 548.555 231.635 547.43 231.022C545.794 230.51 544.056 229.897 541.909 229.386C538.536 228.261 535.264 226.624 531.277 226.011C527.392 224.886 522.996 223.761 519.622 223.25C517.373 222.738 515.737 222.738 514.102 222.125C512.977 222.125 511.852 221.613 511.341 221.613H510.217C502.447 220.488 494.677 220.488 486.805 220.488H469.016C468.505 221 467.38 221 466.256 221H465.131C464.62 221.511 463.495 221.511 462.882 221.511C460.633 221.511 458.383 222.022 456.237 222.636C446.217 224.272 436.198 227.033 426.179 230.408C423.93 231.533 421.783 232.045 420.045 233.17H419.534C418.409 233.681 417.898 233.681 416.774 234.294C406.755 239.306 397.86 243.703 388.455 249.839C387.33 251.475 385.081 252.6 383.445 253.725C382.934 254.237 382.32 254.85 381.196 254.85C381.196 255.362 380.071 255.975 380.071 255.975C377.822 258.225 375.062 259.861 372.813 262.111C367.292 267.122 362.282 272.133 357.273 278.269C354.513 280.519 352.263 283.792 350.014 287.167C349.503 287.167 348.89 287.678 348.89 287.678C348.378 288.189 348.378 288.803 347.765 288.803L345.005 293.814C340.506 299.336 336.621 306.086 333.861 312.734C331.612 315.495 329.976 319.381 328.851 322.142C328.34 323.267 328.34 324.392 327.727 324.903V325.415C326.602 327.665 326.091 329.301 324.967 330.937C322.206 338.709 320.57 346.482 318.321 354.254C316.072 361.515 311.063 363.151 303.906 363.151C297.261 360.901 294.501 354.765 295.523 348.118C316.686 259.657 393.362 196.251 485.782 196.251H486.907C500.3 196.251 513.59 197.887 526.37 200.648C586.995 212.92 640.362 255.771 664.796 312.427L664.489 312.222Z" fill="white"/>
<path d="M688.923 232.658C692.297 219.875 701.191 207.603 713.357 202.08C720.616 198.194 728.386 195.944 736.769 195.944C753.434 195.944 768.973 205.967 777.357 219.875C777.697 220.216 777.868 220.591 777.868 221C779.503 223.761 780.628 227.136 781.753 229.897L783.388 234.908C786.762 244.93 789.522 254.339 792.896 264.361C802.915 295.553 812.934 327.256 822.953 358.345C825.203 366.117 827.963 373.378 830.212 380.639C833.586 370.106 837.471 358.958 840.231 347.3C850.25 317.233 860.269 286.655 870.288 255.464C873.049 247.692 874.786 239.306 877.547 231.533C878.671 227.647 880.307 224.272 882.045 221C882.045 220.488 882.556 220.488 882.556 219.875C884.192 217.625 885.93 215.375 887.566 213.227C896.46 202.694 910.364 195.944 924.268 195.944C938.172 195.944 951.565 202.08 960.46 212.102C962.709 214.352 964.345 217.114 965.98 219.875C965.98 220.386 966.492 220.386 966.492 221C968.127 223.761 969.865 227.136 970.888 230.408C972.012 234.908 973.648 238.794 974.773 243.805C982.031 266.611 990.312 290.03 998.184 312.836L1029.37 410.195C1038.77 438.523 1048.28 466.953 1057.69 495.895C1057.69 495.895 1058.2 496.406 1057.69 497.019C1064.94 476.975 1071.08 457.544 1077.11 438.011C1087.64 405.183 1097.66 372.356 1108.29 340.141L1136.1 252.805V252.294C1136.1 251.782 1136.61 251.169 1136.61 250.044C1136.61 248.919 1137.12 247.794 1137.12 246.669V240.022L1134.87 233.885C1134.36 233.374 1134.36 232.761 1133.75 231.636C1133.75 231.124 1133.24 229.999 1132.11 228.874C1132.11 228.363 1128.23 224.988 1127.72 224.988V224.477C1127.21 223.966 1126.59 223.966 1126.08 223.352C1124.96 222.841 1123.83 221.716 1122.71 221.102H1122.2C1121.68 221.102 1121.07 220.591 1120.56 220.591C1119.44 220.079 1117.8 220.079 1116.67 220.079H1108.29C1107.17 220.079 1105.53 220.079 1104.41 220.591C1104.41 220.591 1103.9 221.102 1103.28 221.102C1102.67 221.102 1102.77 221.102 1102.16 221.613H1101.65C1100.52 222.125 1099.4 223.25 1097.76 224.375L1096.64 225.5C1095.51 226.011 1094.39 227.136 1093.26 228.261C1093.26 228.261 1092.14 229.386 1092.14 229.897L1091.63 230.408C1091.63 231.533 1090.5 232.658 1089.99 234.295V234.806C1089.48 234.806 1089.48 235.317 1089.48 236.442C1088.97 236.953 1088.97 237.567 1088.36 238.692C1084.47 250.351 1081.1 262.009 1077.21 273.77C1069.44 297.7 1062.18 321.631 1054.41 345.561C1051.65 353.334 1047.15 353.947 1040.51 353.947C1033.86 352.311 1029.98 345.561 1032.13 339.528C1037.14 322.858 1042.15 306.7 1047.67 290.542C1052.16 275.508 1057.07 260.475 1061.57 244.93C1064.33 236.544 1066.58 228.261 1070.46 221C1070.46 220.659 1070.63 220.284 1070.98 219.875C1072.61 217.114 1074.35 214.352 1076.5 211.489C1087.03 200.342 1099.91 195.944 1114.83 195.944C1129.86 197.069 1142.64 203.717 1151.54 215.989C1161.56 228.772 1162.68 245.442 1158.18 261.089C1152.05 278.883 1146.53 297.291 1140.39 315.597C1130.37 346.789 1120.36 378.492 1110.34 410.195C1100.93 439.648 1091.42 469.714 1082.53 499.167C1078.03 512.564 1074.15 525.348 1069.14 538.642C1068.01 544.165 1063 547.028 1057.99 547.028C1053.49 547.028 1048.59 544.267 1046.85 538.642C1043.47 529.234 1040.71 519.212 1037.44 509.701L1010.76 427.887C999.616 395.57 989.597 362.845 978.453 330.528C970.683 305.473 962.3 280.417 954.019 255.464C951.77 249.328 950.134 243.805 948.498 237.669C948.498 237.158 947.987 236.544 947.987 236.544C947.987 236.203 947.817 235.829 947.476 235.42C947.476 234.908 946.351 232.658 946.351 232.045C945.84 230.92 944.715 229.795 944.102 228.67C944.102 228.67 942.466 227.034 941.853 227.034L940.217 224.784C939.706 224.784 937.457 223.147 936.843 222.534C936.332 222.022 935.207 221.409 934.083 221.409C934.083 220.897 933.572 220.897 932.958 220.897C932.447 220.386 931.834 220.386 930.709 219.773H917.419C916.907 220.284 915.783 220.284 915.169 220.897H914.658L911.284 222.534C910.773 223.045 906.275 226.42 906.275 226.42C906.275 226.931 905.15 228.056 904.639 228.056C904.639 228.397 904.469 228.772 904.128 229.181C903.617 230.306 903.003 230.817 902.492 231.942L900.856 235.317V236.442C900.345 237.567 899.732 239.203 899.221 240.942C896.46 250.964 893.087 260.986 889.713 269.884C880.307 302.2 869.675 333.289 859.656 364.481C854.135 382.787 848.001 401.195 842.378 418.99C840.742 424.001 836.857 427.887 830.723 427.887H829.088C822.953 427.887 819.068 424.001 817.433 418.99C816.922 416.228 815.797 413.467 814.672 410.604C806.289 383.298 797.395 356.606 789.114 329.403L762.941 246.464C761.817 243.703 761.306 240.942 760.181 237.567C759.67 237.567 759.67 237.056 759.67 236.442L758.545 234.192V233.681C758.034 232.045 756.909 230.92 756.296 229.795C755.955 229.454 755.785 229.079 755.785 228.67L751.9 224.784C751.389 224.784 751.389 224.272 750.775 224.272C750.435 223.931 750.06 223.761 749.651 223.761C748.526 222.636 747.402 222.125 746.277 221.511C746.277 221 745.766 221 745.152 221L744.641 220.488C743.005 219.977 741.267 219.977 739.121 219.977H731.862C730.226 219.977 729.102 219.977 727.364 221.102H726.239L725.728 221.613C724.603 222.125 722.967 222.738 721.843 223.863C719.594 225.5 718.469 226.625 717.344 228.363C717.004 228.363 716.629 228.533 716.22 228.874C715.709 229.999 714.584 231.124 713.971 232.249C713.459 233.374 712.846 235.624 712.846 235.624C712.846 236.749 712.335 237.26 712.335 238.385C711.824 238.897 711.824 241.76 711.21 241.76V246.771C711.21 246.771 712.335 250.657 712.335 251.169C712.335 251.169 712.335 251.68 712.846 252.294V252.805C712.846 253.93 713.357 255.566 713.971 256.691C716.22 264.463 718.98 271.724 721.229 278.985C730.124 306.802 738.507 334.005 746.788 361.311C757.318 394.139 767.951 426.353 778.481 458.669C785.74 482.6 793.51 506.53 801.28 530.972C802.404 535.472 804.04 540.381 805.778 544.881V546.006C805.778 546.517 805.778 547.131 806.289 547.131V547.642C807.414 548.767 807.925 550.403 809.049 552.142L809.561 552.653C809.561 553.164 810.072 553.164 810.685 553.778C811.196 554.903 812.321 555.414 813.446 556.028L813.957 557.153C816.206 558.278 817.842 559.403 819.477 559.914C819.989 560.425 820.602 560.425 821.113 560.425C822.238 560.937 823.873 561.55 825.611 561.55C826.123 562.062 826.736 562.062 827.861 562.062H832.257C832.768 562.062 833.381 562.062 833.893 561.55H834.404C836.039 561.55 837.164 561.039 838.902 560.425C839.413 560.425 840.027 560.425 840.027 559.914H841.151C842.276 558.789 843.4 558.278 845.036 557.664C845.547 557.153 846.161 556.539 846.672 556.539C847.797 556.028 848.308 554.903 849.432 553.778C849.432 553.267 849.943 552.653 850.557 552.142L851.068 551.63C851.579 551.119 853.828 546.108 854.442 546.108V544.983L856.078 539.972C858.838 530.563 862.212 520.541 864.972 509.905C875.502 478.714 885.521 447.011 895.54 415.308C901.061 397.513 906.684 379.719 912.818 361.311C914.454 355.788 918.952 352.925 923.962 352.925C928.46 352.925 933.367 355.686 935.105 361.311L935.616 361.822C941.751 381.866 948.396 402.422 955.041 422.467C965.06 454.17 974.466 484.747 984.485 515.939C987.245 524.836 990.005 533.734 992.868 542.119C992.868 543.244 993.379 543.756 993.379 544.881V545.392C993.89 545.903 994.504 546.517 994.504 547.642C995.015 547.642 995.015 548.767 995.628 549.278C996.14 550.403 996.753 550.914 997.264 552.039C998.9 553.164 998.9 554.289 1000.02 555.414C1000.54 555.926 1003.4 557.664 1002.27 557.051C1002.79 557.051 1007.28 559.812 1007.28 559.812C1008.92 560.323 1010.04 560.937 1011.68 561.448H1013.93C1015.05 561.959 1015.56 561.959 1017.3 561.959C1023.95 561.959 1028.96 566.97 1028.96 573.106C1028.96 580.367 1023.95 585.379 1016.69 585.379C999.411 585.379 984.485 575.97 975.488 561.448C973.852 558.073 972.114 554.801 970.99 550.914L969.354 546.517C965.98 535.983 963.22 525.961 959.846 515.939C949.316 484.747 939.808 453.658 929.789 421.955C927.54 415.308 925.291 409.172 923.655 403.036C915.272 428.091 907.502 453.658 899.732 478.714C892.473 502.133 884.703 525.45 877.445 548.256C871.924 571.061 851.886 585.481 828.474 585.481C807.311 585.481 788.398 571.061 782.366 551.017C777.868 536.597 772.858 522.689 768.462 508.167C759.056 478.1 749.549 448.033 740.143 418.58C730.124 387.389 720.105 355.175 710.086 323.472C703.952 304.041 697.306 283.383 690.661 263.339C687.287 253.316 686.163 243.294 688.412 232.761L688.923 232.658Z" fill="#69E3E3"/>
<path d="M1426.96 510.212C1434.73 521.871 1437.49 536.904 1433.6 549.687C1429.72 563.084 1420.21 574.743 1408.05 580.879C1400.28 583.64 1392.51 585.379 1384.12 585.379H1235.68C1208.99 585.379 1188.44 565.948 1186.19 539.256V433.512C1186.19 427.375 1191.72 421.853 1198.46 421.853H1340.26C1341.39 421.342 1342.51 421.342 1343.64 421.342C1344.15 420.83 1344.76 420.217 1345.27 420.83V420.319C1346.4 419.808 1348.03 419.194 1349.16 418.683C1349.67 418.171 1350.28 417.558 1350.79 417.046C1351.92 415.922 1353.04 415.41 1354.17 414.285C1354.68 413.774 1356.42 412.035 1356.42 412.035C1356.93 411.524 1356.93 410.399 1357.54 409.785C1358.05 408.66 1358.67 408.149 1358.67 407.024C1359.79 405.388 1360.3 402.627 1360.3 400.377V394.854C1360.3 394.343 1359.79 392.093 1359.79 391.48C1359.28 390.355 1359.28 389.23 1358.67 388.718C1358.67 388.207 1358.15 387.082 1358.15 386.468C1357.64 384.832 1356.52 383.707 1355.39 382.071C1355.39 381.56 1354.88 380.946 1354.27 380.435C1353.14 379.923 1352.02 379.31 1350.9 378.185L1350.38 377.673C1348.75 376.549 1347.01 376.037 1345.89 374.912H1345.38C1344.86 374.401 1344.25 374.401 1343.74 374.401C1342.61 373.89 1341.49 373.276 1340.37 373.276C1339.85 373.276 1339.24 373.276 1339.24 372.765H1198.57C1191.92 372.765 1186.3 368.265 1186.3 361.106V244.828C1186.3 218.136 1207.97 196.456 1234.65 196.456H1382.59C1402.63 196.456 1421.54 203.717 1430.43 223.147C1436.57 237.056 1437.08 252.089 1430.95 265.384C1422.66 284.815 1403.14 293.201 1383.1 293.201H1283.01V321.529C1282.5 328.176 1277.49 333.187 1271.36 333.187C1264.71 333.187 1259.09 328.176 1259.09 321.529V280.929C1259.09 274.793 1265.22 269.781 1271.36 269.781H1386.98C1387.5 269.781 1388.11 269.27 1388.62 269.27H1390.87C1392.51 268.759 1393.63 268.759 1395.37 268.145C1395.88 268.145 1396.49 267.634 1397 267.634C1398.13 267.122 1399.76 266.509 1400.38 265.384C1400.89 264.873 1403.14 263.134 1403.14 263.748C1403.65 262.623 1404.77 262.111 1405.39 261.498C1406 260.884 1407.64 258.736 1407.64 259.248C1408.15 258.123 1408.76 257.612 1409.27 256.487C1409.27 255.975 1410.4 253.725 1409.78 253.725C1410.29 253.214 1410.91 252.089 1410.91 250.964C1411.42 249.839 1412.03 248.714 1412.03 247.078V241.556C1411.69 241.215 1411.52 240.84 1411.52 240.431C1411.52 239.919 1411.52 238.794 1411.01 238.181C1411.01 237.669 1410.5 237.056 1410.5 235.931C1409.99 235.419 1409.37 233.681 1409.37 233.17C1408.86 232.045 1408.25 230.408 1407.12 229.283L1405.49 228.159C1404.98 227.034 1403.85 225.909 1402.73 225.397L1402.22 224.886C1401.88 224.545 1401.5 224.375 1401.09 224.375C1400.58 223.25 1398.84 222.738 1397.72 222.125L1397.21 221.613C1396.7 221.613 1396.08 221.102 1395.57 221.102C1393.94 220.591 1392.81 220.591 1391.69 220.591H1228.21C1227.09 221.102 1225.96 221.102 1225.45 221.716C1224.33 222.227 1223.2 222.841 1222.08 223.352C1221.57 223.863 1220.44 224.477 1219.83 224.988C1219.83 225.5 1218.19 226.625 1217.58 227.238C1216.46 227.749 1215.95 228.874 1215.33 229.488C1214.82 231.124 1213.08 233.374 1211.96 234.499C1211.96 235.624 1211.45 236.749 1210.83 237.26C1210.83 238.385 1210.32 239.51 1210.32 240.635C1210.32 241.147 1209.81 244.01 1209.81 244.521V349.652H1334.33C1342.72 349.652 1350.49 351.288 1358.26 354.663C1369.91 361.311 1379.93 373.071 1383.3 386.98C1386.06 399.763 1383.82 414.797 1375.53 425.944C1363.88 442.102 1349.98 446.5 1330.45 446.5H1209.81V540.483C1210.32 540.995 1210.32 541.608 1210.32 542.12C1210.32 543.244 1211.45 546.619 1211.96 547.642C1213.08 549.278 1214.21 551.017 1215.33 552.653C1215.84 553.778 1216.46 554.289 1216.97 554.903C1217.48 556.028 1218.6 556.539 1219.73 557.153C1220.24 557.664 1220.85 558.278 1221.36 558.278C1222.49 559.403 1224.12 559.914 1224.74 560.528H1225.25C1225.76 561.039 1226.37 561.039 1227.5 561.653C1228.62 561.653 1230.26 562.164 1231.38 562.164C1231.89 562.675 1232.51 562.675 1233.02 562.675H1388.72C1389.23 562.675 1390.36 562.675 1390.97 562.164C1392.1 562.164 1393.22 561.653 1394.86 561.653C1395.37 561.141 1395.98 561.141 1397.11 560.528C1398.23 560.016 1399.87 559.403 1400.48 558.278C1400.99 558.278 1403.24 556.641 1403.24 556.641C1403.75 556.13 1404.36 555.517 1404.88 555.005C1405.39 554.494 1406.51 553.88 1407.12 553.369V552.858C1408.25 551.733 1408.76 550.608 1409.37 550.096C1409.37 548.971 1410.5 546.722 1409.89 547.335C1411.01 546.21 1411.52 543.449 1411.52 541.813C1411.52 541.813 1412.03 541.301 1412.03 540.688V534.552H1411.52V532.302C1411.01 531.791 1409.27 526.779 1409.27 526.166C1408.76 525.041 1407.64 523.916 1407.02 523.405V522.893L1402.52 518.394C1401.4 517.882 1401.4 517.269 1400.89 517.269C1400.38 516.757 1399.25 515.632 1397.51 515.019H1395.88L1391.38 513.382H1271.25C1264.61 513.382 1258.99 507.86 1258.99 501.11V473.805C1258.99 467.669 1265.12 462.658 1271.25 462.658C1277.39 462.658 1282.91 467.669 1282.91 474.316V489.349H1390.77C1405.8 490.986 1418.58 498.247 1426.96 511.03V510.212Z" fill="white"/>
<path d="M1467.55 241.044C1470.31 215.477 1489.83 195.944 1515.9 195.944C1541.97 195.944 1564.26 218.239 1564.26 244.93V461.84C1564.26 467.976 1558.74 472.987 1551.99 472.987C1545.86 472.987 1540.85 467.976 1540.85 461.328V241.044C1540.34 240.533 1540.34 239.919 1540.34 238.794C1539.83 237.669 1539.21 236.033 1538.7 234.908V234.397C1538.7 233.885 1538.19 233.272 1537.58 232.761C1537.07 231.636 1536.45 229.999 1535.33 228.874C1534.99 228.533 1534.61 228.363 1534.2 228.363C1533.69 227.238 1533.08 226.113 1531.95 224.988C1531.44 224.988 1530.83 224.477 1530.32 223.863H1529.81C1528.68 222.738 1527.56 222.227 1525.92 221.613L1525.41 221.102H1524.9V220.591C1523.26 220.591 1522.14 220.079 1520.4 220.079H1517.64C1517.13 220.079 1516.01 219.568 1514.27 220.079H1512.63C1511 220.079 1509.87 220.079 1508.75 220.591C1508.24 220.591 1507.11 221.102 1506.5 221.102C1504.86 221.613 1503.74 222.227 1502.61 223.352C1502.1 223.863 1500.36 225.602 1500.36 224.988C1499.85 226.113 1498.73 226.625 1498.11 227.238L1496.48 228.874H1495.97L1494.33 232.249C1493.82 232.76 1492.7 236.135 1492.7 235.01C1492.7 235.522 1491.57 240.022 1491.57 240.022V488.736H1646.76C1652.29 488.736 1657.91 489.861 1663.43 490.986C1676.72 495.486 1687.35 504.894 1693.49 517.678C1699.01 531.075 1699.01 546.619 1691.85 559.914C1685.72 572.186 1673.55 581.595 1660.16 583.845C1654.64 585.481 1649.01 585.481 1643.49 585.481H1479.41C1473.27 585.481 1467.75 579.958 1467.75 573.209C1467.75 567.073 1473.27 562.062 1480.02 562.062H1652.39C1652.39 561.55 1654.64 561.55 1655.15 560.937C1656.27 560.937 1657.4 560.425 1658.52 560.425C1658.52 559.914 1659.03 559.914 1659.65 559.914C1660.16 559.403 1660.77 558.789 1661.28 558.789C1662.41 558.278 1663.53 557.153 1664.66 556.539C1665.17 556.028 1665.78 556.028 1665.78 555.414C1666.9 554.289 1668.03 553.778 1669.15 552.653V552.142C1669.15 551.63 1669.67 551.017 1669.67 550.505C1670.18 549.994 1672.43 546.619 1672.43 545.494C1672.94 543.858 1673.55 542.733 1674.06 540.483V533.836C1673.55 533.836 1673.55 533.324 1673.55 532.711C1673.55 531.586 1673.04 530.461 1672.43 529.336C1672.43 528.825 1671.91 527.7 1671.91 527.086C1671.4 525.961 1670.28 524.836 1669.67 523.2C1669.32 522.859 1669.15 522.484 1669.15 522.075C1668.03 520.95 1667.52 519.825 1666.39 518.7C1665.27 518.189 1664.76 517.575 1664.14 517.064C1663.02 516.553 1661.9 515.428 1660.77 514.814C1660.26 514.814 1659.65 514.814 1659.14 514.303C1657.5 513.791 1656.37 513.791 1655.25 513.178C1654.13 513.178 1653.61 512.666 1652.49 512.666H1479.51C1473.37 512.666 1467.85 506.53 1467.85 500.394V256.18C1467.85 251.169 1467.34 246.158 1467.85 241.147L1467.55 241.044Z" fill="#69E3E3"/>
<path d="M1720.07 304.961H1741.23C1742.35 304.45 1743.99 304.45 1745.73 304.45H1746.24C1747.36 304.45 1748.49 303.939 1749 303.939C1752.37 303.427 1755.64 302.814 1759.02 301.689C1762.39 301.177 1765.66 300.053 1769.04 298.314C1770.16 298.314 1770.67 297.803 1771.29 297.803L1771.8 297.291C1772.92 296.78 1774.56 296.166 1775.68 295.655C1782.33 292.894 1788.46 289.008 1795.11 284.508V283.997H1795.62L1796.74 282.36C1801.75 278.985 1806.76 276.224 1812.28 273.463C1820.05 270.088 1828.95 268.963 1837.33 268.963C1857.37 268.963 1871.27 275.611 1885.18 289.519C1886.3 291.769 1887.94 293.405 1889.06 295.041C1889.06 295.041 1889.06 296.166 1889.57 296.678H1890.08C1891.21 298.314 1892.33 299.439 1893.97 300.564C1893.97 301.075 1895.6 302.2 1896.22 302.2C1897.34 303.325 1898.47 303.836 1899.59 303.836C1900.72 304.348 1901.23 304.348 1901.84 304.961C1902.97 304.961 1904.09 305.473 1905.21 305.473H1905.73C1906.85 305.984 1907.98 305.984 1909.1 305.984H1914.11V305.473C1915.23 305.473 1916.87 304.961 1918.61 304.348C1919.12 304.859 1919.73 304.348 1920.24 303.836C1921.88 303.325 1923.62 302.711 1924.74 301.586C1925.25 301.075 1929.75 296.575 1930.26 296.575C1930.26 296.064 1930.77 295.45 1930.77 294.939C1931.28 294.428 1931.9 293.303 1932.41 292.178C1932.92 291.667 1932.92 291.053 1932.92 290.542C1933.43 289.417 1934.56 285.531 1934.56 284.406V278.883C1934.56 278.372 1934.05 277.247 1934.05 276.633C1933.53 275.508 1933.53 273.872 1932.92 272.747C1932.41 272.236 1932.41 271.622 1931.8 271.111C1930.16 268.35 1928.42 264.975 1926.28 262.214L1925.15 261.089C1924.64 260.577 1924.03 259.964 1924.03 259.452C1922.9 258.327 1922.39 256.691 1920.65 254.953C1917.89 252.703 1915.13 249.43 1912.27 246.567C1910.63 245.442 1909.51 244.93 1907.77 243.805L1905.52 241.556C1900 237.158 1894.38 233.783 1888.24 230.408C1886.61 229.897 1884.36 228.772 1882.72 228.159H1882.21C1881.09 228.159 1880.58 227.647 1880.58 227.647C1877.2 226.011 1873.32 224.886 1870.56 223.761C1866.67 222.636 1863.91 222.125 1860.03 221C1859.52 221 1853.89 220.488 1853.89 219.875H1851.64C1846.63 219.364 1841.11 219.364 1836.1 219.364H1829.46C1826.7 219.364 1824.45 219.875 1822.2 219.875C1821.69 219.875 1819.95 220.386 1820.56 220.386H1818.93C1811.67 221.511 1803.39 223.147 1796.64 226.522L1791.63 228.159H1790.51C1790 228.67 1788.87 228.67 1788.26 229.283C1782.12 232.658 1775.48 235.931 1769.96 240.431C1769.45 240.431 1766.58 242.681 1766.58 243.192C1764.95 244.317 1763.82 245.442 1762.7 246.567C1759.94 248.817 1757.69 251.578 1754.93 253.828C1754.42 255.464 1752.68 257.202 1751.56 258.839C1751.04 258.839 1750.43 259.35 1750.43 259.964L1749.31 261.089C1747.67 263.85 1745.42 266.611 1744.3 269.986C1742.05 272.747 1740.41 276.122 1738.78 279.394C1738.26 280.519 1738.26 281.644 1737.65 282.156C1737.65 283.792 1737.14 285.531 1736.53 286.553C1734.89 292.076 1730.39 295.45 1724.87 295.45C1723.75 295.45 1722.62 295.45 1721.5 294.939C1715.98 293.814 1712.09 286.553 1713.12 280.519C1733.15 226.011 1779.87 195.944 1837.74 195.944C1871.07 195.944 1903.37 208.216 1928.42 229.897C1934.56 236.033 1940.08 242.169 1945.7 248.817C1949.58 254.339 1954.08 261.089 1956.23 268.247C1964 293.303 1947.95 321.631 1922.29 328.381C1918.4 328.892 1914.52 329.506 1910.02 329.506C1894.99 329.506 1882.21 324.494 1872.81 312.836C1871.17 311.2 1870.05 309.461 1868.92 307.314C1868.41 306.802 1866.67 304.552 1866.67 304.552C1865.55 302.916 1863.91 301.177 1862.28 300.053C1862.28 300.053 1860.03 298.416 1859.52 298.416C1857.88 297.291 1856.76 296.78 1855.02 295.655H1854.51C1854 295.655 1853.38 295.655 1852.26 295.144C1852.26 295.144 1844.49 292.894 1843.87 292.894H1831.09C1830.58 292.894 1829.97 292.894 1829.97 293.405C1826.6 293.405 1823.84 294.53 1821.59 295.655H1818.83L1818.32 296.166C1817.19 296.678 1815.55 297.291 1814.43 298.416C1813.92 298.416 1813.31 298.928 1813.31 299.541C1811.06 301.177 1809.42 302.916 1807.17 303.939C1801.65 308.438 1795.52 312.325 1788.87 315.086C1774.97 322.347 1759.43 326.744 1743.27 328.483C1739.39 328.483 1736.02 328.994 1732.13 328.994V331.755C1732.13 334.005 1733.26 337.278 1733.77 339.016C1734.28 342.391 1735.4 345.664 1736.53 349.039C1736.53 350.675 1737.04 351.8 1737.65 353.538C1738.16 353.538 1738.16 354.05 1738.16 354.663C1738.67 355.788 1739.29 356.3 1739.29 357.425C1740.92 360.186 1742.66 362.947 1744.81 365.811L1747.57 370.822C1747.57 371.333 1748.08 371.333 1748.69 371.946L1749.2 372.458C1751.45 375.219 1753.6 377.98 1755.85 379.719L1764.23 388.105H1764.74C1765.25 388.616 1766.38 389.23 1766.99 389.23L1771.49 392.605C1778.14 396.491 1784.78 399.866 1791.53 403.138C1792.04 403.138 1792.65 403.138 1793.17 403.649C1793.68 403.649 1794.8 404.161 1795.41 404.774C1796.54 404.774 1798.79 405.286 1800.42 405.899C1803.8 407.024 1806.56 408.66 1810.44 409.785C1823.84 413.672 1838.25 417.558 1851.64 422.058C1862.79 426.557 1873.93 430.955 1882.83 438.727C1888.35 443.738 1891.72 449.874 1892.84 456.522C1894.48 464.294 1895.09 472.68 1891.72 480.452C1883.34 502.133 1861.15 512.155 1838.86 512.155C1822.71 512.155 1803.8 506.633 1792.65 494.361C1790.4 490.986 1787.64 488.225 1786.01 484.952C1785.5 484.952 1785.5 484.441 1784.88 484.441C1784.88 483.929 1784.37 483.929 1784.37 483.316C1783.25 482.191 1782.12 481.066 1780.49 480.554V480.043H1779.98C1779.47 479.532 1778.85 478.918 1778.34 478.918C1777.83 478.407 1776.71 477.793 1776.09 477.282C1775.75 477.282 1775.38 477.111 1774.97 476.771C1773.84 476.771 1772.72 476.259 1771.59 476.259C1771.08 475.748 1770.47 475.748 1769.96 475.748H1769.45C1768.32 475.237 1766.69 475.237 1765.56 475.237C1763.93 475.237 1762.8 475.237 1761.68 475.748H1760.04C1758.92 476.259 1757.79 476.259 1756.16 476.873C1755.64 476.873 1755.03 477.384 1754.52 477.384C1754.01 477.896 1752.88 479.02 1751.76 479.634C1751.25 480.145 1750.64 480.145 1750.12 480.759C1749 480.759 1748.49 481.884 1747.36 482.395C1746.85 482.907 1745.73 485.77 1745.73 485.157C1745.22 485.668 1744.6 486.282 1744.6 487.407C1744.09 488.531 1743.48 489.656 1742.97 490.168C1742.63 490.509 1742.46 490.883 1742.46 491.293C1741.95 492.929 1741.33 494.054 1741.33 495.792C1741.33 496.304 1740.82 496.304 1740.82 496.917V500.804C1740.82 501.315 1741.95 506.326 1741.95 506.326C1741.95 507.451 1742.46 508.576 1743.07 509.087C1744.19 511.337 1745.32 513.587 1746.44 515.223C1747.57 517.473 1749.2 519.109 1750.33 520.746V521.257H1750.84L1752.48 522.893C1754.72 526.268 1757.49 529.029 1760.25 531.279C1763.01 534.04 1765.77 536.29 1768.63 539.051C1769.14 539.563 1769.75 539.563 1770.26 539.563C1770.26 540.074 1770.78 540.074 1771.39 540.688C1772.51 542.938 1789.69 551.835 1792.55 552.96L1794.8 554.085C1795.93 554.596 1796.44 554.596 1797.05 555.21L1802.06 556.335C1807.07 559.096 1815.96 560.221 1821.48 561.346H1825.37C1828.13 562.471 1836.51 562.471 1839.27 562.471C1843.77 562.471 1847.66 561.959 1852.05 561.346H1854.3C1854.81 561.346 1855.43 560.834 1855.43 560.834C1857.06 560.834 1858.8 560.323 1860.44 560.323C1863.81 559.812 1867.08 558.687 1870.46 558.073C1873.22 556.948 1877.1 556.437 1880.47 555.312C1881.6 554.801 1883.23 554.187 1884.36 553.062H1884.87C1885.38 553.062 1885.99 552.551 1887.12 552.551C1892.64 549.176 1898.26 546.415 1904.4 542.529C1905.52 541.404 1907.16 540.279 1908.28 539.767C1908.79 539.256 1909.92 538.642 1910.53 538.131L1917.18 531.484C1919.94 529.234 1922.19 526.473 1924.44 523.098C1924.95 523.098 1925.56 522.586 1925.56 521.973C1929.44 516.962 1931.69 512.564 1934.45 507.553C1935.58 506.428 1936.09 505.303 1936.7 503.667C1937.21 503.156 1937.21 502.542 1937.83 502.031C1937.83 501.519 1937.83 500.906 1938.34 500.906C1939.97 494.258 1942.22 488.122 1943.35 480.861V480.35C1943.35 479.225 1943.86 478.1 1943.86 477.589V472.578C1944.37 469.203 1944.37 465.93 1943.86 462.555C1943.86 460.306 1943.86 458.669 1943.35 456.419V454.17C1942.84 450.795 1942.22 447.522 1941.1 444.761C1940.59 441.386 1939.97 438.113 1938.85 435.352C1938.34 434.227 1938.34 433.102 1937.73 431.977C1937.21 431.466 1936.6 429.728 1936.09 429.216C1933.33 423.694 1930.57 418.069 1926.58 413.672C1926.58 413.16 1926.07 413.16 1926.07 412.547L1924.44 410.91C1923.31 409.785 1922.8 408.66 1921.67 407.536C1919.43 405.286 1917.18 403.138 1914.42 400.888C1913.29 399.763 1911.66 398.638 1910.53 397.002H1910.02C1909.51 397.002 1908.38 396.491 1907.77 395.877C1905.01 393.627 1901.64 391.377 1898.37 389.741C1895.6 388.105 1892.23 385.855 1888.96 384.219C1887.32 383.707 1885.59 382.582 1883.44 381.969C1882.93 381.457 1882.31 381.457 1881.19 380.844C1881.19 380.332 1880.68 380.332 1880.07 380.332C1872.81 377.571 1866.16 375.321 1859.52 372.56C1852.87 370.924 1845.61 369.185 1838.97 366.424C1824.55 362.027 1810.55 354.766 1799.5 344.743C1795.11 340.244 1795.62 332.471 1799.5 328.074C1801.75 325.824 1805.02 324.699 1807.89 324.699C1810.75 324.699 1814.02 325.824 1816.27 328.074C1817.39 329.199 1818.52 330.324 1820.16 330.835C1820.67 331.346 1821.28 331.346 1821.79 331.96C1824.04 333.596 1826.8 335.846 1829.56 336.971C1831.81 338.607 1834.57 339.732 1837.94 340.857C1838.46 341.369 1839.07 341.369 1839.07 341.982H1839.58C1840.7 342.494 1842.34 343.107 1843.46 343.618C1857.37 348.118 1871.78 352.004 1885.18 357.016C1900.72 363.152 1914.62 371.537 1928.01 380.946C1949.18 398.229 1963.08 423.183 1966.35 450.488C1968.6 466.033 1967.99 481.679 1964.72 496.713C1949.18 552.346 1894.68 586.299 1837.94 586.299C1792.86 586.299 1758.41 566.868 1730.09 532.915C1726.2 527.393 1721.7 521.257 1720.07 514.507C1712.3 488.94 1727.84 459.999 1753.4 453.863C1757.28 452.738 1761.78 452.226 1766.18 452.226C1776.19 452.226 1786.21 454.988 1793.98 461.124C1797.36 463.374 1800.12 466.135 1802.88 468.896C1804.51 471.146 1805.64 472.782 1806.76 474.418C1807.27 474.93 1809.01 477.18 1809.01 477.18L1814.02 481.679C1814.02 481.679 1815.66 483.316 1816.27 483.316C1817.91 484.441 1819.03 484.952 1820.77 486.077C1821.11 486.077 1821.48 486.247 1821.89 486.588C1822.4 486.588 1823.02 486.588 1823.53 487.1C1825.16 487.611 1826.9 487.611 1828.54 488.225C1829.66 488.225 1831.3 488.736 1832.42 489.349H1846.33C1848.58 488.838 1851.85 487.713 1854.71 487.1C1855.22 486.588 1856.35 486.588 1856.35 485.975H1856.86C1858.49 484.85 1859.62 484.338 1861.36 483.725C1861.87 483.214 1862.99 482.6 1864.12 482.089C1864.12 481.577 1865.24 480.452 1865.75 479.839C1866.88 479.327 1867.39 478.202 1868 477.589H1868.51V477.077L1870.15 473.703C1870.15 473.703 1870.66 473.191 1870.66 472.578C1870.66 472.578 1871.17 471.453 1871.17 470.941V463.68C1871.17 462.555 1870.66 461.43 1870.66 460.919C1870.66 460.408 1870.15 460.408 1870.15 459.794V459.283C1869.64 459.283 1869.64 458.772 1869.02 458.158C1868.51 457.033 1867.39 456.522 1866.26 455.908V455.397H1865.75C1864.12 453.76 1862.38 453.147 1860.74 452.022C1857.98 450.897 1856.24 449.261 1853.48 448.136C1852.97 448.136 1852.36 448.136 1852.36 447.624H1851.23C1850.11 447.113 1848.47 446.5 1847.35 445.988C1839.58 443.227 1832.32 440.977 1825.06 439.341C1796.13 430.443 1766.07 421.546 1743.27 400.377C1719.96 379.207 1708.82 348.629 1708.82 318.052C1708.82 311.404 1713.83 305.779 1720.48 305.779L1720.07 304.961Z" fill="#69E3E3"/>
<path d="M2208.16 0H2172.07V36.1004H2208.16V0Z" fill="#F1C421"/>
<path d="M2256.01 0H2219.92V36.1004H2256.01V0Z" fill="#F1C421"/>
<path d="M2303.86 0H2267.77V36.1004H2303.86V0Z" fill="#F1C421"/>
<path d="M2351.7 0H2315.61V36.1004H2351.7V0Z" fill="#F1C421"/>
<path d="M2160.62 50.3154H2124.54V86.4158H2160.62V50.3154Z" fill="#F1C421"/>
<path d="M2208.16 50.3154H2172.07V86.4158H2208.16V50.3154Z" fill="#F1C421"/>
<path d="M2255.81 50.3154H2219.72V86.4158H2255.81V50.3154Z" fill="#F1C421"/>
<path d="M2303.45 50.3154H2267.36V86.4158H2303.45V50.3154Z" fill="#F1C421"/>
<path d="M2351.09 50.3154H2315V86.4158H2351.09V50.3154Z" fill="#F1C421"/>
<path d="M2398.63 50.3154H2362.54V86.4158H2398.63V50.3154Z" fill="#F1C421"/>
<path d="M2446.27 50.3154H2410.18V86.4158H2446.27V50.3154Z" fill="#F1C421"/>
<path d="M2493.91 50.3154H2457.82V86.4158H2493.91V50.3154Z" fill="#F1C421"/>
<path d="M2541.55 50.3154H2505.46V86.4158H2541.55V50.3154Z" fill="#F1C421"/>
<path d="M2589.09 50.3154H2553V86.4158H2589.09V50.3154Z" fill="#F1C421"/>
<path d="M2160.62 100.529H2124.54V136.629H2160.62V100.529Z" fill="#F1C421"/>
<path d="M2208.16 100.529H2172.07V136.629H2208.16V100.529Z" fill="#F1C421"/>
<path d="M2255.81 100.529H2219.72V136.629H2255.81V100.529Z" fill="#F1C421"/>
<path d="M2303.45 100.529H2267.36V136.629H2303.45V100.529Z" fill="#F1C421"/>
<path d="M2351.09 100.529H2315V136.629H2351.09V100.529Z" fill="#F1C421"/>
<path d="M2398.63 100.529H2362.54V136.629H2398.63V100.529Z" fill="#F1C421"/>
<path d="M2493.91 100.529H2410.18V185.922H2493.91V100.529Z" fill="#1EA3C0"/>
<path d="M2541.55 100.529H2505.46V136.629H2541.55V100.529Z" fill="#F1C421"/>
<path d="M2589.09 100.529H2553V136.629H2589.09V100.529Z" fill="#F1C421"/>
<path d="M2160.62 149.822H2124.54V185.922H2160.62V149.822Z" fill="#F1C421"/>
<path d="M2208.16 149.822H2172.07V185.922H2208.16V149.822Z" fill="#F1C421"/>
<path d="M2255.81 149.822H2219.72V185.922H2255.81V149.822Z" fill="#F1C421"/>
<path d="M2303.45 149.822H2267.36V185.922H2303.45V149.822Z" fill="#F1C421"/>
<path d="M2255.81 299.541H2219.72V335.642H2255.81V299.541Z" fill="#F1C421"/>
<path d="M2303.45 299.541H2267.36V335.642H2303.45V299.541Z" fill="#F1C421"/>
<path d="M2351.09 149.822H2315V185.922H2351.09V149.822Z" fill="#F1C421"/>
<path d="M2398.63 149.822H2362.54V185.922H2398.63V149.822Z" fill="#F1C421"/>
<path d="M2398.63 200.035H2362.54V236.136H2398.63V200.035Z" fill="#F1C421"/>
<path d="M2398.63 249.328H2362.54V285.428H2398.63V249.328Z" fill="#F1C421"/>
<path d="M2446.27 149.822H2410.18V185.922H2446.27V149.822Z" fill="#1EA3C0"/>
<path d="M2541.55 149.822H2505.46V185.922H2541.55V149.822Z" fill="#F1C421"/>
<path d="M2589.09 149.822H2553V185.922H2589.09V149.822Z" fill="#F1C421"/>
<path d="M2636.53 149.822H2600.44V185.922H2636.53V149.822Z" fill="#F1C421"/>
<path d="M2160.62 200.035H2124.54V236.136H2160.62V200.035Z" fill="#F1C421"/>
<path d="M2350.99 200.035H2172.07V285.429H2350.99V200.035Z" fill="#1EA3C0"/>
<path d="M2446.27 200.035H2410.18V236.136H2446.27V200.035Z" fill="#F1C421"/>
<path d="M2493.91 200.035H2457.82V236.136H2493.91V200.035Z" fill="#F1C421"/>
<path d="M2541.55 200.035H2505.46V236.136H2541.55V200.035Z" fill="#F1C421"/>
<path d="M2589.09 200.035H2553V236.136H2589.09V200.035Z" fill="#F1C421"/>
<path d="M2589.19 249.328H2505.46V432.591H2589.19V249.328Z" fill="#1EA3C0"/>
<path d="M2636.53 200.035H2600.44V236.136H2636.53V200.035Z" fill="#F1C421"/>
<path d="M2684.17 200.035H2648.08V236.136H2684.17V200.035Z" fill="#F1C421"/>
<path d="M2636.53 250.248H2600.44V286.349H2636.53V250.248Z" fill="#F1C421"/>
<path d="M2684.17 250.248H2648.08V286.349H2684.17V250.248Z" fill="#F1C421"/>
<path d="M2636.53 299.541H2600.44V335.642H2636.53V299.541Z" fill="#F1C421"/>
<path d="M2684.17 299.541H2648.08V335.642H2684.17V299.541Z" fill="#F1C421"/>
<path d="M2731.81 299.541H2695.72V335.642H2731.81V299.541Z" fill="#F1C421"/>
<path d="M2779.45 299.541H2743.36V335.642H2779.45V299.541Z" fill="#F1C421"/>
<path d="M2160.62 249.328H2124.54V285.428H2160.62V249.328Z" fill="#F1C421"/>
<path d="M2112.78 149.822H2076.69V185.922H2112.78V149.822Z" fill="#F1C421"/>
<path d="M2112.78 200.035H2076.69V236.136H2112.78V200.035Z" fill="#F1C421"/>
<path d="M2112.78 249.328H2076.69V285.428H2112.78V249.328Z" fill="#F1C421"/>
<path d="M2208.16 249.328H2172.07V285.428H2208.16V249.328Z" fill="#1EA3C0"/>
<path d="M2446.27 249.328H2410.18V285.428H2446.27V249.328Z" fill="#F1C421"/>
<path d="M2493.91 249.328H2457.82V285.428H2493.91V249.328Z" fill="#F1C421"/>
<path d="M2589.09 249.328H2553V285.428H2589.09V249.328Z" fill="#1EA3C0"/>
<path d="M2160.62 299.541H2124.54V335.642H2160.62V299.541Z" fill="#F1C421"/>
<path d="M2208.16 299.541H2172.07V335.642H2208.16V299.541Z" fill="#F1C421"/>
<path d="M2351.09 299.541H2315V335.642H2351.09V299.541Z" fill="#F1C421"/>
<path d="M2398.63 299.541H2362.54V335.642H2398.63V299.541Z" fill="#F1C421"/>
<path d="M2446.27 299.541H2410.18V335.642H2446.27V299.541Z" fill="#F1C421"/>
<path d="M2493.91 299.541H2457.82V335.642H2493.91V299.541Z" fill="#F1C421"/>
<path d="M2636.53 348.732H2600.44V384.832H2636.53V348.732Z" fill="#F1C421"/>
<path d="M2684.17 348.732H2648.08V384.832H2684.17V348.732Z" fill="#F1C421"/>
<path d="M2731.81 348.732H2695.72V384.832H2731.81V348.732Z" fill="#F1C421"/>
<path d="M2398.63 348.732H2362.54V384.832H2398.63V348.732Z" fill="#F1C421"/>
<path d="M2446.27 348.732H2410.18V384.832H2446.27V348.732Z" fill="#F1C421"/>
<path d="M2493.91 348.732H2457.82V384.832H2493.91V348.732Z" fill="#F1C421"/>
<path d="M2636.53 396.491H2600.44V432.591H2636.53V396.491Z" fill="#F1C421"/>
<path d="M2684.17 396.491H2648.08V432.591H2684.17V396.491Z" fill="#F1C421"/>
<path d="M2398.63 396.491H2362.54V432.591H2398.63V396.491Z" fill="#F1C421"/>
<path d="M2446.27 396.491H2410.18V432.591H2446.27V396.491Z" fill="#F1C421"/>
<path d="M2493.91 396.491H2457.82V432.591H2493.91V396.491Z" fill="#F1C421"/>
<path d="M2577.33 396.491H2505.46V432.591H2577.33V396.491Z" fill="#1EA3C0"/>
<path d="M2589.09 396.491H2553V432.591H2589.09V396.491Z" fill="#1EA3C0"/>
<path d="M2636.53 446.704H2600.44V482.804H2636.53V446.704Z" fill="#F1C421"/>
<path d="M2446.27 446.704H2410.18V482.804H2446.27V446.704Z" fill="#F1C421"/>
<path d="M2493.91 446.704H2457.82V482.804H2493.91V446.704Z" fill="#F1C421"/>
<path d="M2541.55 446.704H2505.46V482.804H2541.55V446.704Z" fill="#F1C421"/>
<path d="M2589.09 446.704H2553V482.804H2589.09V446.704Z" fill="#F1C421"/>
<path d="M2636.53 496.917H2600.44V533.018H2636.53V496.917Z" fill="#F1C421"/>
<path d="M2446.27 496.917H2410.18V533.018H2446.27V496.917Z" fill="#F1C421"/>
<path d="M2493.91 496.917H2457.82V533.018H2493.91V496.917Z" fill="#F1C421"/>
<path d="M2541.55 496.917H2505.46V533.018H2541.55V496.917Z" fill="#F1C421"/>
<path d="M2589.09 496.917H2553V533.018H2589.09V496.917Z" fill="#F1C421"/>
<path d="M2636.53 546.21H2600.44V582.311H2636.53V546.21Z" fill="#F1C421"/>
<path d="M2589.09 496.917H2410.18V582.311H2589.09V496.917Z" fill="#1EA3C0"/>
<path d="M2446.27 596.424H2410.18V632.524H2446.27V596.424Z" fill="#F1C421"/>
<path d="M2493.91 596.424H2457.82V632.524H2493.91V596.424Z" fill="#F1C421"/>
<path d="M2541.55 596.424H2505.46V632.524H2541.55V596.424Z" fill="#F1C421"/>
<path d="M2589.09 596.424H2553V632.524H2589.09V596.424Z" fill="#F1C421"/>
<path d="M2446.27 645.717H2410.18V681.817H2446.27V645.717Z" fill="#F1C421"/>
<path d="M2398.63 546.21H2362.54V582.311H2398.63V546.21Z" fill="#F1C421"/>
<path d="M2398.63 596.424H2362.54V632.524H2398.63V596.424Z" fill="#F1C421"/>
<path d="M2398.63 645.717H2362.54V681.817H2398.63V645.717Z" fill="#F1C421"/>
<path d="M2493.91 645.717H2457.82V681.817H2493.91V645.717Z" fill="#F1C421"/>
<path d="M2541.55 645.717H2505.46V681.817H2541.55V645.717Z" fill="#F1C421"/>
<path d="M2589.09 645.717H2553V681.817H2589.09V645.717Z" fill="#F1C421"/>
<path d="M2446.27 695.93H2410.18V732.03H2446.27V695.93Z" fill="#F1C421"/>
<path d="M2541.55 695.93H2457.82V781.323H2541.55V695.93Z" fill="#1EA3C0"/>
<path d="M2493.91 745.223H2457.82V781.323H2493.91V745.223Z" fill="#1EA3C0"/>
<path d="M2721.59 645.717H2637.86V732.03H2721.59V645.717Z" fill="#1EA3C0"/>
<path d="M2673.95 745.223H2637.86V781.323H2673.95V745.223Z" fill="#F1C421"/>
<path d="M2563.94 560.835C2565.27 562.88 2565.78 565.539 2565.17 567.789C2564.45 570.141 2562.82 572.186 2560.67 573.311C2559.34 573.822 2557.91 574.129 2556.48 574.129H2530.31C2525.6 574.129 2521.92 570.652 2521.62 565.948V547.335C2521.62 546.21 2522.64 545.29 2523.76 545.29H2548.81C2548.81 545.29 2549.22 545.29 2549.42 545.29C2549.42 545.29 2549.63 545.085 2549.73 545.29C2549.73 545.29 2550.24 544.983 2550.45 544.881C2550.45 544.881 2550.65 544.676 2550.75 544.574C2550.96 544.37 2551.16 544.267 2551.37 544.063L2551.78 543.654C2551.78 543.654 2551.78 543.347 2551.98 543.245C2551.98 543.04 2552.18 542.938 2552.18 542.733C2552.39 542.426 2552.49 541.915 2552.49 541.506V540.483C2552.49 540.483 2552.49 539.972 2552.49 539.87C2552.49 539.665 2552.49 539.461 2552.29 539.358C2552.29 539.358 2552.29 539.052 2552.29 538.949C2552.29 538.642 2551.98 538.438 2551.78 538.131C2551.78 538.131 2551.78 537.927 2551.57 537.824C2551.37 537.824 2551.16 537.62 2550.96 537.415C2550.96 537.415 2550.34 537.006 2550.14 536.802C2550.14 536.802 2549.94 536.802 2549.83 536.802C2549.63 536.802 2549.42 536.597 2549.22 536.597H2549.02H2524.17C2522.95 536.597 2522.03 535.779 2522.03 534.552V513.996C2522.03 509.292 2525.81 505.508 2530.51 505.508H2556.58C2560.16 505.508 2563.43 506.735 2565.07 510.212C2566.19 512.667 2566.29 515.326 2565.07 517.678C2563.64 521.155 2560.16 522.586 2556.58 522.586H2538.89V527.598C2538.89 528.825 2537.87 529.643 2536.85 529.643C2535.62 529.643 2534.7 528.723 2534.7 527.598V520.439C2534.7 519.314 2535.83 518.496 2536.85 518.496H2557.3C2557.3 518.496 2557.5 518.496 2557.6 518.496H2558.01C2558.01 518.496 2558.52 518.496 2558.83 518.291C2558.83 518.291 2559.03 518.291 2559.14 518.291C2559.34 518.291 2559.65 518.087 2559.75 517.882C2559.75 517.882 2560.26 517.473 2560.26 517.575C2560.26 517.371 2560.57 517.269 2560.67 517.166C2560.67 517.166 2561.08 516.655 2561.08 516.757C2561.08 516.553 2561.28 516.45 2561.39 516.246C2561.39 516.246 2561.59 515.735 2561.39 515.735C2561.39 515.735 2561.59 515.428 2561.59 515.223C2561.59 515.019 2561.8 514.814 2561.8 514.507V513.485C2561.8 513.485 2561.8 513.485 2561.8 513.28C2561.8 513.076 2561.8 512.973 2561.8 512.871C2561.8 512.871 2561.8 512.667 2561.8 512.462C2561.8 512.462 2561.59 512.053 2561.59 511.951C2561.59 511.746 2561.39 511.439 2561.18 511.235L2560.87 511.03C2560.87 511.03 2560.57 510.621 2560.36 510.519C2560.36 510.519 2560.36 510.314 2560.16 510.314C2560.16 510.11 2559.75 510.008 2559.55 509.905C2559.55 509.905 2559.34 509.701 2559.24 509.701C2558.93 509.701 2558.73 509.701 2558.52 509.701H2529.69C2529.69 509.701 2529.28 509.701 2529.18 509.905C2528.98 509.905 2528.77 510.11 2528.57 510.212C2528.57 510.212 2528.26 510.417 2528.16 510.519C2528.16 510.519 2527.85 510.826 2527.75 510.928C2527.55 510.928 2527.44 511.235 2527.34 511.337C2527.34 511.644 2526.93 512.053 2526.73 512.257C2526.73 512.462 2526.73 512.667 2526.52 512.769C2526.52 512.973 2526.52 513.178 2526.52 513.382C2526.52 513.382 2526.52 513.996 2526.52 514.098V532.609H2548.5C2549.94 532.609 2551.37 532.916 2552.7 533.529C2554.74 534.756 2556.48 536.802 2557.09 539.256C2557.6 541.506 2557.09 544.165 2555.76 546.108C2553.72 548.971 2551.26 549.79 2547.79 549.79H2526.52V566.357C2526.52 566.357 2526.52 566.562 2526.52 566.664C2526.52 566.868 2526.73 567.482 2526.83 567.686C2527.04 567.993 2527.24 568.3 2527.44 568.607C2527.44 568.811 2527.65 568.914 2527.75 569.016C2527.75 569.22 2528.06 569.323 2528.26 569.425C2528.26 569.425 2528.47 569.63 2528.57 569.63C2528.77 569.834 2529.08 569.936 2529.18 570.039C2529.18 570.039 2529.39 570.039 2529.59 570.243C2529.8 570.243 2530.1 570.243 2530.31 570.243C2530.31 570.243 2530.51 570.243 2530.61 570.243H2558.11C2558.11 570.243 2558.42 570.243 2558.52 570.243C2558.73 570.243 2558.93 570.243 2559.24 570.243C2559.24 570.243 2559.44 570.243 2559.65 570.039C2559.85 569.834 2560.16 569.834 2560.26 569.63L2560.77 569.323C2560.77 569.323 2560.98 569.118 2561.08 569.016C2561.08 569.016 2561.39 568.811 2561.49 568.709C2561.49 568.709 2561.8 568.198 2561.9 568.096C2561.9 567.891 2562.1 567.482 2561.9 567.584C2562.1 567.38 2562.2 566.868 2562.2 566.561C2562.2 566.561 2562.2 566.561 2562.2 566.357V565.232V564.823C2562.2 564.823 2561.8 563.8 2561.8 563.698C2561.8 563.493 2561.49 563.289 2561.39 563.187L2560.57 562.266C2560.36 562.266 2560.36 562.062 2560.26 562.062C2560.26 562.062 2559.95 561.755 2559.65 561.653H2559.34L2558.52 561.346H2537.36C2536.13 561.346 2535.21 560.323 2535.21 559.198V554.392C2535.21 553.267 2536.34 552.449 2537.36 552.449C2538.38 552.449 2539.41 553.369 2539.41 554.494V557.153H2558.42C2561.08 557.46 2563.33 558.687 2564.76 560.937L2563.94 560.835Z" fill="#010C23"/>
<path d="M2659.02 673.022H2662.7C2662.7 673.022 2663.21 673.022 2663.52 673.022C2663.52 673.022 2663.93 673.022 2664.03 673.022C2664.64 673.022 2665.26 672.817 2665.77 672.613C2666.38 672.613 2667 672.306 2667.51 671.999C2667.71 671.999 2667.81 671.999 2667.92 671.999C2667.92 671.999 2668.43 671.692 2668.63 671.59C2669.86 671.079 2670.88 670.363 2672.11 669.647L2672.31 669.34C2673.23 668.727 2674.05 668.215 2675.07 667.806C2676.4 667.193 2678.04 666.988 2679.47 666.988C2682.94 666.988 2685.4 668.215 2687.95 670.567C2688.16 670.977 2688.46 671.283 2688.67 671.59C2688.67 671.59 2688.67 671.795 2688.67 671.897C2688.67 671.897 2689.08 672.408 2689.38 672.613C2689.38 672.613 2689.69 672.92 2689.79 672.92C2690 673.124 2690.2 673.226 2690.41 673.226C2690.61 673.226 2690.71 673.226 2690.82 673.431C2691.02 673.431 2691.22 673.431 2691.43 673.431C2691.43 673.431 2691.84 673.431 2692.04 673.431H2692.96C2692.96 673.431 2693.47 673.226 2693.78 673.124C2693.78 673.124 2693.99 673.124 2694.09 673.124C2694.39 673.124 2694.7 672.92 2694.91 672.715C2694.91 672.715 2695.83 671.795 2695.93 671.795C2695.93 671.795 2695.93 671.59 2695.93 671.488C2695.93 671.488 2696.13 671.181 2696.23 670.977C2696.23 670.977 2696.23 670.772 2696.23 670.67C2696.23 670.465 2696.54 669.749 2696.54 669.545V668.522C2696.54 668.522 2696.54 668.215 2696.54 668.113C2696.54 667.909 2696.54 667.602 2696.34 667.397C2696.34 667.397 2696.34 667.193 2696.13 667.09C2695.83 666.579 2695.52 665.965 2695.11 665.556L2694.91 665.352C2694.91 665.352 2694.7 665.147 2694.7 665.045C2694.5 664.841 2694.39 664.534 2694.09 664.227C2693.58 663.818 2693.07 663.204 2692.66 662.795C2692.35 662.591 2692.15 662.488 2691.84 662.284L2691.43 661.875C2690.41 661.057 2689.49 660.545 2688.36 659.932C2688.06 659.932 2687.65 659.625 2687.34 659.523H2687.03C2686.42 659.216 2685.81 659.011 2685.3 658.807C2684.58 658.602 2684.07 658.5 2683.46 658.295C2683.46 658.295 2682.33 658.295 2682.33 658.091H2681.92C2681 658.091 2680.08 658.091 2679.16 658.091H2677.93C2677.93 658.091 2677.01 658.091 2676.71 658.091C2676.71 658.091 2676.3 658.091 2676.4 658.091H2676.09C2674.87 658.295 2673.33 658.602 2672.21 659.216L2671.29 659.523H2671.08C2671.08 659.523 2670.78 659.523 2670.68 659.727C2669.55 660.341 2668.43 660.954 2667.4 661.67C2667.4 661.67 2666.79 662.079 2666.79 662.182C2666.48 662.386 2666.28 662.591 2666.08 662.795C2665.56 663.204 2665.15 663.716 2664.75 664.022C2664.75 664.329 2664.34 664.636 2664.13 664.943C2664.13 664.943 2663.93 664.943 2663.93 665.147L2663.72 665.352C2663.72 665.352 2663.01 666.374 2662.8 666.886C2662.39 667.397 2662.09 668.011 2661.78 668.522C2661.78 668.727 2661.78 668.931 2661.58 669.033C2661.58 669.34 2661.58 669.647 2661.37 669.852C2661.07 670.874 2660.25 671.386 2659.33 671.386C2659.12 671.386 2658.92 671.386 2658.71 671.386C2657.69 671.181 2657.08 669.954 2657.28 668.829C2660.86 659.216 2669.04 653.898 2679.26 653.898C2685.19 653.898 2690.82 656.046 2695.21 659.932C2696.34 661.057 2697.26 662.079 2698.28 663.307C2698.99 664.329 2699.71 665.454 2700.12 666.784C2701.45 671.181 2698.69 676.192 2694.09 677.419C2693.37 677.419 2692.76 677.624 2691.94 677.624C2689.28 677.624 2687.03 676.704 2685.4 674.658C2685.09 674.351 2684.89 674.045 2684.68 673.635L2684.27 673.124C2684.07 672.817 2683.76 672.51 2683.46 672.306C2683.46 672.306 2683.05 671.999 2682.94 671.999C2682.64 671.795 2682.43 671.692 2682.13 671.488C2682.13 671.488 2681.92 671.488 2681.72 671.488C2681.72 671.488 2680.39 671.079 2680.29 671.079H2678.04H2677.83C2677.22 671.079 2676.71 671.283 2676.4 671.488H2675.79C2675.79 671.488 2675.28 671.795 2675.07 671.999C2675.07 671.999 2674.87 671.999 2674.87 672.204C2674.46 672.511 2674.15 672.817 2673.74 673.022C2672.72 673.84 2671.7 674.454 2670.47 674.965C2668.02 676.192 2665.26 677.01 2662.39 677.317C2661.68 677.317 2661.17 677.317 2660.45 677.317V677.828C2660.45 677.828 2660.66 678.851 2660.76 679.056C2660.76 679.669 2661.07 680.283 2661.27 680.794C2661.27 681.101 2661.27 681.306 2661.47 681.612C2661.47 681.612 2661.47 681.612 2661.47 681.817C2661.47 682.021 2661.68 682.124 2661.68 682.328C2661.99 682.84 2662.29 683.351 2662.7 683.76L2663.21 684.68C2663.21 684.68 2663.21 684.68 2663.42 684.885C2663.83 685.499 2664.23 686.01 2664.64 686.214L2666.08 687.646C2666.08 687.646 2666.38 687.851 2666.48 687.851L2667.3 688.464C2668.53 689.18 2669.65 689.692 2670.88 690.305C2670.88 690.305 2671.08 690.305 2671.19 690.305C2671.19 690.305 2671.49 690.305 2671.6 690.51C2671.8 690.51 2672.21 690.51 2672.52 690.714C2673.13 690.919 2673.64 691.226 2674.25 691.43C2676.61 692.146 2679.16 692.759 2681.51 693.578C2683.46 694.396 2685.4 695.112 2687.03 696.543C2688.06 697.464 2688.57 698.486 2688.77 699.714C2689.08 701.043 2689.18 702.577 2688.57 703.907C2687.14 707.793 2683.15 709.531 2679.26 709.531C2676.4 709.531 2673.13 708.509 2671.08 706.361C2670.68 705.747 2670.16 705.236 2669.86 704.725C2669.86 704.725 2669.86 704.725 2669.65 704.725C2669.65 704.725 2669.65 704.725 2669.65 704.52C2669.45 704.316 2669.24 704.111 2668.94 704.009C2668.94 704.009 2668.73 703.804 2668.63 703.804C2668.63 703.804 2668.32 703.6 2668.22 703.498C2668.22 703.498 2668.15 703.498 2668.02 703.498C2668.02 703.498 2667.61 703.498 2667.4 703.498C2667.4 703.498 2667.2 703.498 2667.1 703.498C2667.1 703.498 2666.59 703.498 2666.38 703.498C2666.08 703.498 2665.87 703.498 2665.67 703.498H2665.36C2665.36 703.498 2664.95 703.498 2664.64 703.702C2664.64 703.702 2664.44 703.702 2664.34 703.702C2664.34 703.702 2664.03 704.009 2663.83 704.111C2663.83 704.111 2663.62 704.111 2663.52 704.316C2663.31 704.316 2663.21 704.52 2663.01 704.623C2663.01 704.623 2662.7 705.236 2662.7 705.134C2662.7 705.134 2662.5 705.338 2662.5 705.543C2662.5 705.747 2662.29 705.952 2662.19 706.054C2662.19 706.054 2662.19 706.122 2662.19 706.259C2662.19 706.259 2661.99 706.77 2661.99 707.077C2661.99 707.077 2661.99 707.077 2661.99 707.282V707.997L2662.19 709.02C2662.19 709.225 2662.19 709.429 2662.39 709.531C2662.6 709.94 2662.8 710.349 2663.01 710.656C2663.21 711.065 2663.52 711.372 2663.72 711.679L2664.03 711.986C2664.44 712.599 2664.95 713.111 2665.36 713.418C2665.87 713.929 2666.38 714.338 2666.79 714.747C2666.79 714.747 2667 714.747 2667.1 714.747C2667.1 714.747 2667.1 714.747 2667.3 714.952C2667.51 715.361 2670.57 716.895 2670.98 717.099L2671.39 717.304C2671.39 717.304 2671.7 717.304 2671.8 717.508L2672.72 717.713C2673.64 718.224 2675.17 718.429 2676.09 718.633H2676.81C2676.81 718.633 2678.75 718.838 2679.26 718.838C2680.08 718.838 2680.69 718.838 2681.51 718.633H2681.92H2682.13C2682.43 718.633 2682.74 718.633 2683.05 718.633C2683.66 718.633 2684.27 718.326 2684.78 718.224C2685.3 718.02 2686.01 717.917 2686.52 717.713C2686.73 717.713 2687.03 717.508 2687.24 717.304C2687.24 717.304 2687.44 717.304 2687.65 717.304C2688.67 716.69 2689.59 716.179 2690.71 715.565C2690.92 715.361 2691.22 715.156 2691.43 715.054C2691.43 715.054 2691.74 714.849 2691.84 714.747L2693.07 713.52C2693.07 713.52 2693.99 712.599 2694.29 712.088C2694.29 712.088 2694.5 712.088 2694.5 711.884C2695.21 710.963 2695.62 710.247 2696.03 709.327C2696.23 709.122 2696.34 708.918 2696.44 708.611C2696.44 708.611 2696.44 708.406 2696.64 708.304V708.1C2696.95 706.872 2697.36 705.85 2697.56 704.52C2697.56 704.52 2697.56 704.009 2697.56 703.907V702.986C2697.56 702.373 2697.56 701.759 2697.56 701.248C2697.56 700.839 2697.56 700.532 2697.56 700.123V699.714C2697.56 699.1 2697.36 698.486 2697.15 698.077C2697.15 697.464 2696.95 696.85 2696.75 696.441C2696.75 696.237 2696.75 696.032 2696.54 695.827C2696.54 695.827 2696.34 695.418 2696.23 695.316C2695.72 694.293 2695.21 693.373 2694.6 692.555C2694.6 692.555 2694.6 692.555 2694.6 692.35L2694.29 692.044C2694.29 692.044 2693.99 691.635 2693.78 691.43C2693.37 691.021 2692.96 690.612 2692.55 690.203C2692.35 689.998 2692.04 689.794 2691.84 689.487C2691.84 689.487 2691.53 689.487 2691.43 689.282C2690.92 688.873 2690.3 688.464 2689.79 688.157C2689.28 687.851 2688.67 687.442 2688.16 687.135C2687.85 687.135 2687.54 686.828 2687.14 686.726C2687.14 686.726 2686.93 686.726 2686.73 686.521C2686.73 686.521 2686.73 686.521 2686.52 686.521C2685.3 686.01 2684.07 685.601 2682.94 685.192C2681.72 684.885 2680.49 684.578 2679.26 684.067C2676.71 683.249 2674.25 682.022 2672.31 680.283C2671.49 679.465 2671.6 678.135 2672.31 677.317C2672.72 676.908 2673.33 676.704 2673.74 676.704C2674.15 676.704 2674.87 676.908 2675.17 677.317C2675.38 677.522 2675.58 677.726 2675.89 677.828C2675.89 677.828 2676.09 677.829 2676.2 678.033C2676.61 678.34 2677.12 678.749 2677.53 678.953C2677.93 679.26 2678.45 679.465 2678.96 679.669C2678.96 679.669 2679.16 679.669 2679.16 679.874C2679.16 679.874 2679.67 680.078 2679.88 680.181C2682.33 680.999 2684.89 681.612 2687.24 682.533C2690 683.658 2692.45 685.089 2694.8 686.726C2698.48 689.794 2700.94 694.191 2701.55 698.998C2701.96 701.759 2701.86 704.52 2701.24 707.179C2698.48 716.997 2688.87 722.928 2678.85 722.928C2670.88 722.928 2664.85 719.451 2659.84 713.52C2659.12 712.497 2658.41 711.474 2658.1 710.247C2656.77 705.747 2659.43 700.634 2664.03 699.509C2664.75 699.305 2665.46 699.202 2666.28 699.202C2668.02 699.202 2669.86 699.714 2671.19 700.736C2671.8 701.146 2672.31 701.657 2672.72 702.066C2673.03 702.475 2673.23 702.782 2673.44 703.089L2673.84 703.6L2674.77 704.418C2674.77 704.418 2675.07 704.725 2675.17 704.725C2675.48 704.929 2675.69 705.032 2675.99 705.236C2675.99 705.236 2676.06 705.236 2676.2 705.236C2676.2 705.236 2676.4 705.236 2676.5 705.236C2676.81 705.236 2677.12 705.236 2677.42 705.441C2677.63 705.441 2677.93 705.441 2678.14 705.645H2680.59C2680.59 705.645 2681.61 705.338 2682.02 705.236C2682.02 705.236 2682.33 705.236 2682.33 705.032C2682.33 705.032 2682.84 704.725 2683.15 704.623C2683.15 704.623 2683.46 704.418 2683.66 704.316C2683.66 704.316 2683.86 704.009 2683.97 703.907C2684.17 703.907 2684.27 703.6 2684.38 703.498L2684.68 702.782C2684.68 702.782 2684.68 702.782 2684.68 702.577C2684.68 702.577 2684.68 702.373 2684.68 702.27V701.043C2684.68 701.043 2684.68 700.634 2684.68 700.532C2684.68 700.532 2684.68 700.532 2684.68 700.327C2684.68 700.327 2684.68 700.123 2684.48 700.02C2684.48 699.816 2684.17 699.714 2683.97 699.611C2683.66 699.305 2683.35 699.202 2683.05 698.998C2682.53 698.793 2682.23 698.487 2681.82 698.282H2681.61H2681.41C2681.41 698.282 2680.9 698.077 2680.69 697.975C2679.37 697.464 2678.04 697.055 2676.81 696.748C2671.7 695.214 2666.38 693.578 2662.39 689.896C2658.31 686.214 2656.26 680.794 2656.26 675.374C2656.26 674.147 2657.18 673.226 2658.31 673.226L2659.02 673.022Z" fill="#010C23"/>
<g style="mix-blend-mode:multiply">
<path d="M2283.61 235.624C2290.28 235.624 2295.68 230.221 2295.68 223.557C2295.68 216.892 2290.28 211.489 2283.61 211.489C2276.95 211.489 2271.55 216.892 2271.55 223.557C2271.55 230.221 2276.95 235.624 2283.61 235.624Z" fill="#1EA3C0"/>
</g>
<g style="mix-blend-mode:multiply">
<path d="M2328.6 235.624C2335.26 235.624 2340.66 230.221 2340.66 223.557C2340.66 216.892 2335.26 211.489 2328.6 211.489C2321.93 211.489 2316.53 216.892 2316.53 223.557C2316.53 230.221 2321.93 235.624 2328.6 235.624Z" fill="#1EA3C0"/>
</g>
<g style="mix-blend-mode:multiply">
<path d="M2283.61 276.531C2290.28 276.531 2295.68 271.128 2295.68 264.464C2295.68 257.799 2290.28 252.396 2283.61 252.396C2276.95 252.396 2271.55 257.799 2271.55 264.464C2271.55 271.128 2276.95 276.531 2283.61 276.531Z" fill="#1EA3C0"/>
</g>
<g style="mix-blend-mode:multiply">
<path d="M2328.6 276.531C2335.26 276.531 2340.66 271.128 2340.66 264.464C2340.66 257.799 2335.26 252.396 2328.6 252.396C2321.93 252.396 2316.53 257.799 2316.53 264.464C2316.53 271.128 2321.93 276.531 2328.6 276.531Z" fill="#1EA3C0"/>
</g>
<g style="mix-blend-mode:multiply">
<path d="M2526.12 381.662C2532.78 381.662 2538.18 376.259 2538.18 369.594C2538.18 362.93 2532.78 357.527 2526.12 357.527C2519.45 357.527 2514.05 362.93 2514.05 369.594C2514.05 376.259 2519.45 381.662 2526.12 381.662Z" fill="#1EA3C0"/>
</g>
<g style="mix-blend-mode:multiply">
<path d="M2571.1 381.662C2577.76 381.662 2583.16 376.259 2583.16 369.594C2583.16 362.93 2577.76 357.527 2571.1 357.527C2564.44 357.527 2559.03 362.93 2559.03 369.594C2559.03 376.259 2564.44 381.662 2571.1 381.662Z" fill="#1EA3C0"/>
</g>
<g style="mix-blend-mode:multiply">
<path d="M2526.12 422.569C2532.78 422.569 2538.18 417.166 2538.18 410.501C2538.18 403.837 2532.78 398.434 2526.12 398.434C2519.45 398.434 2514.05 403.837 2514.05 410.501C2514.05 417.166 2519.45 422.569 2526.12 422.569Z" fill="#1EA3C0"/>
</g>
<g style="mix-blend-mode:multiply">
<path d="M2571.1 422.569C2577.76 422.569 2583.16 417.166 2583.16 410.501C2583.16 403.837 2577.76 398.434 2571.1 398.434C2564.44 398.434 2559.03 403.837 2559.03 410.501C2559.03 417.166 2564.44 422.569 2571.1 422.569Z" fill="#1EA3C0"/>
</g>
<g style="mix-blend-mode:multiply">
<path d="M2435.33 531.177C2441.99 531.177 2447.39 525.774 2447.39 519.109C2447.39 512.445 2441.99 507.042 2435.33 507.042C2428.67 507.042 2423.27 512.445 2423.27 519.109C2423.27 525.774 2428.67 531.177 2435.33 531.177Z" fill="#1EA3C0"/>
</g>
<g style="mix-blend-mode:multiply">
<path d="M2480.31 531.177C2486.98 531.177 2492.38 525.774 2492.38 519.109C2492.38 512.445 2486.98 507.042 2480.31 507.042C2473.65 507.042 2468.25 512.445 2468.25 519.109C2468.25 525.774 2473.65 531.177 2480.31 531.177Z" fill="#1EA3C0"/>
</g>
<g style="mix-blend-mode:multiply">
<path d="M2435.33 572.084C2441.99 572.084 2447.39 566.681 2447.39 560.016C2447.39 553.351 2441.99 547.949 2435.33 547.949C2428.67 547.949 2423.27 553.351 2423.27 560.016C2423.27 566.681 2428.67 572.084 2435.33 572.084Z" fill="#1EA3C0"/>
</g>
<g style="mix-blend-mode:multiply">
<path d="M2480.31 572.084C2486.98 572.084 2492.38 566.681 2492.38 560.016C2492.38 553.351 2486.98 547.949 2480.31 547.949C2473.65 547.949 2468.25 553.351 2468.25 560.016C2468.25 566.681 2473.65 572.084 2480.31 572.084Z" fill="#1EA3C0"/>
</g>
<path d="M2510.88 271.009C2511.39 269.066 2512.72 267.122 2514.66 266.304C2515.79 265.691 2517.02 265.384 2518.24 265.384C2520.8 265.384 2523.25 266.918 2524.48 269.066C2524.48 269.066 2524.48 269.134 2524.48 269.27C2524.48 269.27 2524.89 270.19 2525.09 270.6L2525.4 271.418C2525.91 272.952 2526.32 274.383 2526.83 275.917C2528.36 280.724 2529.9 285.633 2531.43 290.439C2531.74 291.667 2532.25 292.792 2532.56 293.916C2533.07 292.28 2533.68 290.542 2534.09 288.803C2535.62 284.201 2537.16 279.395 2538.69 274.69C2539.1 273.463 2539.41 272.236 2539.81 271.009C2540.02 270.395 2540.22 269.884 2540.53 269.372C2540.53 269.372 2540.53 269.372 2540.53 269.168C2540.84 268.861 2541.04 268.452 2541.35 268.145C2542.68 266.509 2544.82 265.486 2546.97 265.486C2549.12 265.486 2551.16 266.407 2552.59 267.941C2552.9 268.247 2553.21 268.759 2553.41 269.168C2553.41 269.168 2553.41 269.168 2553.41 269.372C2553.72 269.781 2553.92 270.293 2554.13 270.804C2554.33 271.52 2554.54 272.134 2554.74 272.849C2555.87 276.327 2557.19 280.008 2558.32 283.485L2563.12 298.519C2564.56 302.916 2566.09 307.314 2567.52 311.711C2567.52 311.711 2567.52 311.711 2567.52 311.916C2568.64 308.848 2569.57 305.78 2570.49 302.814C2572.12 297.7 2573.65 292.689 2575.29 287.678L2579.58 274.179C2579.58 274.179 2579.58 273.872 2579.58 273.77C2579.58 273.668 2579.58 273.463 2579.58 273.259V272.236L2579.28 271.315C2579.28 271.315 2579.28 271.111 2579.07 271.009C2579.07 271.009 2579.07 270.804 2578.77 270.6C2578.77 270.6 2578.15 269.986 2578.05 269.986C2578.05 269.986 2577.85 269.781 2577.74 269.679C2577.54 269.679 2577.44 269.475 2577.23 269.372C2577.23 269.372 2577.03 269.372 2576.93 269.372C2576.72 269.372 2576.52 269.372 2576.31 269.372H2574.98C2574.98 269.372 2574.57 269.372 2574.37 269.372C2574.37 269.372 2574.37 269.372 2574.17 269.372C2574.17 269.372 2574.1 269.372 2573.96 269.372C2573.96 269.372 2573.65 269.577 2573.35 269.781L2573.14 269.986C2573.14 269.986 2572.84 270.293 2572.63 270.395C2572.63 270.395 2572.43 270.6 2572.43 270.702C2572.43 270.702 2572.22 271.111 2572.12 271.418C2572.12 271.418 2572.12 271.622 2572.12 271.724C2572.12 271.724 2572.12 271.929 2571.92 272.031C2571.3 273.872 2570.79 275.611 2570.18 277.451C2568.95 281.133 2567.83 284.815 2566.7 288.496C2566.29 289.724 2565.58 289.826 2564.56 289.826C2563.53 289.519 2562.92 288.496 2563.33 287.576C2564.15 285.019 2564.86 282.463 2565.68 280.008C2566.4 277.656 2567.11 275.406 2567.83 272.952C2568.24 271.622 2568.64 270.395 2569.16 269.27C2569.16 269.27 2569.16 269.202 2569.16 269.066C2569.16 269.066 2569.67 268.247 2569.97 267.736C2571.61 265.998 2573.55 265.282 2575.9 265.282C2578.26 265.486 2580.2 266.509 2581.53 268.35C2583.06 270.293 2583.26 272.849 2582.55 275.304C2581.63 278.065 2580.71 280.826 2579.79 283.69C2578.26 288.496 2576.72 293.405 2575.19 298.314C2573.76 302.814 2572.22 307.518 2570.89 312.018C2570.18 314.063 2569.57 316.006 2568.85 318.154C2568.64 318.972 2567.93 319.483 2567.11 319.483C2566.4 319.483 2565.68 319.074 2565.37 318.154C2564.86 316.722 2564.45 315.188 2563.94 313.654L2559.85 301.075C2558.11 296.064 2556.58 291.053 2554.84 286.042C2553.62 282.156 2552.39 278.372 2551.06 274.486C2550.75 273.565 2550.45 272.645 2550.24 271.724V271.52C2550.24 271.52 2550.24 271.452 2550.24 271.315C2550.24 271.315 2550.04 270.906 2550.04 270.804C2550.04 270.6 2549.73 270.497 2549.73 270.293L2549.42 270.088L2549.22 269.781C2549.22 269.781 2548.81 269.475 2548.71 269.475C2548.71 269.475 2548.4 269.27 2548.3 269.27C2548.3 269.27 2548.3 269.27 2548.1 269.27C2548.1 269.27 2547.89 269.27 2547.79 269.066H2545.74C2545.74 269.066 2545.44 269.066 2545.44 269.27L2544.93 269.577L2544.11 270.191L2543.9 270.497C2543.9 270.497 2543.9 270.566 2543.9 270.702C2543.9 270.702 2543.7 271.009 2543.6 271.111L2543.29 271.622V271.827C2543.29 271.827 2543.09 272.236 2543.09 272.543C2542.68 274.077 2542.17 275.611 2541.65 277.042C2540.22 282.054 2538.59 286.86 2537.05 291.667C2536.24 294.53 2535.21 297.291 2534.4 300.053C2534.09 300.871 2533.58 301.382 2532.56 301.382H2532.25C2531.33 301.382 2530.72 300.768 2530.41 300.053C2530.41 299.644 2530.2 299.235 2530 298.825C2528.67 294.632 2527.34 290.542 2526.01 286.246L2522.03 273.463C2522.03 273.463 2521.72 272.645 2521.62 272.134C2521.62 272.134 2521.62 272.134 2521.62 271.929L2521.41 271.622C2521.41 271.622 2521.21 271.111 2521.11 270.906C2521.11 270.906 2521.11 270.838 2521.11 270.702L2520.49 270.088C2520.49 270.088 2520.49 270.088 2520.29 270.088C2520.29 270.088 2520.22 270.088 2520.08 270.088C2520.08 270.088 2519.78 269.781 2519.57 269.781C2519.57 269.781 2519.57 269.781 2519.37 269.781C2519.37 269.781 2518.86 269.577 2518.55 269.577H2517.43C2517.43 269.577 2517.02 269.577 2516.71 269.781H2516.4C2516.4 269.781 2515.99 270.088 2515.79 270.191C2515.48 270.497 2515.28 270.6 2515.07 270.906C2515.07 270.906 2515.01 270.906 2514.87 270.906C2514.87 270.906 2514.56 271.213 2514.56 271.418C2514.56 271.622 2514.36 271.929 2514.36 271.929C2514.36 272.134 2514.36 272.134 2514.36 272.338C2514.36 272.338 2514.36 272.849 2514.15 272.849V273.668C2514.15 273.668 2514.36 274.281 2514.36 274.384C2514.36 274.384 2514.36 274.383 2514.36 274.588C2514.36 274.588 2514.36 275.099 2514.56 275.304C2514.87 276.531 2515.38 277.656 2515.69 278.781C2517.02 283.076 2518.35 287.269 2519.67 291.462C2521.31 296.576 2522.95 301.484 2524.58 306.495C2525.71 310.177 2526.93 313.859 2528.06 317.643C2528.26 318.358 2528.47 319.074 2528.77 319.79V319.995V320.199C2528.77 320.199 2529.08 320.711 2529.18 321.017C2529.18 321.017 2529.18 321.222 2529.39 321.324C2529.39 321.529 2529.69 321.631 2529.8 321.631V321.836C2529.8 321.836 2530.51 322.142 2530.72 322.245H2530.92C2531.12 322.245 2531.33 322.449 2531.64 322.449C2531.64 322.449 2531.84 322.449 2531.94 322.449H2532.66C2532.66 322.449 2532.86 322.449 2532.96 322.449C2532.96 322.449 2533.37 322.449 2533.68 322.245H2533.89H2534.09C2534.09 322.245 2534.4 321.938 2534.7 321.938C2534.7 321.938 2534.91 321.733 2535.01 321.733C2535.21 321.733 2535.32 321.427 2535.42 321.324C2535.42 321.324 2535.42 321.12 2535.62 321.017C2535.62 321.017 2536.03 320.097 2536.13 320.097V319.893L2536.44 319.074C2536.85 317.643 2537.36 316.109 2537.77 314.472C2539.41 309.666 2540.94 304.757 2542.47 299.848C2543.29 297.087 2544.21 294.326 2545.13 291.564C2545.44 290.746 2546.05 290.235 2546.87 290.235C2547.58 290.235 2548.3 290.644 2548.61 291.564C2549.53 294.735 2550.55 297.905 2551.57 300.973C2553.11 305.882 2554.54 310.586 2556.07 315.393C2556.48 316.722 2556.89 318.154 2557.4 319.381C2557.4 319.586 2557.4 319.586 2557.4 319.79C2557.4 319.79 2557.6 319.995 2557.6 320.199C2557.6 320.199 2557.6 320.404 2557.81 320.404C2557.81 320.608 2558.01 320.711 2558.11 320.813C2558.32 321.017 2558.32 321.12 2558.52 321.324C2558.52 321.324 2559.03 321.631 2558.83 321.631L2559.65 322.04C2559.95 322.04 2560.06 322.245 2560.36 322.245H2560.67C2560.67 322.245 2560.98 322.245 2561.18 322.245C2562.2 322.245 2563.02 323.063 2563.02 323.983C2563.02 325.108 2562.2 325.824 2561.08 325.824C2558.42 325.824 2556.07 324.392 2554.74 322.142C2554.43 321.631 2554.23 321.12 2554.03 320.506L2553.72 319.79C2553.21 318.154 2552.8 316.62 2552.29 315.086C2550.65 310.279 2549.22 305.473 2547.69 300.564C2547.38 299.541 2546.97 298.621 2546.77 297.598C2545.44 301.484 2544.31 305.37 2543.09 309.257C2541.96 312.836 2540.73 316.518 2539.61 319.995C2538.79 323.472 2535.62 325.722 2532.04 325.722C2528.77 325.722 2525.91 323.472 2524.89 320.404C2524.17 318.154 2523.46 316.006 2522.74 313.756C2521.31 309.154 2519.78 304.45 2518.35 299.95C2516.81 295.144 2515.28 290.133 2513.74 285.224C2512.82 282.258 2511.8 279.088 2510.78 275.917C2510.27 274.383 2510.06 272.85 2510.47 271.213L2510.88 271.009Z" fill="#010C23"/>
<path d="M2197.02 208.83C2197.74 208.626 2198.45 208.523 2199.17 208.523C2200.91 208.523 2202.75 209.035 2204.07 210.057C2205.1 210.773 2205.81 211.591 2206.43 212.716C2206.63 213.023 2206.73 213.227 2206.94 213.534C2206.94 213.943 2207.24 214.25 2207.35 214.659C2207.55 215.477 2207.86 216.091 2208.16 217.011C2209.39 221 2210.82 225.193 2212.05 229.181C2213.99 235.011 2215.83 240.635 2217.77 246.362C2219.41 251.373 2221.05 256.384 2222.68 261.498V261.702C2224.11 257.1 2225.75 252.396 2227.18 247.589C2229.02 241.965 2230.86 236.34 2232.7 230.613C2233.82 226.931 2234.95 223.25 2236.18 219.568C2236.18 219.159 2236.38 218.852 2236.48 218.545C2236.48 218.545 2236.48 218.341 2236.48 218.239C2236.48 218.034 2236.48 217.83 2236.69 217.625V216.5C2236.69 216.5 2236.69 215.989 2236.69 215.887C2236.69 215.682 2236.69 215.58 2236.48 215.375C2236.48 215.375 2236.28 214.966 2236.18 214.864C2236.18 214.455 2235.46 213.637 2235.05 213.534C2235.05 213.534 2234.98 213.534 2234.85 213.534C2234.85 213.534 2234.54 213.228 2234.23 213.125C2234.03 213.125 2233.93 213.125 2233.93 212.921C2233.62 212.921 2233.31 212.921 2233.01 212.921H2232.7C2232.7 212.921 2232.29 212.921 2232.09 212.921H2231.68C2231.68 212.921 2231.06 212.921 2230.76 212.921C2230.76 212.921 2230.76 212.921 2230.55 212.921C2230.25 213.125 2229.94 213.227 2229.63 213.534H2229.94L2228.2 215.273V215.477C2228.2 215.477 2228.2 215.682 2228.2 215.887C2227.9 216.602 2227.69 217.114 2227.49 217.83C2226.67 220.284 2225.95 222.943 2225.13 225.397C2223.81 229.386 2222.48 233.477 2221.25 237.465C2221.25 237.976 2220.74 238.488 2220.33 238.692C2219.72 238.692 2219.31 238.897 2218.8 238.897C2217.67 238.488 2216.96 237.465 2217.36 236.34C2219.21 229.897 2221.25 223.25 2223.6 216.909C2223.91 215.682 2224.32 214.557 2224.73 213.432C2224.93 213.125 2225.03 212.921 2225.13 212.614C2225.44 212.103 2225.85 211.591 2226.26 211.182C2228.1 209.239 2230.25 208.421 2232.9 208.421C2235.67 208.625 2237.91 209.75 2239.45 212C2241.08 214.25 2241.39 217.216 2240.57 219.977C2239.45 223.147 2238.53 226.318 2237.4 229.59C2235.77 235.113 2234.03 240.635 2232.19 246.26C2230.55 251.476 2228.71 256.793 2227.08 262.009L2224.93 268.963C2224.62 269.986 2223.7 270.395 2222.99 270.395C2222.07 270.395 2221.35 269.884 2221.05 268.963C2218.29 261.498 2215.93 253.828 2213.58 246.158C2211.74 240.533 2209.8 234.908 2207.86 229.181C2206.63 225.295 2205.3 221.409 2204.07 217.42C2203.87 216.807 2203.67 216.193 2203.46 215.682C2203.46 215.477 2203.46 215.375 2203.26 215.273C2203.26 215.068 2203.26 214.966 2203.26 214.762C2203.26 214.557 2203.05 214.455 2202.95 214.25C2202.95 214.25 2202.54 213.943 2202.44 213.943C2202.44 213.739 2202.23 213.637 2202.03 213.534C2202.03 213.534 2201.83 213.228 2201.62 213.125C2201.62 213.125 2200.8 212.716 2201.11 212.818C2200.91 212.818 2200.7 212.818 2200.5 212.614H2199.99C2199.99 212.614 2199.58 212.614 2199.37 212.614H2198.25C2198.25 212.614 2197.84 212.614 2197.74 212.818H2197.53C2197.53 212.818 2197.22 213.023 2197.12 213.125C2196.92 213.125 2196.71 213.33 2196.61 213.432C2196.61 213.432 2196.61 213.637 2196.41 213.739L2195.79 214.25C2195.79 214.25 2195.79 214.455 2195.79 214.557C2195.59 214.762 2195.49 215.068 2195.38 215.273V215.58C2195.38 215.58 2195.18 216.091 2195.18 216.398V217.523C2195.18 217.523 2195.38 218.443 2195.49 218.75C2195.9 219.977 2196.2 221 2196.51 222.125C2197.94 226.727 2199.47 231.329 2200.91 235.829C2202.75 241.658 2204.48 247.283 2206.43 253.01C2207.86 257.612 2209.39 262.111 2210.72 266.611C2211.03 267.634 2211.33 268.759 2211.74 269.781C2211.74 269.781 2211.74 269.986 2211.74 270.088C2211.74 270.088 2211.95 270.702 2212.15 270.906C2212.15 271.111 2212.15 271.213 2212.36 271.418C2212.36 271.418 2212.66 271.827 2212.76 272.031C2212.76 272.031 2213.48 272.44 2213.28 272.338C2213.48 272.338 2213.58 272.543 2213.79 272.645C2213.79 272.645 2213.99 272.645 2214.2 272.849C2214.4 272.849 2214.71 273.054 2214.91 273.156H2215.32C2215.32 273.156 2215.73 273.156 2215.93 273.156C2217.16 273.156 2218.08 274.077 2218.08 275.099C2218.08 276.327 2217.06 277.247 2215.93 277.247C2211.95 277.247 2208.98 274.793 2207.75 271.111C2207.75 270.702 2207.55 270.497 2207.45 270.088C2206.94 268.759 2206.43 267.225 2206.12 265.895C2204.59 260.884 2202.95 255.975 2201.42 251.067C2199.58 245.34 2197.74 239.613 2196 233.886C2194.67 229.897 2193.34 225.704 2192.01 221.613L2191.4 219.568C2190.07 215.068 2192.73 209.955 2197.43 208.83H2197.02Z" fill="#010C23"/>
<path d="M2484.1 130.596C2486.35 136.118 2487.37 141.947 2486.86 147.776C2484.71 165.571 2470.91 178.457 2452.71 178.763H2452.4C2433.49 178.457 2418.15 163.628 2418.15 144.402C2418.15 143.174 2419.07 142.356 2420.2 142.356H2431.14C2431.85 131.414 2441.77 123.028 2452.51 123.028H2452.71C2457.52 123.028 2461.91 124.664 2465.8 127.527C2472.95 132.948 2475.92 142.868 2472.95 151.253C2471.52 155.446 2468.86 159.23 2465.08 161.787C2461.5 164.548 2457.11 165.776 2452.71 165.878C2443.61 165.673 2435.94 160.253 2432.47 151.867C2432.06 150.844 2432.98 149.72 2433.9 149.413C2434.1 149.413 2434.41 149.413 2434.61 149.413C2435.53 149.413 2436.15 150.129 2436.45 150.947C2436.45 150.947 2436.66 151.151 2436.66 151.253C2436.66 151.458 2436.86 151.663 2436.86 151.867C2437.27 152.685 2437.78 153.606 2438.3 154.322C2438.3 154.322 2438.6 154.731 2438.7 154.935C2439.83 156.162 2440.75 157.185 2441.98 158.105L2442.18 158.31C2442.38 158.31 2442.49 158.617 2442.79 158.719C2443.51 159.23 2444.22 159.742 2445.14 160.151C2445.45 160.151 2445.66 160.355 2445.86 160.355C2445.86 160.355 2446.06 160.355 2446.17 160.56C2446.68 160.764 2447.09 160.867 2447.39 161.071C2448.42 161.378 2449.34 161.582 2450.26 161.787H2450.67C2450.67 161.787 2451.18 161.787 2451.48 161.787H2454.75C2454.75 161.787 2454.96 161.582 2455.06 161.787C2455.88 161.787 2456.7 161.48 2457.52 161.276C2457.82 161.276 2458.23 160.969 2458.74 160.867C2458.95 160.867 2459.05 160.662 2459.25 160.662C2459.25 160.662 2459.56 160.662 2459.66 160.458C2460.38 160.253 2460.99 159.844 2461.6 159.435L2462.93 158.617C2462.93 158.617 2463.34 158.31 2463.55 158.105C2463.55 158.105 2463.62 158.037 2463.75 157.901C2463.75 157.901 2466.61 155.344 2466.61 154.833C2466.61 154.833 2467.23 154.015 2467.43 153.606C2467.94 152.788 2468.45 151.969 2468.76 151.151C2468.76 151.151 2468.76 150.947 2468.76 150.844C2468.76 150.844 2468.76 150.64 2468.97 150.435C2468.97 150.231 2468.97 150.026 2469.17 149.822C2469.37 149.31 2469.48 148.697 2469.58 148.288C2469.58 147.776 2469.78 147.265 2469.89 146.856V146.447C2469.89 146.447 2469.89 145.936 2469.89 145.629C2469.89 144.504 2469.89 143.481 2469.89 142.356V142.049C2469.89 142.049 2469.89 141.334 2469.89 141.129C2469.89 140.618 2469.58 140.106 2469.58 139.697C2469.37 139.186 2469.27 138.675 2469.07 138.163C2469.07 138.163 2468.86 137.857 2468.86 137.754C2468.86 137.754 2468.66 137.345 2468.56 137.243C2468.15 136.322 2467.64 135.402 2467.13 134.584C2466.92 134.277 2466.72 134.073 2466.61 133.766C2466.61 133.766 2466.61 133.766 2466.61 133.561C2466.21 133.254 2465.9 132.845 2465.49 132.436C2464.77 131.72 2464.16 131.107 2463.34 130.391C2463.34 130.391 2463.14 130.391 2463.04 130.186C2462.83 129.982 2462.63 129.88 2462.32 129.777C2461.91 129.471 2461.5 129.164 2461.09 128.857C2460.68 128.857 2460.17 128.448 2459.66 128.243C2459.66 128.243 2459.66 128.243 2459.46 128.039C2459.25 128.039 2459.05 128.039 2458.84 127.834C2457.82 127.425 2456.8 127.221 2455.78 127.016H2455.37H2454.55C2454.55 127.016 2453.53 127.016 2453.12 127.016H2452.81C2452.2 127.016 2451.59 127.016 2450.97 127.016H2450.46C2450.46 127.016 2449.95 127.221 2449.54 127.221C2448.52 127.425 2447.5 127.732 2446.47 128.141C2446.47 128.141 2446.27 128.141 2446.06 128.141C2445.86 128.346 2445.66 128.448 2445.35 128.55C2444.84 128.755 2444.43 128.959 2444.12 129.266L2442.79 130.186C2442.79 130.186 2442.38 130.391 2442.18 130.493C2442.18 130.493 2441.98 130.698 2441.87 130.8C2441.06 131.516 2440.34 132.129 2439.73 133.05L2439.11 133.663C2439.11 133.663 2439.11 133.663 2439.11 133.868C2438.7 134.379 2438.5 134.891 2438.19 135.095C2437.89 135.607 2437.58 136.118 2437.27 136.527C2437.27 136.731 2437.07 137.038 2437.07 137.243C2437.07 137.243 2437.07 137.447 2436.86 137.55C2436.45 138.572 2436.05 139.493 2435.84 140.618C2435.84 140.925 2435.64 141.231 2435.64 141.64C2435.64 141.64 2435.64 142.049 2435.64 141.947V142.356C2435.64 142.97 2435.64 143.583 2435.64 144.299C2435.64 145.424 2434.51 146.345 2433.49 146.345H2422.65C2422.65 146.345 2422.65 146.651 2422.65 146.754C2422.65 147.265 2422.65 147.674 2422.65 147.981V148.185C2422.65 148.185 2422.65 148.492 2422.65 148.595C2422.86 150.026 2423.27 151.458 2423.57 152.89C2423.88 153.708 2424.19 154.322 2424.49 155.14C2424.49 155.446 2424.49 155.651 2424.7 155.753C2424.7 155.753 2424.9 156.571 2425 156.878C2425.62 158.105 2426.23 159.23 2426.95 160.355C2427.36 160.969 2427.76 161.582 2428.07 161.992C2428.28 162.298 2428.48 162.503 2428.68 162.81C2428.68 162.81 2428.89 163.014 2428.99 163.117C2429.81 164.241 2430.63 165.162 2431.65 166.082C2432.16 166.491 2432.57 167.003 2433.08 167.412C2433.29 167.616 2433.59 167.821 2433.8 167.923C2433.8 168.128 2434.1 168.23 2434.21 168.332C2436.05 169.662 2438.7 171.4 2440.85 172.116C2440.85 172.116 2441.16 172.321 2441.26 172.321C2441.46 172.321 2441.57 172.525 2441.77 172.525C2442.08 172.73 2442.38 172.832 2442.69 172.934L2444.63 173.548C2445.35 173.548 2445.96 173.855 2446.78 174.059C2447.09 174.059 2447.39 174.059 2447.7 174.264H2448.31C2449.75 174.57 2451.18 174.673 2452.61 174.673H2452.81C2453.73 174.673 2454.55 174.673 2455.47 174.468C2455.88 174.468 2456.29 174.468 2456.7 174.468C2456.7 174.468 2457.11 174.468 2457.31 174.468C2457.92 174.468 2458.54 174.264 2459.15 174.059C2460.48 173.855 2461.91 173.445 2463.14 172.832C2463.55 172.832 2463.85 172.627 2464.26 172.423C2464.26 172.423 2464.57 172.218 2464.77 172.218C2465.29 171.912 2465.9 171.707 2466.41 171.4C2467.53 170.787 2468.56 170.173 2469.68 169.355C2470.09 169.355 2470.4 169.048 2470.7 168.741L2471.01 168.434C2471.01 168.434 2471.21 168.434 2471.32 168.23C2471.83 167.923 2472.24 167.616 2472.54 167.207C2473.67 166.184 2474.49 165.366 2475.41 164.446C2475.82 163.832 2476.33 163.321 2476.74 162.912C2476.74 162.912 2476.74 162.707 2476.74 162.605C2476.74 162.605 2476.74 162.537 2476.74 162.401C2476.74 162.401 2477.14 161.889 2477.35 161.685C2478.17 160.458 2478.68 159.435 2479.39 158.31C2479.7 157.594 2479.9 157.083 2480.21 156.469C2480.21 156.469 2480.42 156.162 2480.42 155.958C2480.42 155.958 2480.72 155.242 2480.82 154.935C2481.23 153.708 2481.64 152.276 2482.05 151.049C2482.05 150.231 2482.36 149.617 2482.46 148.799V148.492V148.288C2482.46 147.879 2482.46 147.572 2482.46 147.163C2482.46 145.833 2482.67 144.299 2482.46 142.97V140.822C2482.46 140.822 2482.26 140.618 2482.46 140.515V140.209C2482.46 140.209 2482.46 139.493 2482.26 139.186C2481.95 137.857 2481.64 136.322 2481.13 135.095C2480.93 134.379 2480.72 133.766 2480.42 133.152C2480.42 132.948 2480.42 132.845 2480.42 132.743C2480.42 132.743 2480.42 132.675 2480.42 132.539C2480.42 132.539 2480.11 131.925 2480.01 131.618C2479.39 130.391 2478.78 129.266 2478.17 128.141C2477.76 127.527 2477.45 126.914 2476.94 126.505C2476.74 126.3 2476.53 125.994 2476.43 125.789C2476.43 125.789 2476.22 125.38 2476.12 125.278C2475.2 124.357 2474.38 123.335 2473.46 122.414C2472.95 121.903 2472.34 121.494 2471.93 121.187C2471.73 120.88 2471.42 120.676 2471.21 120.471C2471.21 120.471 2470.91 120.471 2470.81 120.164C2469.78 119.346 2468.76 118.63 2467.64 118.017L2464.26 116.38C2464.26 116.38 2463.75 116.38 2463.75 116.176C2463.55 116.176 2463.44 116.176 2463.24 115.971C2462.93 115.971 2462.63 115.767 2462.22 115.664C2461.6 115.46 2460.99 115.153 2460.38 115.051C2459.66 114.846 2458.95 114.642 2458.33 114.539C2457.92 114.539 2457.62 114.539 2457.31 114.335C2457.11 114.335 2456.9 114.335 2456.8 114.335H2456.6C2455.27 114.13 2453.83 114.13 2452.51 114.13H2449.34C2449.34 114.13 2449.03 114.13 2448.83 114.13H2448.62C2448.62 114.13 2448.31 114.13 2448.21 114.13C2447.8 114.13 2447.39 114.13 2446.99 114.335C2445.25 114.642 2443.51 115.153 2441.67 115.664C2441.26 115.869 2440.85 115.971 2440.54 116.176C2440.54 116.176 2440.24 116.176 2440.03 116.38C2438.3 117.301 2436.66 118.017 2435.02 119.141C2434.82 119.448 2434.41 119.653 2434.1 119.857C2434.1 119.857 2433.9 120.062 2433.69 120.062L2433.49 120.266C2433.08 120.676 2432.57 120.982 2432.26 121.391C2431.24 122.312 2430.42 123.13 2429.5 124.255C2428.99 124.664 2428.58 125.278 2428.28 125.789H2428.07C2428.07 125.789 2428.07 125.993 2427.87 125.993L2427.36 126.914C2426.54 127.937 2425.92 129.061 2425.41 130.289C2425 130.8 2424.7 131.516 2424.49 131.925C2424.49 132.129 2424.49 132.334 2424.29 132.436C2424.29 132.436 2423.98 133.254 2423.78 133.561C2423.27 134.891 2422.96 136.322 2422.55 137.652C2422.14 138.879 2421.32 139.186 2420 139.186C2418.87 138.777 2418.36 137.754 2418.56 136.527C2422.35 120.88 2435.84 109.733 2452.1 109.733H2452.3C2454.65 109.733 2457 110.04 2459.25 110.551C2469.99 112.699 2479.39 120.266 2483.69 130.289L2484.1 130.596Z" fill="#010C23"/>
<path d="M2482.05 711.065C2482.56 706.565 2485.94 703.088 2490.54 703.088C2495.14 703.088 2499.02 706.975 2499.02 711.679V749.927C2499.02 751.052 2498 751.87 2496.88 751.87C2495.75 751.87 2494.93 750.949 2494.93 749.825V710.963C2494.93 710.963 2494.93 710.758 2494.93 710.554C2494.93 710.349 2494.73 710.043 2494.63 709.838C2494.63 709.838 2494.63 709.531 2494.42 709.429C2494.42 709.224 2494.22 708.918 2494.01 708.713C2494.01 708.713 2493.95 708.713 2493.81 708.713C2493.81 708.713 2493.6 708.304 2493.4 708.099C2493.4 708.099 2493.2 708.099 2493.09 707.895C2493.09 707.895 2492.68 707.588 2492.38 707.486C2492.38 707.486 2491.87 707.281 2491.56 707.281H2491.05C2491.05 707.281 2490.74 707.281 2490.44 707.281H2490.13C2490.13 707.281 2489.62 707.281 2489.41 707.281C2489.41 707.281 2489.11 707.281 2489 707.281C2488.7 707.281 2488.49 707.486 2488.29 707.69C2488.29 707.69 2487.88 708.099 2487.88 707.997C2487.88 708.202 2487.57 708.304 2487.47 708.406L2487.16 708.713L2486.86 709.327C2486.86 709.327 2486.55 710.043 2486.55 709.838L2486.35 710.758V754.631H2513.74C2514.77 754.631 2515.69 754.836 2516.71 755.04C2519.06 755.858 2520.9 757.495 2522.03 759.744C2523.05 762.097 2523.05 764.858 2521.72 767.21C2520.59 769.358 2518.45 770.994 2516.1 771.403C2515.07 771.71 2514.15 771.71 2513.13 771.71H2484.2C2483.07 771.71 2482.15 770.687 2482.15 769.562C2482.15 768.437 2483.18 767.619 2484.3 767.619H2514.77C2514.77 767.619 2515.18 767.619 2515.28 767.415C2515.48 767.415 2515.69 767.415 2515.89 767.415C2515.89 767.415 2515.89 767.415 2516.1 767.415C2516.1 767.415 2516.3 767.21 2516.4 767.21C2516.61 767.21 2516.81 766.903 2517.02 766.801C2517.02 766.801 2517.22 766.801 2517.22 766.596C2517.43 766.392 2517.63 766.29 2517.83 766.085C2517.83 766.085 2517.83 765.778 2517.83 765.676C2517.83 765.676 2518.35 764.96 2518.35 764.756C2518.35 764.449 2518.55 764.244 2518.65 763.835V762.608C2518.65 762.608 2518.65 762.608 2518.65 762.404C2518.65 762.199 2518.65 761.994 2518.45 761.79C2518.45 761.79 2518.45 761.483 2518.45 761.381C2518.45 761.176 2518.14 760.972 2518.04 760.665C2518.04 760.665 2518.04 760.597 2518.04 760.46C2518.04 760.46 2517.73 760.051 2517.53 759.847C2517.32 759.847 2517.22 759.642 2517.12 759.54C2516.91 759.54 2516.71 759.233 2516.5 759.131C2516.5 759.131 2516.3 759.131 2516.2 759.131C2515.89 759.131 2515.69 759.131 2515.48 758.926C2515.28 758.926 2515.18 758.926 2514.97 758.926H2484.4C2483.28 758.926 2482.36 757.801 2482.36 756.779V713.724C2482.36 712.804 2482.36 711.986 2482.36 711.065H2482.05Z" fill="#010C23"/>
</svg>
