<svg width="2780" height="782" viewBox="0 0 2780 782" fill="none" xmlns="http://www.w3.org/2000/svg">
<path d="M847.938 197.58C851.823 196.456 856.322 195.944 860.207 195.944C870.226 195.944 880.245 198.706 888.014 204.842C893.535 208.728 898.034 213.739 901.407 219.875C902.532 221.511 903.043 222.636 904.168 224.375C904.679 226.625 905.803 228.261 906.417 230.511C907.541 235.01 909.177 238.897 910.915 243.908C918.174 266.713 925.944 290.132 933.202 312.938C944.346 345.766 954.876 378.083 965.509 410.297C974.914 438.625 983.809 467.055 993.317 495.997C993.317 496.508 993.828 497.122 993.828 497.122C1002.21 470.941 1011.11 444.25 1019.39 417.046C1029.92 385.344 1039.94 353.027 1050.57 320.813C1056.7 300.257 1063.35 279.088 1069.99 258.532C1070.5 256.282 1071.12 254.646 1071.63 253.009C1072.14 252.498 1072.14 251.885 1072.14 251.373C1072.65 250.248 1072.65 249.123 1073.26 247.998V241.862C1073.26 241.351 1072.75 239.101 1072.75 238.487C1072.24 237.363 1072.24 236.851 1071.63 235.726C1071.12 235.215 1070.5 233.476 1069.99 232.965C1069.48 230.715 1066.11 226.318 1063.86 225.193V224.681H1063.35C1063.01 224.341 1062.63 224.17 1062.22 224.17C1061.1 223.045 1060.59 222.534 1058.85 221.92C1057.72 221.409 1057.21 221.409 1057.21 220.795C1055.58 220.795 1053.84 220.795 1052.2 220.284H1050.57C1049.44 220.284 1048.32 219.773 1047.19 220.284H1044.95C1043.31 220.284 1041.57 220.284 1039.94 220.795C1039.94 221.307 1039.42 221.307 1038.81 221.307C1037.18 222.432 1035.44 222.943 1033.8 224.681H1035.44L1025.42 234.704V235.829C1025.42 236.954 1024.91 236.954 1024.91 238.078C1023.27 241.965 1022.15 245.339 1021.02 249.226C1016.52 263.134 1012.13 278.167 1007.63 292.076C999.86 314.881 992.601 337.687 985.342 360.493C984.831 363.254 982.582 366.015 980.333 367.753C976.959 368.265 974.812 368.878 971.438 368.878C965.304 366.629 960.908 360.493 963.055 354.356C973.585 317.642 985.342 280.417 998.122 244.214C999.757 237.567 1002.01 230.817 1004.26 224.784C1005.38 223.147 1005.89 222.022 1006.5 220.284C1008.14 217.523 1010.39 214.762 1012.64 211.898C1023.17 200.751 1035.44 196.353 1050.47 196.353C1066.01 197.478 1078.79 204.126 1087.68 216.398C1097.09 229.181 1098.82 245.851 1093.81 261.498C1087.68 279.292 1082.16 297.7 1076.02 316.006C1066.62 347.198 1056.6 378.901 1046.58 410.604C1037.07 440.057 1027.16 470.123 1017.65 499.576L1005.38 539.051C1003.74 544.574 998.735 547.437 994.237 547.437C989.227 547.437 984.729 544.676 983.093 539.051C967.553 496.815 954.161 453.351 940.87 409.99C930.34 378.287 919.196 345.971 908.666 313.756C901.407 291.462 894.251 269.781 886.992 246.976C885.868 243.601 884.743 239.715 883.618 236.954C883.618 235.829 883.107 235.317 882.494 234.704C882.494 233.579 882.494 233.067 881.983 231.942C881.471 230.817 880.858 230.306 880.347 229.181C879.836 229.181 878.098 227.545 877.586 227.545C877.075 226.42 876.462 225.909 875.337 225.295L874.826 224.784C874.315 224.272 873.702 223.659 872.577 223.147C872.066 222.636 868.181 220.898 869.817 221.511C868.692 221 867.567 221 866.443 220.386H863.683C862.558 220.386 861.433 219.875 860.309 220.386H854.175C853.05 220.386 851.925 220.898 851.414 221.511H850.29C849.165 222.023 848.654 222.636 848.041 223.147C846.916 223.659 845.791 224.272 845.28 224.784H844.769C844.769 225.295 844.258 225.909 843.644 226.42L840.271 229.181C840.271 229.693 839.759 230.306 839.759 230.817C838.635 231.942 838.124 233.579 837.51 234.704L836.999 235.215V236.34C836.488 237.465 835.875 239.101 835.875 240.84L835.363 241.351V247.487L835.875 247.998C835.875 250.248 836.999 252.498 837.51 254.134C839.759 260.782 841.395 266.918 843.031 273.054C851.414 299.234 859.695 325.313 868.079 350.982C878.609 383.809 888.628 416.126 899.158 448.34C907.541 474.521 915.822 500.088 923.592 525.654C925.228 531.177 926.966 537.927 929.113 543.449C929.113 543.96 929.624 544.574 929.624 545.085V545.597C930.135 546.721 930.749 548.358 931.873 549.483C932.385 550.608 932.385 551.119 932.998 552.244H933.509V552.755C934.634 553.267 935.145 554.392 935.758 555.516C936.269 556.028 939.643 557.766 938.519 557.153C939.643 557.664 940.154 558.278 941.279 558.789C941.79 559.3 942.404 559.3 943.528 559.914C944.653 560.425 946.288 561.039 947.413 561.55H949.662C950.787 562.062 951.911 562.062 953.036 562.062C959.681 562.062 965.304 567.073 965.304 573.209C965.304 579.856 959.784 585.481 953.036 585.481C930.238 585.481 913.573 571.572 906.826 550.403C906.315 548.153 905.701 547.028 905.19 544.881C902.43 537.108 899.669 528.723 897.42 520.95C888.526 492.622 879.631 464.805 870.737 436.989C860.207 404.672 850.187 371.946 840.168 339.63C832.399 316.824 825.14 293.507 817.37 270.088L813.996 258.43C806.226 232.863 821.766 203.921 847.938 197.785V197.58Z" fill="#69E3E3"/>
<path d="M1476.48 312.222C1489.26 343.414 1494.78 376.753 1492.02 409.581C1479.75 510.314 1401.34 583.742 1298.49 585.378H1296.85C1189.51 583.742 1102.81 499.678 1102.81 390.661C1102.81 384.014 1107.82 379.003 1114.47 379.003H1176.22C1180.1 317.233 1236.33 269.372 1297.47 269.372H1298.59C1325.89 269.372 1350.83 278.781 1372.61 294.939C1413.2 325.517 1429.86 381.764 1413.2 429.523C1404.81 453.454 1389.78 474.623 1368.72 489.042C1348.69 504.587 1323.64 511.848 1298.59 512.462H1298.08C1246.35 511.337 1203 480.759 1183.47 432.898C1181.22 427.375 1186.23 420.626 1191.86 418.989C1192.98 418.478 1194.62 418.478 1195.74 418.478C1200.75 418.478 1204.64 422.364 1206.27 427.375C1206.78 427.887 1207.4 428.5 1207.4 429.012C1207.91 430.137 1208.52 431.261 1208.52 432.386C1210.77 436.784 1213.53 442.409 1216.9 446.295C1217.42 446.806 1218.54 448.545 1219.15 449.67C1225.8 456.931 1230.81 462.453 1237.56 467.464C1237.56 467.975 1238.68 468.589 1238.68 468.589C1239.81 469.1 1240.32 470.225 1242.05 470.839C1245.94 473.6 1250.44 476.361 1255.45 479.225C1257.08 479.736 1258.21 480.35 1259.33 480.35C1259.84 480.861 1260.46 480.861 1260.97 481.475C1263.73 482.6 1265.98 483.111 1268.23 484.236C1273.75 485.872 1279.37 486.997 1284.38 488.122H1286.63C1288.27 488.122 1289.39 488.633 1291.03 488.633H1309.33C1309.84 488.122 1310.45 487.509 1310.96 488.122C1315.46 487.611 1320.37 486.486 1324.87 485.361C1326.5 484.85 1328.75 483.725 1331.51 483.111C1332.64 482.6 1333.15 481.986 1334.27 481.986C1334.78 481.475 1335.91 481.475 1336.52 480.861C1340.4 479.736 1344.29 477.486 1347.66 475.339L1355.43 470.839C1356.56 469.714 1357.68 469.203 1358.81 468.078L1359.93 466.953C1362.18 464.703 1376.09 452.533 1376.09 449.67H1376.6C1378.23 447.42 1379.97 445.272 1381.09 443.022C1383.85 438.522 1386.62 433.614 1388.86 429.114C1388.86 428.602 1389.38 427.989 1389.38 427.478C1389.89 426.966 1389.89 426.353 1390.5 425.228C1390.5 424.103 1391.01 422.978 1391.62 421.853C1392.75 419.092 1393.26 415.717 1393.87 412.956C1394.39 410.194 1395 407.433 1395.51 404.57V402.32C1396.02 400.683 1396.02 399.559 1396.02 397.82C1396.53 391.684 1396.53 385.548 1396.02 379.514C1395.51 379.514 1395.51 377.878 1395.51 377.878V377.366C1395.51 375.73 1395 373.992 1395 372.867C1394.49 370.105 1393.36 367.344 1393.36 364.481C1392.24 361.72 1391.73 358.958 1390.6 355.584C1390.09 355.072 1389.48 353.947 1389.48 353.334C1388.97 352.822 1388.35 351.084 1387.84 350.572C1385.59 345.561 1382.83 340.039 1379.46 335.539C1378.33 333.903 1377.21 332.778 1376.7 331.142C1376.19 331.142 1376.19 330.63 1376.19 330.017C1373.94 328.38 1372.3 326.131 1370.05 323.881C1366.17 319.995 1362.28 316.108 1357.78 312.222H1357.27C1356.76 312.222 1356.15 311.711 1355.64 311.097C1354.51 309.972 1353.39 309.461 1351.75 308.847C1349.5 307.211 1347.25 305.472 1345.11 303.836C1342.86 303.325 1340.1 301.586 1336.72 300.461L1336.21 299.95C1335.87 299.95 1335.5 299.78 1335.09 299.439C1333.96 299.439 1332.84 298.927 1331.71 298.314C1326.19 296.064 1320.06 294.939 1314.44 293.916H1312.19C1311.85 293.916 1311.68 293.746 1311.68 293.405H1307.18C1304.42 292.894 1301.66 292.894 1298.8 292.894H1297.16C1293.79 292.894 1289.9 292.894 1286.63 293.405H1284.38L1283.87 293.916C1282.74 293.916 1281.11 294.428 1278.86 294.428C1273.34 295.553 1267.2 297.189 1261.58 299.439C1261.07 299.439 1260.46 299.95 1259.33 299.95C1258.21 301.075 1257.08 301.586 1255.45 302.2C1252.69 303.325 1250.44 304.45 1248.19 306.086L1240.42 311.097L1237.05 312.734V313.245C1236.53 313.245 1235.92 313.756 1235.41 314.37C1230.91 318.256 1226.52 322.142 1223.14 327.153C1222.02 328.278 1220.89 329.403 1219.77 330.528C1219.77 331.039 1219.26 331.039 1219.26 331.653C1217.01 334.414 1215.88 337.175 1214.25 338.914C1212.61 341.675 1210.87 344.436 1209.24 347.3C1208.73 348.425 1208.11 350.061 1208.11 351.186C1207.6 351.697 1207.6 352.311 1206.99 352.822C1204.74 358.345 1202.49 363.97 1201.47 370.106C1200.96 371.742 1200.34 373.48 1200.34 375.628C1200.34 375.628 1199.83 377.878 1199.83 377.264V379.514C1199.83 382.889 1199.32 386.775 1199.83 390.661C1199.83 396.797 1193.7 402.32 1187.56 402.32H1126.43C1126.94 402.831 1126.94 403.956 1126.94 404.57C1126.94 407.331 1126.94 409.581 1127.45 411.831V412.956C1127.96 414.08 1127.96 414.592 1127.96 415.205C1129.08 423.591 1131.33 431.364 1132.97 439.647C1134.61 444.045 1136.34 448.033 1137.98 452.431C1138.49 454.067 1138.49 455.192 1139.1 455.806L1139.62 456.317C1140.13 457.953 1140.74 460.203 1141.25 461.839C1144.62 468.487 1148.51 475.236 1152.39 481.27C1154.64 484.645 1156.89 487.918 1158.53 490.679C1159.65 492.315 1160.78 493.44 1161.9 495.179V495.69H1162.41C1162.92 496.201 1163.54 496.815 1164.05 497.326C1168.55 503.462 1173.56 508.985 1179.08 513.996C1181.84 516.246 1184.09 519.007 1187.46 521.768C1188.59 522.893 1190.22 524.018 1191.35 524.529C1191.86 525.654 1192.98 526.166 1193.6 526.779C1204.23 534.552 1219.15 544.062 1231.42 547.949C1231.42 548.46 1233.06 549.074 1233.67 549.074C1234.8 549.585 1235.31 550.199 1236.43 550.199C1238.07 551.323 1239.81 551.835 1241.44 552.448L1252.58 555.823C1256.47 556.334 1260.35 557.459 1264.85 558.584C1266.49 558.584 1268.23 559.096 1269.86 559.709H1273.24C1281.62 561.346 1289.39 561.959 1297.67 561.959H1298.8C1303.8 561.959 1308.81 561.448 1313.82 560.834C1316.07 560.834 1318.32 560.834 1320.47 560.323H1320.98C1322.1 560.323 1323.23 559.812 1324.35 559.812C1327.73 559.3 1331.61 558.687 1334.99 557.562C1342.76 556.437 1350.53 554.187 1357.78 550.914C1360.03 550.403 1361.67 549.789 1363.92 548.664H1364.43V548.153C1365.55 548.153 1366.07 547.642 1367.19 547.642C1369.95 546.006 1373.32 544.881 1376.6 543.244C1382.73 539.869 1388.86 535.983 1395 531.586C1397.25 531.074 1398.88 529.949 1400.52 528.211L1402.15 526.575C1402.67 526.575 1403.28 526.063 1403.79 525.45C1406.55 523.813 1408.8 522.075 1410.44 519.927C1416.57 514.405 1421.58 509.394 1426.59 504.383C1428.84 501.008 1431.6 498.247 1434.36 495.485C1434.36 494.974 1434.87 494.36 1434.87 493.849C1435.21 493.508 1435.38 493.133 1435.38 492.724C1436.51 491.088 1437.63 489.963 1438.76 488.838C1443.25 482.191 1446.52 476.055 1450.41 469.919C1452.05 466.032 1453.17 463.271 1454.91 459.385C1455.42 458.874 1456.03 457.749 1456.03 456.624H1456.54V456.112C1457.06 454.987 1458.18 452.738 1458.79 451.101C1461.04 443.84 1463.19 436.068 1465.44 428.807C1465.95 424.307 1467.07 420.421 1467.69 416.024L1468.2 414.387V413.262C1468.2 411.013 1468.71 409.376 1468.71 407.126C1469.22 399.354 1469.83 390.968 1468.71 383.196V370.924C1468.2 370.412 1467.59 369.799 1468.2 369.287V367.651C1467.69 365.401 1467.69 363.765 1467.07 362.129C1465.44 354.356 1463.7 345.97 1460.94 338.812C1459.82 334.925 1458.69 331.039 1457.06 327.665C1457.06 326.54 1456.54 326.028 1456.54 325.415C1456.2 325.074 1456.03 324.699 1456.03 324.29C1454.91 322.653 1454.4 320.915 1453.78 319.279C1450.41 312.631 1447.14 305.882 1443.25 299.848C1441 296.473 1439.37 293.2 1436.61 290.439C1435.48 289.314 1434.36 287.678 1433.85 286.553V286.042C1433.34 285.53 1432.72 284.405 1432.21 283.792C1427.2 278.781 1422.19 272.645 1417.18 267.634C1414.42 264.872 1411.05 262.622 1408.29 260.373C1407.16 258.736 1405.53 257.611 1404.4 256.486C1403.89 255.975 1402.77 255.975 1402.15 254.85H1401.64V254.339C1396.12 250.453 1389.99 245.953 1383.85 242.68L1364.94 233.272C1364.43 233.272 1362.18 232.76 1362.18 232.147C1361.06 232.147 1360.55 231.635 1359.42 231.022C1357.78 230.51 1356.05 229.897 1353.9 229.386C1350.53 228.261 1347.25 226.624 1343.27 226.011C1339.38 224.886 1334.99 223.761 1331.61 223.25C1329.36 222.738 1327.73 222.738 1326.09 222.125C1324.97 222.125 1323.84 221.613 1323.33 221.613H1322.21C1314.44 220.488 1306.67 220.488 1298.8 220.488H1281.01C1280.5 221 1279.37 221 1278.25 221H1277.12C1276.61 221.511 1275.49 221.511 1274.87 221.511C1272.62 221.511 1270.37 222.022 1268.23 222.636C1258.21 224.272 1248.19 227.033 1238.17 230.408C1235.92 231.533 1233.77 232.045 1232.04 233.17H1231.52C1230.4 233.681 1229.89 233.681 1228.76 234.294C1218.75 239.306 1209.85 243.703 1200.45 249.839C1199.32 251.475 1197.07 252.6 1195.44 253.725C1194.92 254.237 1194.31 254.85 1193.19 254.85C1193.19 255.362 1192.06 255.975 1192.06 255.975C1189.81 258.225 1187.05 259.861 1184.8 262.111C1179.28 267.122 1174.27 272.133 1169.26 278.269C1166.5 280.519 1164.25 283.792 1162 287.167C1161.49 287.167 1160.88 287.678 1160.88 287.678C1160.37 288.189 1160.37 288.803 1159.76 288.803L1157 293.814C1152.5 299.336 1148.61 306.086 1145.85 312.734C1143.6 315.495 1141.97 319.381 1140.84 322.142C1140.33 323.267 1140.33 324.392 1139.72 324.903V325.415C1138.59 327.665 1138.08 329.301 1136.96 330.937C1134.2 338.709 1132.56 346.482 1130.31 354.254C1128.06 361.515 1123.05 363.151 1115.9 363.151C1109.25 360.901 1106.49 354.765 1107.51 348.118C1128.68 259.657 1205.35 196.251 1297.77 196.251H1298.9C1312.29 196.251 1325.58 197.887 1338.36 200.648C1398.99 212.92 1452.35 255.771 1476.79 312.427L1476.48 312.222Z" fill="white"/>
<path d="M1500.91 232.658C1504.29 219.875 1513.18 207.603 1525.35 202.08C1532.61 198.194 1540.38 195.944 1548.76 195.944C1565.42 195.944 1580.96 205.967 1589.35 219.875C1589.69 220.216 1589.86 220.591 1589.86 221C1591.49 223.761 1592.62 227.136 1593.74 229.897L1595.38 234.908C1598.75 244.93 1601.51 254.339 1604.89 264.361C1614.91 295.553 1624.93 327.256 1634.94 358.345C1637.19 366.117 1639.95 373.378 1642.2 380.639C1645.58 370.106 1649.46 358.958 1652.22 347.3C1662.24 317.233 1672.26 286.655 1682.28 255.464C1685.04 247.692 1686.78 239.306 1689.54 231.533C1690.66 227.647 1692.3 224.272 1694.04 221C1694.04 220.488 1694.55 220.488 1694.55 219.875C1696.18 217.625 1697.92 215.375 1699.56 213.227C1708.45 202.694 1722.36 195.944 1736.26 195.944C1750.16 195.944 1763.56 202.08 1772.45 212.102C1774.7 214.352 1776.34 217.114 1777.97 219.875C1777.97 220.386 1778.48 220.386 1778.48 221C1780.12 223.761 1781.86 227.136 1782.88 230.408C1784 234.908 1785.64 238.794 1786.76 243.805C1794.02 266.611 1802.3 290.03 1810.18 312.836L1841.36 410.195C1850.76 438.523 1860.27 466.953 1869.68 495.895C1869.68 495.895 1870.19 496.406 1869.68 497.019C1876.93 476.975 1883.07 457.544 1889.1 438.011C1899.63 405.183 1909.65 372.356 1920.28 340.141L1948.09 252.805V252.294C1948.09 251.782 1948.6 251.169 1948.6 250.044C1948.6 248.919 1949.11 247.794 1949.11 246.669V240.022L1946.86 233.885C1946.35 233.374 1946.35 232.761 1945.74 231.636C1945.74 231.124 1945.23 229.999 1944.1 228.874C1944.1 228.363 1940.22 224.988 1939.71 224.988V224.477C1939.2 223.966 1938.58 223.966 1938.07 223.352C1936.95 222.841 1935.82 221.716 1934.7 221.102H1934.19C1933.68 221.102 1933.06 220.591 1932.55 220.591C1931.43 220.079 1929.79 220.079 1928.67 220.079H1920.28C1919.16 220.079 1917.52 220.079 1916.4 220.591C1916.4 220.591 1915.89 221.102 1915.27 221.102C1914.66 221.102 1914.76 221.102 1914.15 221.613H1913.64C1912.51 222.125 1911.39 223.25 1909.75 224.375L1908.63 225.5C1907.5 226.011 1906.38 227.136 1905.25 228.261C1905.25 228.261 1904.13 229.386 1904.13 229.897L1903.62 230.408C1903.62 231.533 1902.49 232.658 1901.98 234.295V234.806C1901.47 234.806 1901.47 235.317 1901.47 236.442C1900.96 236.953 1900.96 237.567 1900.35 238.692C1896.46 250.351 1893.09 262.009 1889.2 273.77C1881.43 297.7 1874.17 321.631 1866.4 345.561C1863.64 353.334 1859.15 353.947 1852.5 353.947C1845.86 352.311 1841.97 345.561 1844.12 339.528C1849.13 322.858 1854.14 306.7 1859.66 290.542C1864.16 275.508 1869.06 260.475 1873.56 244.93C1876.32 236.544 1878.57 228.261 1882.46 221C1882.46 220.659 1882.63 220.284 1882.97 219.875C1884.6 217.114 1886.34 214.352 1888.49 211.489C1899.02 200.342 1911.9 195.944 1926.83 195.944C1941.85 197.069 1954.63 203.717 1963.53 215.989C1973.55 228.772 1974.67 245.442 1970.17 261.089C1964.04 278.883 1958.52 297.291 1952.38 315.597C1942.37 346.789 1932.35 378.492 1922.33 410.195C1912.92 439.648 1903.41 469.714 1894.52 499.167C1890.02 512.564 1886.14 525.348 1881.13 538.642C1880 544.165 1874.99 547.028 1869.98 547.028C1865.48 547.028 1860.58 544.267 1858.84 538.642C1855.47 529.234 1852.71 519.212 1849.43 509.701L1822.75 427.887C1811.61 395.57 1801.59 362.845 1790.44 330.528C1782.67 305.473 1774.29 280.417 1766.01 255.464C1763.76 249.328 1762.12 243.805 1760.49 237.669C1760.49 237.158 1759.98 236.544 1759.98 236.544C1759.98 236.203 1759.81 235.829 1759.47 235.42C1759.47 234.908 1758.34 232.658 1758.34 232.045C1757.83 230.92 1756.71 229.795 1756.09 228.67C1756.09 228.67 1754.46 227.034 1753.84 227.034L1752.21 224.784C1751.7 224.784 1749.45 223.147 1748.83 222.534C1748.32 222.022 1747.2 221.409 1746.07 221.409C1746.07 220.897 1745.56 220.897 1744.95 220.897C1744.44 220.386 1743.82 220.386 1742.7 219.773H1729.41C1728.9 220.284 1727.77 220.284 1727.16 220.897H1726.65L1723.28 222.534C1722.76 223.045 1718.27 226.42 1718.27 226.42C1718.27 226.931 1717.14 228.056 1716.63 228.056C1716.63 228.397 1716.46 228.772 1716.12 229.181C1715.61 230.306 1714.99 230.817 1714.48 231.942L1712.85 235.317V236.442C1712.34 237.567 1711.72 239.203 1711.21 240.942C1708.45 250.964 1705.08 260.986 1701.7 269.884C1692.3 302.2 1681.67 333.289 1671.65 364.481C1666.13 382.787 1659.99 401.195 1654.37 418.99C1652.73 424.001 1648.85 427.887 1642.71 427.887H1641.08C1634.94 427.887 1631.06 424.001 1629.42 418.99C1628.91 416.228 1627.79 413.467 1626.66 410.604C1618.28 383.298 1609.39 356.606 1601.1 329.403L1574.93 246.464C1573.81 243.703 1573.3 240.942 1572.17 237.567C1571.66 237.567 1571.66 237.056 1571.66 236.442L1570.54 234.192V233.681C1570.02 232.045 1568.9 230.92 1568.29 229.795C1567.95 229.454 1567.78 229.079 1567.78 228.67L1563.89 224.784C1563.38 224.784 1563.38 224.272 1562.77 224.272C1562.43 223.931 1562.05 223.761 1561.64 223.761C1560.52 222.636 1559.39 222.125 1558.27 221.511C1558.27 221 1557.76 221 1557.14 221L1556.63 220.488C1555 219.977 1553.26 219.977 1551.11 219.977H1543.85C1542.22 219.977 1541.09 219.977 1539.35 221.102H1538.23L1537.72 221.613C1536.59 222.125 1534.96 222.738 1533.83 223.863C1531.58 225.5 1530.46 226.625 1529.34 228.363C1528.99 228.363 1528.62 228.533 1528.21 228.874C1527.7 229.999 1526.58 231.124 1525.96 232.249C1525.45 233.374 1524.84 235.624 1524.84 235.624C1524.84 236.749 1524.33 237.26 1524.33 238.385C1523.81 238.897 1523.81 241.76 1523.2 241.76V246.771C1523.2 246.771 1524.33 250.657 1524.33 251.169C1524.33 251.169 1524.33 251.68 1524.84 252.294V252.805C1524.84 253.93 1525.35 255.566 1525.96 256.691C1528.21 264.463 1530.97 271.724 1533.22 278.985C1542.11 306.802 1550.5 334.005 1558.78 361.311C1569.31 394.139 1579.94 426.353 1590.47 458.669C1597.73 482.6 1605.5 506.53 1613.27 530.972C1614.4 535.472 1616.03 540.381 1617.77 544.881V546.006C1617.77 546.517 1617.77 547.131 1618.28 547.131V547.642C1619.4 548.767 1619.92 550.403 1621.04 552.142L1621.55 552.653C1621.55 553.164 1622.06 553.164 1622.68 553.778C1623.19 554.903 1624.31 555.414 1625.44 556.028L1625.95 557.153C1628.2 558.278 1629.83 559.403 1631.47 559.914C1631.98 560.425 1632.59 560.425 1633.1 560.425C1634.23 560.937 1635.86 561.55 1637.6 561.55C1638.11 562.062 1638.73 562.062 1639.85 562.062H1644.25C1644.76 562.062 1645.37 562.062 1645.88 561.55H1646.39C1648.03 561.55 1649.15 561.039 1650.89 560.425C1651.4 560.425 1652.02 560.425 1652.02 559.914H1653.14C1654.27 558.789 1655.39 558.278 1657.03 557.664C1657.54 557.153 1658.15 556.539 1658.66 556.539C1659.79 556.028 1660.3 554.903 1661.42 553.778C1661.42 553.267 1661.93 552.653 1662.55 552.142L1663.06 551.63C1663.57 551.119 1665.82 546.108 1666.43 546.108V544.983L1668.07 539.972C1670.83 530.563 1674.2 520.541 1676.96 509.905C1687.49 478.714 1697.51 447.011 1707.53 415.308C1713.05 397.513 1718.67 379.719 1724.81 361.311C1726.44 355.788 1730.94 352.925 1735.95 352.925C1740.45 352.925 1745.36 355.686 1747.1 361.311L1747.61 361.822C1753.74 381.866 1760.39 402.422 1767.03 422.467C1777.05 454.17 1786.46 484.747 1796.48 515.939C1799.24 524.836 1802 533.734 1804.86 542.119C1804.86 543.244 1805.37 543.756 1805.37 544.881V545.392C1805.88 545.903 1806.49 546.517 1806.49 547.642C1807.01 547.642 1807.01 548.767 1807.62 549.278C1808.13 550.403 1808.74 550.914 1809.26 552.039C1810.89 553.164 1810.89 554.289 1812.02 555.414C1812.53 555.926 1815.39 557.664 1814.26 557.051C1814.78 557.051 1819.27 559.812 1819.27 559.812C1820.91 560.323 1822.03 560.937 1823.67 561.448H1825.92C1827.04 561.959 1827.56 561.959 1829.29 561.959C1835.94 561.959 1840.95 566.97 1840.95 573.106C1840.95 580.367 1835.94 585.379 1828.68 585.379C1811.4 585.379 1796.48 575.97 1787.48 561.448C1785.84 558.073 1784.11 554.801 1782.98 550.914L1781.35 546.517C1777.97 535.983 1775.21 525.961 1771.84 515.939C1761.31 484.747 1751.8 453.658 1741.78 421.955C1739.53 415.308 1737.28 409.172 1735.65 403.036C1727.26 428.091 1719.49 453.658 1711.72 478.714C1704.46 502.133 1696.69 525.45 1689.44 548.256C1683.91 571.061 1663.88 585.481 1640.47 585.481C1619.3 585.481 1600.39 571.061 1594.36 551.017C1589.86 536.597 1584.85 522.689 1580.45 508.167C1571.05 478.1 1561.54 448.033 1552.13 418.58C1542.11 387.389 1532.1 355.175 1522.08 323.472C1515.94 304.041 1509.3 283.383 1502.65 263.339C1499.28 253.316 1498.15 243.294 1500.4 232.761L1500.91 232.658Z" fill="#69E3E3"/>
<path d="M2238.95 510.212C2246.72 521.871 2249.48 536.904 2245.59 549.687C2241.71 563.084 2232.2 574.743 2220.04 580.879C2212.27 583.64 2204.5 585.379 2196.11 585.379H2047.67C2020.98 585.379 2000.43 565.948 1998.19 539.256V433.512C1998.19 427.375 2003.71 421.853 2010.45 421.853H2152.25C2153.38 421.342 2154.5 421.342 2155.63 421.342C2156.14 420.83 2156.75 420.217 2157.26 420.83V420.319C2158.39 419.808 2160.02 419.194 2161.15 418.683C2161.66 418.171 2162.27 417.558 2162.78 417.046C2163.91 415.922 2165.03 415.41 2166.16 414.285C2166.67 413.774 2168.41 412.035 2168.41 412.035C2168.92 411.524 2168.92 410.399 2169.53 409.785C2170.04 408.66 2170.66 408.149 2170.66 407.024C2171.78 405.388 2172.29 402.627 2172.29 400.377V394.854C2172.29 394.343 2171.78 392.093 2171.78 391.48C2171.27 390.355 2171.27 389.23 2170.66 388.718C2170.66 388.207 2170.15 387.082 2170.15 386.468C2169.63 384.832 2168.51 383.707 2167.38 382.071C2167.38 381.56 2166.87 380.946 2166.26 380.435C2165.14 379.923 2164.01 379.31 2162.89 378.185L2162.38 377.673C2160.74 376.549 2159 376.037 2157.88 374.912H2157.37C2156.85 374.401 2156.24 374.401 2155.73 374.401C2154.61 373.89 2153.48 373.276 2152.36 373.276C2151.84 373.276 2151.23 373.276 2151.23 372.765H2010.56C2003.91 372.765 1998.29 368.265 1998.29 361.106V244.828C1998.29 218.136 2019.96 196.456 2046.65 196.456H2194.58C2214.62 196.456 2233.53 203.717 2242.43 223.147C2248.56 237.056 2249.07 252.089 2242.94 265.384C2234.66 284.815 2215.13 293.201 2195.09 293.201H2095V321.529C2094.49 328.176 2089.48 333.187 2083.35 333.187C2076.7 333.187 2071.08 328.176 2071.08 321.529V280.929C2071.08 274.793 2077.21 269.781 2083.35 269.781H2198.98C2199.49 269.781 2200.1 269.27 2200.61 269.27H2202.86C2204.5 268.759 2205.62 268.759 2207.36 268.145C2207.87 268.145 2208.48 267.634 2208.99 267.634C2210.12 267.122 2211.75 266.509 2212.37 265.384C2212.88 264.873 2215.13 263.134 2215.13 263.748C2215.64 262.623 2216.76 262.111 2217.38 261.498C2217.99 260.884 2219.63 258.736 2219.63 259.248C2220.14 258.123 2220.75 257.612 2221.26 256.487C2221.26 255.975 2222.39 253.725 2221.77 253.725C2222.29 253.214 2222.9 252.089 2222.9 250.964C2223.41 249.839 2224.02 248.714 2224.02 247.078V241.556C2223.68 241.215 2223.51 240.84 2223.51 240.431C2223.51 239.919 2223.51 238.794 2223 238.181C2223 237.669 2222.49 237.056 2222.49 235.931C2221.98 235.419 2221.36 233.681 2221.36 233.17C2220.85 232.045 2220.24 230.408 2219.12 229.283L2217.48 228.159C2216.97 227.034 2215.84 225.909 2214.72 225.397L2214.21 224.886C2213.87 224.545 2213.49 224.375 2213.08 224.375C2212.57 223.25 2210.83 222.738 2209.71 222.125L2209.2 221.613C2208.69 221.613 2208.07 221.102 2207.56 221.102C2205.93 220.591 2204.8 220.591 2203.68 220.591H2040.2C2039.08 221.102 2037.95 221.102 2037.44 221.716C2036.32 222.227 2035.19 222.841 2034.07 223.352C2033.56 223.863 2032.43 224.477 2031.82 224.988C2031.82 225.5 2030.19 226.625 2029.57 227.238C2028.45 227.749 2027.94 228.874 2027.32 229.488C2026.81 231.124 2025.07 233.374 2023.95 234.499C2023.95 235.624 2023.44 236.749 2022.82 237.26C2022.82 238.385 2022.31 239.51 2022.31 240.635C2022.31 241.147 2021.8 244.01 2021.8 244.521V349.652H2146.32C2154.71 349.652 2162.48 351.288 2170.25 354.663C2181.9 361.311 2191.92 373.071 2195.29 386.98C2198.06 399.763 2195.81 414.797 2187.53 425.944C2175.87 442.102 2161.97 446.5 2142.44 446.5H2021.8V540.483C2022.31 540.995 2022.31 541.608 2022.31 542.12C2022.31 543.244 2023.44 546.619 2023.95 547.642C2025.07 549.278 2026.2 551.017 2027.32 552.653C2027.83 553.778 2028.45 554.289 2028.96 554.903C2029.47 556.028 2030.59 556.539 2031.72 557.153C2032.23 557.664 2032.84 558.278 2033.35 558.278C2034.48 559.403 2036.11 559.914 2036.73 560.528H2037.24C2037.75 561.039 2038.36 561.039 2039.49 561.653C2040.61 561.653 2042.25 562.164 2043.37 562.164C2043.88 562.675 2044.5 562.675 2045.01 562.675H2200.71C2201.22 562.675 2202.35 562.675 2202.96 562.164C2204.09 562.164 2205.21 561.653 2206.85 561.653C2207.36 561.141 2207.97 561.141 2209.1 560.528C2210.22 560.016 2211.86 559.403 2212.47 558.278C2212.98 558.278 2215.23 556.641 2215.23 556.641C2215.74 556.13 2216.36 555.517 2216.87 555.005C2217.38 554.494 2218.5 553.88 2219.12 553.369V552.858C2220.24 551.733 2220.75 550.608 2221.36 550.096C2221.36 548.971 2222.49 546.722 2221.88 547.335C2223 546.21 2223.51 543.449 2223.51 541.813C2223.51 541.813 2224.02 541.301 2224.02 540.688V534.552H2223.51V532.302C2223 531.791 2221.26 526.779 2221.26 526.166C2220.75 525.041 2219.63 523.916 2219.01 523.405V522.893L2214.52 518.394C2213.39 517.882 2213.39 517.269 2212.88 517.269C2212.37 516.757 2211.24 515.632 2209.51 515.019H2207.87L2203.37 513.382H2083.25C2076.6 513.382 2070.98 507.86 2070.98 501.11V473.805C2070.98 467.669 2077.11 462.658 2083.25 462.658C2089.38 462.658 2094.9 467.669 2094.9 474.316V489.349H2202.76C2217.79 490.986 2230.57 498.247 2238.95 511.03V510.212Z" fill="white"/>
<path d="M2279.54 241.044C2282.3 215.477 2301.82 195.944 2327.89 195.944C2353.96 195.944 2376.25 218.239 2376.25 244.93V461.84C2376.25 467.976 2370.73 472.987 2363.98 472.987C2357.85 472.987 2352.84 467.976 2352.84 461.328V241.044C2352.33 240.533 2352.33 239.919 2352.33 238.794C2351.82 237.669 2351.2 236.033 2350.69 234.908V234.397C2350.69 233.885 2350.18 233.272 2349.57 232.761C2349.06 231.636 2348.44 229.999 2347.32 228.874C2346.98 228.533 2346.6 228.363 2346.19 228.363C2345.68 227.238 2345.07 226.113 2343.95 224.988C2343.43 224.988 2342.82 224.477 2342.31 223.863H2341.8C2340.67 222.738 2339.55 222.227 2337.91 221.613L2337.4 221.102H2336.89V220.591C2335.26 220.591 2334.13 220.079 2332.39 220.079H2329.63C2329.12 220.079 2328 219.568 2326.26 220.079H2324.62C2322.99 220.079 2321.86 220.079 2320.74 220.591C2320.23 220.591 2319.1 221.102 2318.49 221.102C2316.85 221.613 2315.73 222.227 2314.6 223.352C2314.09 223.863 2312.35 225.602 2312.35 224.988C2311.84 226.113 2310.72 226.625 2310.11 227.238L2308.47 228.874H2307.96L2306.32 232.249C2305.81 232.76 2304.69 236.135 2304.69 235.01C2304.69 235.522 2303.56 240.022 2303.56 240.022V488.736H2458.76C2464.28 488.736 2469.9 489.861 2475.42 490.986C2488.71 495.486 2499.34 504.894 2505.48 517.678C2511 531.075 2511 546.619 2503.84 559.914C2497.71 572.186 2485.54 581.595 2472.15 583.845C2466.63 585.481 2461 585.481 2455.48 585.481H2291.4C2285.26 585.481 2279.74 579.958 2279.74 573.209C2279.74 567.073 2285.26 562.062 2292.01 562.062H2464.38C2464.38 561.55 2466.63 561.55 2467.14 560.937C2468.26 560.937 2469.39 560.425 2470.51 560.425C2470.51 559.914 2471.02 559.914 2471.64 559.914C2472.15 559.403 2472.76 558.789 2473.27 558.789C2474.4 558.278 2475.52 557.153 2476.65 556.539C2477.16 556.028 2477.77 556.028 2477.77 555.414C2478.9 554.289 2480.02 553.778 2481.14 552.653V552.142C2481.14 551.63 2481.66 551.017 2481.66 550.505C2482.17 549.994 2484.42 546.619 2484.42 545.494C2484.93 543.858 2485.54 542.733 2486.05 540.483V533.836C2485.54 533.836 2485.54 533.324 2485.54 532.711C2485.54 531.586 2485.03 530.461 2484.42 529.336C2484.42 528.825 2483.91 527.7 2483.91 527.086C2483.39 525.961 2482.27 524.836 2481.66 523.2C2481.32 522.859 2481.14 522.484 2481.14 522.075C2480.02 520.95 2479.51 519.825 2478.38 518.7C2477.26 518.189 2476.75 517.575 2476.14 517.064C2475.01 516.553 2473.89 515.428 2472.76 514.814C2472.25 514.814 2471.64 514.814 2471.13 514.303C2469.49 513.791 2468.37 513.791 2467.24 513.178C2466.12 513.178 2465.61 512.666 2464.48 512.666H2291.5C2285.36 512.666 2279.84 506.53 2279.84 500.394V256.18C2279.84 251.169 2279.33 246.158 2279.84 241.147L2279.54 241.044Z" fill="#69E3E3"/>
<path d="M2532.06 304.961H2553.22C2554.35 304.45 2555.98 304.45 2557.72 304.45H2558.23C2559.35 304.45 2560.48 303.939 2560.99 303.939C2564.36 303.427 2567.64 302.814 2571.01 301.689C2574.38 301.177 2577.65 300.053 2581.03 298.314C2582.15 298.314 2582.66 297.803 2583.28 297.803L2583.79 297.291C2584.91 296.78 2586.55 296.166 2587.67 295.655C2594.32 292.894 2600.45 289.008 2607.1 284.508V283.997H2607.61L2608.73 282.36C2613.74 278.985 2618.75 276.224 2624.27 273.463C2632.04 270.088 2640.94 268.963 2649.32 268.963C2669.36 268.963 2683.26 275.611 2697.17 289.519C2698.29 291.769 2699.93 293.405 2701.05 295.041C2701.05 295.041 2701.05 296.166 2701.56 296.678H2702.07C2703.2 298.314 2704.32 299.439 2705.96 300.564C2705.96 301.075 2707.6 302.2 2708.21 302.2C2709.33 303.325 2710.46 303.836 2711.58 303.836C2712.71 304.348 2713.22 304.348 2713.83 304.961C2714.96 304.961 2716.08 305.473 2717.21 305.473H2717.72C2718.84 305.984 2719.97 305.984 2721.09 305.984H2726.1V305.473C2727.22 305.473 2728.86 304.961 2730.6 304.348C2731.11 304.859 2731.72 304.348 2732.23 303.836C2733.87 303.325 2735.61 302.711 2736.73 301.586C2737.24 301.075 2741.74 296.575 2742.25 296.575C2742.25 296.064 2742.76 295.45 2742.76 294.939C2743.28 294.428 2743.89 293.303 2744.4 292.178C2744.91 291.667 2744.91 291.053 2744.91 290.542C2745.42 289.417 2746.55 285.531 2746.55 284.406V278.883C2746.55 278.372 2746.04 277.247 2746.04 276.633C2745.52 275.508 2745.52 273.872 2744.91 272.747C2744.4 272.236 2744.4 271.622 2743.79 271.111C2742.15 268.35 2740.41 264.975 2738.27 262.214L2737.14 261.089C2736.63 260.577 2736.02 259.964 2736.02 259.452C2734.89 258.327 2734.38 256.691 2732.64 254.953C2729.88 252.703 2727.12 249.43 2724.26 246.567C2722.62 245.442 2721.5 244.93 2719.76 243.805L2717.51 241.556C2711.99 237.158 2706.37 233.783 2700.23 230.408C2698.6 229.897 2696.35 228.772 2694.71 228.159H2694.2C2693.08 228.159 2692.57 227.647 2692.57 227.647C2689.19 226.011 2685.31 224.886 2682.55 223.761C2678.66 222.636 2675.9 222.125 2672.02 221C2671.51 221 2665.88 220.488 2665.88 219.875H2663.63C2658.62 219.364 2653.1 219.364 2648.09 219.364H2641.45C2638.69 219.364 2636.44 219.875 2634.19 219.875C2633.68 219.875 2631.94 220.386 2632.55 220.386H2630.92C2623.66 221.511 2615.38 223.147 2608.63 226.522L2603.62 228.159H2602.5C2601.99 228.67 2600.86 228.67 2600.25 229.283C2594.11 232.658 2587.47 235.931 2581.95 240.431C2581.44 240.431 2578.57 242.681 2578.57 243.192C2576.94 244.317 2575.81 245.442 2574.69 246.567C2571.93 248.817 2569.68 251.578 2566.92 253.828C2566.41 255.464 2564.67 257.202 2563.55 258.839C2563.04 258.839 2562.42 259.35 2562.42 259.964L2561.3 261.089C2559.66 263.85 2557.41 266.611 2556.29 269.986C2554.04 272.747 2552.4 276.122 2550.77 279.394C2550.26 280.519 2550.26 281.644 2549.64 282.156C2549.64 283.792 2549.13 285.531 2548.52 286.553C2546.88 292.076 2542.38 295.45 2536.86 295.45C2535.74 295.45 2534.61 295.45 2533.49 294.939C2527.97 293.814 2524.08 286.553 2525.11 280.519C2545.14 226.011 2591.87 195.944 2649.73 195.944C2683.06 195.944 2715.37 208.216 2740.41 229.897C2746.55 236.033 2752.07 242.169 2757.69 248.817C2761.58 254.339 2766.07 261.089 2768.22 268.247C2775.99 293.303 2759.94 321.631 2734.28 328.381C2730.39 328.892 2726.51 329.506 2722.01 329.506C2706.98 329.506 2694.2 324.494 2684.8 312.836C2683.16 311.2 2682.04 309.461 2680.91 307.314C2680.4 306.802 2678.66 304.552 2678.66 304.552C2677.54 302.916 2675.9 301.177 2674.27 300.053C2674.27 300.053 2672.02 298.416 2671.51 298.416C2669.87 297.291 2668.75 296.78 2667.01 295.655H2666.5C2665.99 295.655 2665.37 295.655 2664.25 295.144C2664.25 295.144 2656.48 292.894 2655.86 292.894H2643.09C2642.57 292.894 2641.96 292.894 2641.96 293.405C2638.59 293.405 2635.83 294.53 2633.58 295.655H2630.82L2630.31 296.166C2629.18 296.678 2627.55 297.291 2626.42 298.416C2625.91 298.416 2625.3 298.928 2625.3 299.541C2623.05 301.177 2621.41 302.916 2619.16 303.939C2613.64 308.438 2607.51 312.325 2600.86 315.086C2586.96 322.347 2571.42 326.744 2555.27 328.483C2551.38 328.483 2548.01 328.994 2544.12 328.994V331.755C2544.12 334.005 2545.25 337.278 2545.76 339.016C2546.27 342.391 2547.39 345.664 2548.52 349.039C2548.52 350.675 2549.03 351.8 2549.64 353.538C2550.15 353.538 2550.15 354.05 2550.15 354.663C2550.66 355.788 2551.28 356.3 2551.28 357.425C2552.91 360.186 2554.65 362.947 2556.8 365.811L2559.56 370.822C2559.56 371.333 2560.07 371.333 2560.68 371.946L2561.19 372.458C2563.44 375.219 2565.59 377.98 2567.84 379.719L2576.22 388.105H2576.73C2577.25 388.616 2578.37 389.23 2578.98 389.23L2583.48 392.605C2590.13 396.491 2596.77 399.866 2603.52 403.138C2604.03 403.138 2604.64 403.138 2605.16 403.649C2605.67 403.649 2606.79 404.161 2607.41 404.774C2608.53 404.774 2610.78 405.286 2612.41 405.899C2615.79 407.024 2618.55 408.66 2622.43 409.785C2635.83 413.672 2650.24 417.558 2663.63 422.058C2674.78 426.557 2685.92 430.955 2694.82 438.727C2700.34 443.738 2703.71 449.874 2704.84 456.522C2706.47 464.294 2707.08 472.68 2703.71 480.452C2695.33 502.133 2673.14 512.155 2650.86 512.155C2634.7 512.155 2615.79 506.633 2604.64 494.361C2602.4 490.986 2599.64 488.225 2598 484.952C2597.49 484.952 2597.49 484.441 2596.87 484.441C2596.87 483.929 2596.36 483.929 2596.36 483.316C2595.24 482.191 2594.11 481.066 2592.48 480.554V480.043H2591.97C2591.46 479.532 2590.84 478.918 2590.33 478.918C2589.82 478.407 2588.7 477.793 2588.08 477.282C2587.74 477.282 2587.37 477.111 2586.96 476.771C2585.83 476.771 2584.71 476.259 2583.58 476.259C2583.07 475.748 2582.46 475.748 2581.95 475.748H2581.44C2580.31 475.237 2578.68 475.237 2577.55 475.237C2575.92 475.237 2574.79 475.237 2573.67 475.748H2572.03C2570.91 476.259 2569.78 476.259 2568.15 476.873C2567.64 476.873 2567.02 477.384 2566.51 477.384C2566 477.896 2564.88 479.02 2563.75 479.634C2563.24 480.145 2562.63 480.145 2562.11 480.759C2560.99 480.759 2560.48 481.884 2559.35 482.395C2558.84 482.907 2557.72 485.77 2557.72 485.157C2557.21 485.668 2556.59 486.282 2556.59 487.407C2556.08 488.531 2555.47 489.656 2554.96 490.168C2554.62 490.509 2554.45 490.883 2554.45 491.293C2553.94 492.929 2553.32 494.054 2553.32 495.792C2553.32 496.304 2552.81 496.304 2552.81 496.917V500.804C2552.81 501.315 2553.94 506.326 2553.94 506.326C2553.94 507.451 2554.45 508.576 2555.06 509.087C2556.19 511.337 2557.31 513.587 2558.43 515.223C2559.56 517.473 2561.19 519.109 2562.32 520.746V521.257H2562.83L2564.47 522.893C2566.72 526.268 2569.48 529.029 2572.24 531.279C2575 534.04 2577.76 536.29 2580.62 539.051C2581.13 539.563 2581.74 539.563 2582.26 539.563C2582.26 540.074 2582.77 540.074 2583.38 540.688C2584.5 542.938 2601.68 551.835 2604.54 552.96L2606.79 554.085C2607.92 554.596 2608.43 554.596 2609.04 555.21L2614.05 556.335C2619.06 559.096 2627.95 560.221 2633.48 561.346H2637.36C2640.12 562.471 2648.5 562.471 2651.26 562.471C2655.76 562.471 2659.65 561.959 2664.04 561.346H2666.29C2666.8 561.346 2667.42 560.834 2667.42 560.834C2669.05 560.834 2670.79 560.323 2672.43 560.323C2675.8 559.812 2679.07 558.687 2682.45 558.073C2685.21 556.948 2689.09 556.437 2692.46 555.312C2693.59 554.801 2695.22 554.187 2696.35 553.062H2696.86C2697.37 553.062 2697.99 552.551 2699.11 552.551C2704.63 549.176 2710.25 546.415 2716.39 542.529C2717.51 541.404 2719.15 540.279 2720.27 539.767C2720.78 539.256 2721.91 538.642 2722.52 538.131L2729.17 531.484C2731.93 529.234 2734.18 526.473 2736.43 523.098C2736.94 523.098 2737.55 522.586 2737.55 521.973C2741.44 516.962 2743.68 512.564 2746.45 507.553C2747.57 506.428 2748.08 505.303 2748.69 503.667C2749.21 503.156 2749.21 502.542 2749.82 502.031C2749.82 501.519 2749.82 500.906 2750.33 500.906C2751.97 494.258 2754.21 488.122 2755.34 480.861V480.35C2755.34 479.225 2755.85 478.1 2755.85 477.589V472.578C2756.36 469.203 2756.36 465.93 2755.85 462.555C2755.85 460.306 2755.85 458.669 2755.34 456.419V454.17C2754.83 450.795 2754.21 447.522 2753.09 444.761C2752.58 441.386 2751.97 438.113 2750.84 435.352C2750.33 434.227 2750.33 433.102 2749.72 431.977C2749.21 431.466 2748.59 429.728 2748.08 429.216C2745.32 423.694 2742.56 418.069 2738.57 413.672C2738.57 413.16 2738.06 413.16 2738.06 412.547L2736.43 410.91C2735.3 409.785 2734.79 408.66 2733.67 407.536C2731.42 405.286 2729.17 403.138 2726.41 400.888C2725.28 399.763 2723.65 398.638 2722.52 397.002H2722.01C2721.5 397.002 2720.37 396.491 2719.76 395.877C2717 393.627 2713.63 391.377 2710.36 389.741C2707.6 388.105 2704.22 385.855 2700.95 384.219C2699.31 383.707 2697.58 382.582 2695.43 381.969C2694.92 381.457 2694.3 381.457 2693.18 380.844C2693.18 380.332 2692.67 380.332 2692.06 380.332C2684.8 377.571 2678.15 375.321 2671.51 372.56C2664.86 370.924 2657.6 369.185 2650.96 366.424C2636.54 362.027 2622.54 354.766 2611.49 344.743C2607.1 340.244 2607.61 332.471 2611.49 328.074C2613.74 325.824 2617.02 324.699 2619.88 324.699C2622.74 324.699 2626.01 325.824 2628.26 328.074C2629.39 329.199 2630.51 330.324 2632.15 330.835C2632.66 331.346 2633.27 331.346 2633.78 331.96C2636.03 333.596 2638.79 335.846 2641.55 336.971C2643.8 338.607 2646.56 339.732 2649.94 340.857C2650.45 341.369 2651.06 341.369 2651.06 341.982H2651.57C2652.7 342.494 2654.33 343.107 2655.46 343.618C2669.36 348.118 2683.77 352.004 2697.17 357.016C2712.71 363.152 2726.61 371.537 2740 380.946C2761.17 398.229 2775.07 423.183 2778.34 450.488C2780.59 466.033 2779.98 481.679 2776.71 496.713C2761.17 552.346 2706.68 586.299 2649.94 586.299C2604.85 586.299 2570.4 566.868 2542.08 532.915C2538.19 527.393 2533.69 521.257 2532.06 514.507C2524.29 488.94 2539.83 459.999 2565.39 453.863C2569.27 452.738 2573.77 452.226 2578.17 452.226C2588.18 452.226 2598.2 454.988 2605.97 461.124C2609.35 463.374 2612.11 466.135 2614.87 468.896C2616.5 471.146 2617.63 472.782 2618.75 474.418C2619.26 474.93 2621 477.18 2621 477.18L2626.01 481.679C2626.01 481.679 2627.65 483.316 2628.26 483.316C2629.9 484.441 2631.02 484.952 2632.76 486.077C2633.1 486.077 2633.48 486.247 2633.88 486.588C2634.4 486.588 2635.01 486.588 2635.52 487.1C2637.16 487.611 2638.89 487.611 2640.53 488.225C2641.65 488.225 2643.29 488.736 2644.41 489.349H2658.32C2660.57 488.838 2663.84 487.713 2666.7 487.1C2667.21 486.588 2668.34 486.588 2668.34 485.975H2668.85C2670.48 484.85 2671.61 484.338 2673.35 483.725C2673.86 483.214 2674.98 482.6 2676.11 482.089C2676.11 481.577 2677.23 480.452 2677.74 479.839C2678.87 479.327 2679.38 478.202 2679.99 477.589H2680.5V477.077L2682.14 473.703C2682.14 473.703 2682.65 473.191 2682.65 472.578C2682.65 472.578 2683.16 471.453 2683.16 470.941V463.68C2683.16 462.555 2682.65 461.43 2682.65 460.919C2682.65 460.408 2682.14 460.408 2682.14 459.794V459.283C2681.63 459.283 2681.63 458.772 2681.01 458.158C2680.5 457.033 2679.38 456.522 2678.25 455.908V455.397H2677.74C2676.11 453.76 2674.37 453.147 2672.73 452.022C2669.97 450.897 2668.24 449.261 2665.47 448.136C2664.96 448.136 2664.35 448.136 2664.35 447.624H2663.23C2662.1 447.113 2660.47 446.5 2659.34 445.988C2651.57 443.227 2644.31 440.977 2637.05 439.341C2608.12 430.443 2578.06 421.546 2555.27 400.377C2531.96 379.207 2520.81 348.629 2520.81 318.052C2520.81 311.404 2525.82 305.779 2532.47 305.779L2532.06 304.961Z" fill="#69E3E3"/>
<path d="M131.474 0H95.3854V36.1004H131.474V0Z" fill="#F1C421"/>
<path d="M179.32 0H143.231V36.1004H179.32V0Z" fill="#F1C421"/>
<path d="M227.167 0H191.078V36.1004H227.167V0Z" fill="#F1C421"/>
<path d="M275.013 0H238.924V36.1004H275.013V0Z" fill="#F1C421"/>
<path d="M83.9351 50.3154H47.8461V86.4158H83.9351V50.3154Z" fill="#F1C421"/>
<path d="M131.474 50.3154H95.3854V86.4158H131.474V50.3154Z" fill="#F1C421"/>
<path d="M179.116 50.3154H143.027V86.4158H179.116V50.3154Z" fill="#F1C421"/>
<path d="M226.757 50.3154H190.668V86.4158H226.757V50.3154Z" fill="#F1C421"/>
<path d="M274.399 50.3154H238.31V86.4158H274.399V50.3154Z" fill="#F1C421"/>
<path d="M321.938 50.3154H285.849V86.4158H321.938V50.3154Z" fill="#F1C421"/>
<path d="M369.58 50.3154H333.491V86.4158H369.58V50.3154Z" fill="#F1C421"/>
<path d="M417.222 50.3154H381.133V86.4158H417.222V50.3154Z" fill="#F1C421"/>
<path d="M464.863 50.3154H428.774V86.4158H464.863V50.3154Z" fill="#F1C421"/>
<path d="M512.402 50.3154H476.313V86.4158H512.402V50.3154Z" fill="#F1C421"/>
<path d="M83.9351 100.529H47.8461V136.629H83.9351V100.529Z" fill="#F1C421"/>
<path d="M131.474 100.529H95.3854V136.629H131.474V100.529Z" fill="#F1C421"/>
<path d="M179.116 100.529H143.027V136.629H179.116V100.529Z" fill="#F1C421"/>
<path d="M226.757 100.529H190.668V136.629H226.757V100.529Z" fill="#F1C421"/>
<path d="M274.399 100.529H238.31V136.629H274.399V100.529Z" fill="#F1C421"/>
<path d="M321.938 100.529H285.849V136.629H321.938V100.529Z" fill="#F1C421"/>
<path d="M417.222 100.529H333.491V185.922H417.222V100.529Z" fill="#1EA3C0"/>
<path d="M464.863 100.529H428.774V136.629H464.863V100.529Z" fill="#F1C421"/>
<path d="M512.402 100.529H476.313V136.629H512.402V100.529Z" fill="#F1C421"/>
<path d="M83.9351 149.822H47.8461V185.922H83.9351V149.822Z" fill="#F1C421"/>
<path d="M131.474 149.822H95.3854V185.922H131.474V149.822Z" fill="#F1C421"/>
<path d="M179.116 149.822H143.027V185.922H179.116V149.822Z" fill="#F1C421"/>
<path d="M226.757 149.822H190.668V185.922H226.757V149.822Z" fill="#F1C421"/>
<path d="M179.116 299.541H143.027V335.641H179.116V299.541Z" fill="#F1C421"/>
<path d="M226.757 299.541H190.668V335.641H226.757V299.541Z" fill="#F1C421"/>
<path d="M274.399 149.822H238.31V185.922H274.399V149.822Z" fill="#F1C421"/>
<path d="M321.938 149.822H285.849V185.922H321.938V149.822Z" fill="#F1C421"/>
<path d="M321.938 200.035H285.849V236.136H321.938V200.035Z" fill="#F1C421"/>
<path d="M321.938 249.328H285.849V285.428H321.938V249.328Z" fill="#F1C421"/>
<path d="M369.58 149.822H333.491V185.922H369.58V149.822Z" fill="#1EA3C0"/>
<path d="M464.863 149.822H428.774V185.922H464.863V149.822Z" fill="#F1C421"/>
<path d="M512.402 149.822H476.313V185.922H512.402V149.822Z" fill="#F1C421"/>
<path d="M559.84 149.822H523.751V185.922H559.84V149.822Z" fill="#F1C421"/>
<path d="M83.9351 200.035H47.8461V236.136H83.9351V200.035Z" fill="#F1C421"/>
<path d="M274.297 200.035H95.3854V285.429H274.297V200.035Z" fill="#1EA3C0"/>
<path d="M369.58 200.035H333.491V236.136H369.58V200.035Z" fill="#F1C421"/>
<path d="M417.222 200.035H381.133V236.136H417.222V200.035Z" fill="#F1C421"/>
<path d="M464.863 200.035H428.774V236.136H464.863V200.035Z" fill="#F1C421"/>
<path d="M512.402 200.035H476.313V236.136H512.402V200.035Z" fill="#F1C421"/>
<path d="M512.505 249.328H428.774V432.591H512.505V249.328Z" fill="#1EA3C0"/>
<path d="M559.84 200.035H523.751V236.136H559.84V200.035Z" fill="#F1C421"/>
<path d="M607.481 200.035H571.392V236.136H607.481V200.035Z" fill="#F1C421"/>
<path d="M559.84 250.249H523.751V286.349H559.84V250.249Z" fill="#F1C421"/>
<path d="M607.481 250.249H571.392V286.349H607.481V250.249Z" fill="#F1C421"/>
<path d="M559.84 299.541H523.751V335.641H559.84V299.541Z" fill="#F1C421"/>
<path d="M607.481 299.541H571.392V335.641H607.481V299.541Z" fill="#F1C421"/>
<path d="M655.123 299.541H619.034V335.641H655.123V299.541Z" fill="#F1C421"/>
<path d="M702.764 299.541H666.675V335.641H702.764V299.541Z" fill="#F1C421"/>
<path d="M83.9351 249.328H47.8461V285.428H83.9351V249.328Z" fill="#F1C421"/>
<path d="M36.089 149.822H0V185.922H36.089V149.822Z" fill="#F1C421"/>
<path d="M36.089 200.035H0V236.136H36.089V200.035Z" fill="#F1C421"/>
<path d="M36.089 249.328H0V285.428H36.089V249.328Z" fill="#F1C421"/>
<path d="M131.474 249.328H95.3854V285.428H131.474V249.328Z" fill="#1EA3C0"/>
<path d="M369.58 249.328H333.491V285.428H369.58V249.328Z" fill="#F1C421"/>
<path d="M417.222 249.328H381.133V285.428H417.222V249.328Z" fill="#F1C421"/>
<path d="M512.402 249.328H476.313V285.428H512.402V249.328Z" fill="#1EA3C0"/>
<path d="M83.9351 299.541H47.8461V335.641H83.9351V299.541Z" fill="#F1C421"/>
<path d="M131.474 299.541H95.3854V335.641H131.474V299.541Z" fill="#F1C421"/>
<path d="M274.399 299.541H238.31V335.641H274.399V299.541Z" fill="#F1C421"/>
<path d="M321.938 299.541H285.849V335.641H321.938V299.541Z" fill="#F1C421"/>
<path d="M369.58 299.541H333.491V335.641H369.58V299.541Z" fill="#F1C421"/>
<path d="M417.222 299.541H381.133V335.641H417.222V299.541Z" fill="#F1C421"/>
<path d="M559.84 348.732H523.751V384.832H559.84V348.732Z" fill="#F1C421"/>
<path d="M607.481 348.732H571.392V384.832H607.481V348.732Z" fill="#F1C421"/>
<path d="M655.123 348.732H619.034V384.832H655.123V348.732Z" fill="#F1C421"/>
<path d="M321.938 348.732H285.849V384.832H321.938V348.732Z" fill="#F1C421"/>
<path d="M369.58 348.732H333.491V384.832H369.58V348.732Z" fill="#F1C421"/>
<path d="M417.222 348.732H381.133V384.832H417.222V348.732Z" fill="#F1C421"/>
<path d="M559.84 396.491H523.751V432.591H559.84V396.491Z" fill="#F1C421"/>
<path d="M607.481 396.491H571.392V432.591H607.481V396.491Z" fill="#F1C421"/>
<path d="M321.938 396.491H285.849V432.591H321.938V396.491Z" fill="#F1C421"/>
<path d="M369.58 396.491H333.491V432.591H369.58V396.491Z" fill="#F1C421"/>
<path d="M417.222 396.491H381.133V432.591H417.222V396.491Z" fill="#F1C421"/>
<path d="M500.645 396.491H428.774V432.591H500.645V396.491Z" fill="#1EA3C0"/>
<path d="M512.402 396.491H476.313V432.591H512.402V396.491Z" fill="#1EA3C0"/>
<path d="M559.84 446.704H523.751V482.804H559.84V446.704Z" fill="#F1C421"/>
<path d="M369.58 446.704H333.491V482.804H369.58V446.704Z" fill="#F1C421"/>
<path d="M417.222 446.704H381.133V482.804H417.222V446.704Z" fill="#F1C421"/>
<path d="M464.863 446.704H428.774V482.804H464.863V446.704Z" fill="#F1C421"/>
<path d="M512.402 446.704H476.313V482.804H512.402V446.704Z" fill="#F1C421"/>
<path d="M559.84 496.917H523.751V533.018H559.84V496.917Z" fill="#F1C421"/>
<path d="M369.58 496.917H333.491V533.018H369.58V496.917Z" fill="#F1C421"/>
<path d="M417.222 496.917H381.133V533.018H417.222V496.917Z" fill="#F1C421"/>
<path d="M464.863 496.917H428.774V533.018H464.863V496.917Z" fill="#F1C421"/>
<path d="M512.402 496.917H476.313V533.018H512.402V496.917Z" fill="#F1C421"/>
<path d="M559.84 546.21H523.751V582.311H559.84V546.21Z" fill="#F1C421"/>
<path d="M512.402 496.917H333.491V582.311H512.402V496.917Z" fill="#1EA3C0"/>
<path d="M369.58 596.423H333.491V632.524H369.58V596.423Z" fill="#F1C421"/>
<path d="M417.222 596.423H381.133V632.524H417.222V596.423Z" fill="#F1C421"/>
<path d="M464.863 596.423H428.774V632.524H464.863V596.423Z" fill="#F1C421"/>
<path d="M512.402 596.423H476.313V632.524H512.402V596.423Z" fill="#F1C421"/>
<path d="M369.58 645.716H333.491V681.817H369.58V645.716Z" fill="#F1C421"/>
<path d="M321.938 546.21H285.849V582.311H321.938V546.21Z" fill="#F1C421"/>
<path d="M321.938 596.423H285.849V632.524H321.938V596.423Z" fill="#F1C421"/>
<path d="M321.938 645.716H285.849V681.817H321.938V645.716Z" fill="#F1C421"/>
<path d="M417.222 645.716H381.133V681.817H417.222V645.716Z" fill="#F1C421"/>
<path d="M464.863 645.716H428.774V681.817H464.863V645.716Z" fill="#F1C421"/>
<path d="M512.402 645.716H476.313V681.817H512.402V645.716Z" fill="#F1C421"/>
<path d="M369.58 695.93H333.491V732.03H369.58V695.93Z" fill="#F1C421"/>
<path d="M464.863 695.93H381.133V781.323H464.863V695.93Z" fill="#1EA3C0"/>
<path d="M417.222 745.223H381.133V781.323H417.222V745.223Z" fill="#1EA3C0"/>
<path d="M644.899 645.716H561.169V732.03H644.899V645.716Z" fill="#1EA3C0"/>
<path d="M597.258 745.223H561.169V781.323H597.258V745.223Z" fill="#F1C421"/>
<path d="M487.253 560.835C488.582 562.88 489.093 565.539 488.479 567.789C487.764 570.141 486.128 572.186 483.981 573.311C482.652 573.822 481.221 574.129 479.789 574.129H453.617C448.914 574.129 445.234 570.652 444.927 565.948V547.335C444.927 546.21 445.95 545.29 447.074 545.29H472.122C472.122 545.29 472.531 545.29 472.735 545.29C472.735 545.29 472.94 545.085 473.042 545.29C473.042 545.29 473.553 544.983 473.758 544.881C473.758 544.881 473.962 544.676 474.064 544.574C474.269 544.37 474.473 544.267 474.678 544.063L475.087 543.654C475.087 543.654 475.087 543.347 475.291 543.245C475.291 543.04 475.496 542.938 475.496 542.733C475.7 542.426 475.802 541.915 475.802 541.506V540.483C475.802 540.483 475.802 539.972 475.802 539.87C475.802 539.665 475.802 539.461 475.598 539.358C475.598 539.358 475.598 539.052 475.598 538.949C475.598 538.642 475.291 538.438 475.087 538.131C475.087 538.131 475.087 537.927 474.882 537.824C474.678 537.824 474.473 537.62 474.269 537.415C474.269 537.415 473.655 537.006 473.451 536.802C473.451 536.802 473.246 536.802 473.144 536.802C472.94 536.802 472.735 536.597 472.531 536.597H472.326H447.483C446.256 536.597 445.336 535.779 445.336 534.552V513.996C445.336 509.292 449.119 505.508 453.822 505.508H479.892C483.47 505.508 486.741 506.735 488.377 510.212C489.502 512.667 489.604 515.326 488.377 517.678C486.946 521.155 483.47 522.586 479.892 522.586H462.205V527.598C462.205 528.825 461.183 529.643 460.16 529.643C458.933 529.643 458.013 528.723 458.013 527.598V520.439C458.013 519.314 459.138 518.496 460.16 518.496H480.607C480.607 518.496 480.812 518.496 480.914 518.496H481.323C481.323 518.496 481.834 518.496 482.141 518.291C482.141 518.291 482.345 518.291 482.448 518.291C482.652 518.291 482.959 518.087 483.061 517.882C483.061 517.882 483.572 517.473 483.572 517.575C483.572 517.371 483.879 517.269 483.981 517.166C483.981 517.166 484.39 516.655 484.39 516.757C484.39 516.553 484.594 516.45 484.697 516.246C484.697 516.246 484.901 515.735 484.697 515.735C484.697 515.735 484.901 515.428 484.901 515.223C484.901 515.019 485.106 514.814 485.106 514.507V513.485C485.106 513.485 485.106 513.485 485.106 513.28C485.106 513.076 485.106 512.973 485.106 512.871C485.106 512.871 485.106 512.667 485.106 512.462C485.106 512.462 484.901 512.053 484.901 511.951C484.901 511.746 484.697 511.439 484.492 511.235L484.186 511.03C484.186 511.03 483.879 510.621 483.674 510.519C483.674 510.519 483.674 510.314 483.47 510.314C483.47 510.11 483.061 510.008 482.856 509.905C482.856 509.905 482.652 509.701 482.55 509.701C482.243 509.701 482.039 509.701 481.834 509.701H453.004C453.004 509.701 452.595 509.701 452.493 509.905C452.288 509.905 452.084 510.11 451.879 510.212C451.879 510.212 451.573 510.417 451.47 510.519C451.47 510.519 451.164 510.826 451.061 510.928C450.857 510.928 450.755 511.235 450.652 511.337C450.652 511.644 450.243 512.053 450.039 512.257C450.039 512.462 450.039 512.667 449.835 512.769C449.835 512.973 449.835 513.178 449.835 513.382C449.835 513.382 449.835 513.996 449.835 514.098V532.609H471.815C473.246 532.609 474.678 532.916 476.007 533.529C478.051 534.756 479.789 536.802 480.403 539.256C480.914 541.506 480.403 544.165 479.074 546.108C477.029 548.971 474.575 549.79 471.099 549.79H449.835V566.357C449.835 566.357 449.835 566.562 449.835 566.664C449.835 566.868 450.039 567.482 450.141 567.686C450.346 567.993 450.55 568.3 450.755 568.607C450.755 568.811 450.959 568.914 451.061 569.016C451.061 569.22 451.368 569.323 451.573 569.425C451.573 569.425 451.777 569.63 451.879 569.63C452.084 569.834 452.39 569.936 452.493 570.039C452.493 570.039 452.697 570.039 452.902 570.243C453.106 570.243 453.413 570.243 453.617 570.243C453.617 570.243 453.822 570.243 453.924 570.243H481.425C481.425 570.243 481.732 570.243 481.834 570.243C482.039 570.243 482.243 570.243 482.55 570.243C482.55 570.243 482.754 570.243 482.959 570.039C483.163 569.834 483.47 569.834 483.572 569.63L484.083 569.323C484.083 569.323 484.288 569.118 484.39 569.016C484.39 569.016 484.697 568.811 484.799 568.709C484.799 568.709 485.106 568.198 485.208 568.096C485.208 567.891 485.412 567.482 485.208 567.584C485.412 567.38 485.515 566.868 485.515 566.561C485.515 566.561 485.515 566.561 485.515 566.357V565.232V564.823C485.515 564.823 485.106 563.8 485.106 563.698C485.106 563.493 484.799 563.289 484.697 563.187L483.879 562.266C483.674 562.266 483.674 562.062 483.572 562.062C483.572 562.062 483.265 561.755 482.959 561.653H482.652L481.834 561.346H460.671C459.445 561.346 458.524 560.323 458.524 559.198V554.392C458.524 553.267 459.649 552.449 460.671 552.449C461.694 552.449 462.716 553.369 462.716 554.494V557.153H481.732C484.39 557.46 486.639 558.687 488.07 560.937L487.253 560.835Z" fill="#010C23"/>
<path d="M582.331 673.022H586.012C586.012 673.022 586.523 673.022 586.83 673.022C586.83 673.022 587.239 673.022 587.341 673.022C587.954 673.022 588.568 672.817 589.079 672.613C589.692 672.613 590.306 672.306 590.817 671.999C591.021 671.999 591.124 671.999 591.226 671.999C591.226 671.999 591.737 671.692 591.942 671.59C593.168 671.079 594.191 670.363 595.418 669.647L595.622 669.34C596.542 668.727 597.36 668.215 598.382 667.806C599.711 667.193 601.347 666.988 602.778 666.988C606.254 666.988 608.708 668.215 611.264 670.567C611.468 670.977 611.775 671.283 611.98 671.59C611.98 671.59 611.98 671.795 611.98 671.897C611.98 671.897 612.389 672.408 612.695 672.613C612.695 672.613 613.002 672.92 613.104 672.92C613.309 673.124 613.513 673.226 613.718 673.226C613.922 673.226 614.024 673.226 614.127 673.431C614.331 673.431 614.535 673.431 614.74 673.431C614.74 673.431 615.149 673.431 615.353 673.431H616.273C616.273 673.431 616.785 673.226 617.091 673.124C617.091 673.124 617.296 673.124 617.398 673.124C617.705 673.124 618.011 672.92 618.216 672.715C618.216 672.715 619.136 671.795 619.238 671.795C619.238 671.795 619.238 671.59 619.238 671.488C619.238 671.488 619.443 671.181 619.545 670.977C619.545 670.977 619.545 670.772 619.545 670.67C619.545 670.465 619.852 669.749 619.852 669.545V668.522C619.852 668.522 619.852 668.215 619.852 668.113C619.852 667.909 619.852 667.602 619.647 667.397C619.647 667.397 619.647 667.193 619.443 667.09C619.136 666.579 618.829 665.965 618.42 665.556L618.216 665.352C618.216 665.352 618.011 665.147 618.011 665.045C617.807 664.841 617.705 664.534 617.398 664.227C616.887 663.818 616.376 663.204 615.967 662.795C615.66 662.591 615.456 662.488 615.149 662.284L614.74 661.875C613.718 661.057 612.797 660.545 611.673 659.932C611.366 659.932 610.957 659.625 610.651 659.523H610.344C609.73 659.216 609.117 659.011 608.606 658.807C607.89 658.602 607.379 658.5 606.766 658.295C606.766 658.295 605.641 658.295 605.641 658.091H605.232C604.312 658.091 603.392 658.091 602.472 658.091H601.245C601.245 658.091 600.325 658.091 600.018 658.091C600.018 658.091 599.609 658.091 599.711 658.091H599.405C598.178 658.295 596.644 658.602 595.52 659.216L594.6 659.523H594.395C594.395 659.523 594.088 659.523 593.986 659.727C592.862 660.341 591.737 660.954 590.715 661.67C590.715 661.67 590.101 662.079 590.101 662.182C589.795 662.386 589.59 662.591 589.386 662.795C588.874 663.204 588.466 663.716 588.057 664.022C588.057 664.329 587.648 664.636 587.443 664.943C587.443 664.943 587.239 664.943 587.239 665.147L587.034 665.352C587.034 665.352 586.319 666.374 586.114 666.886C585.705 667.397 585.398 668.011 585.092 668.522C585.092 668.727 585.092 668.931 584.887 669.033C584.887 669.34 584.887 669.647 584.683 669.852C584.376 670.874 583.558 671.386 582.638 671.386C582.434 671.386 582.229 671.386 582.025 671.386C581.002 671.181 580.389 669.954 580.593 668.829C584.172 659.216 592.35 653.898 602.574 653.898C608.504 653.898 614.127 656.046 618.523 659.932C619.647 661.057 620.567 662.079 621.59 663.307C622.305 664.329 623.021 665.454 623.43 666.784C624.759 671.181 621.999 676.192 617.398 677.419C616.682 677.419 616.069 677.624 615.251 677.624C612.593 677.624 610.344 676.704 608.708 674.658C608.401 674.351 608.197 674.045 607.992 673.635L607.583 673.124C607.379 672.817 607.072 672.51 606.766 672.306C606.766 672.306 606.357 671.999 606.254 671.999C605.948 671.795 605.743 671.692 605.437 671.488C605.437 671.488 605.232 671.488 605.028 671.488C605.028 671.488 603.699 671.079 603.596 671.079H601.347H601.143C600.529 671.079 600.018 671.283 599.711 671.488H599.098C599.098 671.488 598.587 671.795 598.382 671.999C598.382 671.999 598.178 671.999 598.178 672.204C597.769 672.511 597.462 672.817 597.053 673.022C596.031 673.84 595.009 674.454 593.782 674.965C591.328 676.192 588.568 677.01 585.705 677.317C584.99 677.317 584.478 677.317 583.763 677.317V677.828C583.763 677.828 583.967 678.851 584.069 679.056C584.069 679.669 584.376 680.283 584.581 680.794C584.581 681.101 584.581 681.306 584.785 681.612C584.785 681.612 584.785 681.612 584.785 681.817C584.785 682.021 584.99 682.124 584.99 682.328C585.296 682.84 585.603 683.351 586.012 683.76L586.523 684.68C586.523 684.68 586.523 684.68 586.728 684.885C587.136 685.499 587.545 686.01 587.954 686.214L589.386 687.646C589.386 687.646 589.692 687.851 589.795 687.851L590.612 688.464C591.839 689.18 592.964 689.692 594.191 690.305C594.191 690.305 594.395 690.305 594.497 690.305C594.497 690.305 594.804 690.305 594.906 690.51C595.111 690.51 595.52 690.51 595.826 690.714C596.44 690.919 596.951 691.226 597.564 691.43C599.916 692.146 602.472 692.759 604.823 693.578C606.766 694.396 608.708 695.112 610.344 696.543C611.366 697.464 611.877 698.486 612.082 699.714C612.389 701.043 612.491 702.577 611.877 703.907C610.446 707.793 606.459 709.531 602.574 709.531C599.711 709.531 596.44 708.509 594.395 706.361C593.986 705.747 593.475 705.236 593.168 704.725C593.168 704.725 593.168 704.725 592.964 704.725C592.964 704.725 592.964 704.725 592.964 704.52C592.759 704.316 592.555 704.111 592.248 704.009C592.248 704.009 592.044 703.804 591.942 703.804C591.942 703.804 591.635 703.6 591.533 703.498C591.533 703.498 591.464 703.498 591.328 703.498C591.328 703.498 590.919 703.498 590.715 703.498C590.715 703.498 590.51 703.498 590.408 703.498C590.408 703.498 589.897 703.498 589.692 703.498C589.386 703.498 589.181 703.498 588.977 703.498H588.67C588.67 703.498 588.261 703.498 587.954 703.702C587.954 703.702 587.75 703.702 587.648 703.702C587.648 703.702 587.341 704.009 587.136 704.111C587.136 704.111 586.932 704.111 586.83 704.316C586.625 704.316 586.523 704.52 586.319 704.623C586.319 704.623 586.012 705.236 586.012 705.134C586.012 705.134 585.807 705.338 585.807 705.543C585.807 705.747 585.603 705.952 585.501 706.054C585.501 706.054 585.501 706.122 585.501 706.259C585.501 706.259 585.296 706.77 585.296 707.077C585.296 707.077 585.296 707.077 585.296 707.282V707.997L585.501 709.02C585.501 709.225 585.501 709.429 585.705 709.531C585.91 709.94 586.114 710.349 586.319 710.656C586.523 711.065 586.83 711.372 587.034 711.679L587.341 711.986C587.75 712.599 588.261 713.111 588.67 713.418C589.181 713.929 589.692 714.338 590.101 714.747C590.101 714.747 590.306 714.747 590.408 714.747C590.408 714.747 590.408 714.747 590.612 714.952C590.817 715.361 593.884 716.895 594.293 717.099L594.702 717.304C594.702 717.304 595.009 717.304 595.111 717.508L596.031 717.713C596.951 718.224 598.485 718.429 599.405 718.633H600.12C600.12 718.633 602.063 718.838 602.574 718.838C603.392 718.838 604.005 718.838 604.823 718.633H605.232H605.437C605.743 718.633 606.05 718.633 606.357 718.633C606.97 718.633 607.583 718.326 608.095 718.224C608.606 718.02 609.321 717.917 609.833 717.713C610.037 717.713 610.344 717.508 610.548 717.304C610.548 717.304 610.753 717.304 610.957 717.304C611.98 716.69 612.9 716.179 614.024 715.565C614.229 715.361 614.535 715.156 614.74 715.054C614.74 715.054 615.047 714.849 615.149 714.747L616.376 713.52C616.376 713.52 617.296 712.599 617.603 712.088C617.603 712.088 617.807 712.088 617.807 711.884C618.523 710.963 618.932 710.247 619.341 709.327C619.545 709.122 619.647 708.918 619.749 708.611C619.749 708.611 619.749 708.406 619.954 708.304V708.1C620.261 706.872 620.67 705.85 620.874 704.52C620.874 704.52 620.874 704.009 620.874 703.907V702.986C620.874 702.373 620.874 701.759 620.874 701.248C620.874 700.839 620.874 700.532 620.874 700.123V699.714C620.874 699.1 620.67 698.486 620.465 698.077C620.465 697.464 620.261 696.85 620.056 696.441C620.056 696.237 620.056 696.032 619.852 695.827C619.852 695.827 619.647 695.418 619.545 695.316C619.034 694.293 618.523 693.373 617.909 692.555C617.909 692.555 617.909 692.555 617.909 692.35L617.603 692.044C617.603 692.044 617.296 691.635 617.091 691.43C616.682 691.021 616.273 690.612 615.865 690.203C615.66 689.998 615.353 689.794 615.149 689.487C615.149 689.487 614.842 689.487 614.74 689.282C614.229 688.873 613.615 688.464 613.104 688.157C612.593 687.851 611.98 687.442 611.468 687.135C611.162 687.135 610.855 686.828 610.446 686.726C610.446 686.726 610.242 686.726 610.037 686.521C610.037 686.521 610.037 686.521 609.833 686.521C608.606 686.01 607.379 685.601 606.254 685.192C605.028 684.885 603.801 684.578 602.574 684.067C600.018 683.249 597.564 682.022 595.622 680.283C594.804 679.465 594.906 678.135 595.622 677.317C596.031 676.908 596.644 676.704 597.053 676.704C597.462 676.704 598.178 676.908 598.485 677.317C598.689 677.522 598.894 677.726 599.2 677.828C599.2 677.828 599.405 677.829 599.507 678.033C599.916 678.34 600.427 678.749 600.836 678.953C601.245 679.26 601.756 679.465 602.267 679.669C602.267 679.669 602.472 679.669 602.472 679.874C602.472 679.874 602.983 680.078 603.187 680.181C605.641 680.999 608.197 681.612 610.548 682.533C613.309 683.658 615.762 685.089 618.114 686.726C621.794 689.794 624.248 694.191 624.861 698.998C625.27 701.759 625.168 704.52 624.555 707.179C621.794 716.997 612.184 722.928 602.165 722.928C594.191 722.928 588.159 719.451 583.149 713.52C582.434 712.497 581.718 711.474 581.411 710.247C580.082 705.747 582.74 700.634 587.341 699.509C588.057 699.305 588.772 699.202 589.59 699.202C591.328 699.202 593.168 699.714 594.497 700.736C595.111 701.146 595.622 701.657 596.031 702.066C596.338 702.475 596.542 702.782 596.747 703.089L597.156 703.6L598.076 704.418C598.076 704.418 598.382 704.725 598.485 704.725C598.791 704.929 598.996 705.032 599.302 705.236C599.302 705.236 599.371 705.236 599.507 705.236C599.507 705.236 599.711 705.236 599.814 705.236C600.12 705.236 600.427 705.236 600.734 705.441C600.938 705.441 601.245 705.441 601.449 705.645H603.903C603.903 705.645 604.925 705.338 605.334 705.236C605.334 705.236 605.641 705.236 605.641 705.032C605.641 705.032 606.152 704.725 606.459 704.623C606.459 704.623 606.766 704.418 606.97 704.316C606.97 704.316 607.175 704.009 607.277 703.907C607.481 703.907 607.583 703.6 607.686 703.498L607.992 702.782C607.992 702.782 607.992 702.782 607.992 702.577C607.992 702.577 607.992 702.373 607.992 702.27V701.043C607.992 701.043 607.992 700.634 607.992 700.532C607.992 700.532 607.992 700.532 607.992 700.327C607.992 700.327 607.992 700.123 607.788 700.02C607.788 699.816 607.481 699.714 607.277 699.611C606.97 699.305 606.663 699.202 606.357 698.998C605.846 698.793 605.539 698.487 605.13 698.282H604.925H604.721C604.721 698.282 604.21 698.077 604.005 697.975C602.676 697.464 601.347 697.055 600.12 696.748C595.009 695.214 589.692 693.578 585.705 689.896C581.616 686.214 579.571 680.794 579.571 675.374C579.571 674.147 580.491 673.226 581.616 673.226L582.331 673.022Z" fill="#010C23"/>
<g style="mix-blend-mode:multiply">
<path d="M206.924 235.624C213.586 235.624 218.988 230.221 218.988 223.556C218.988 216.892 213.586 211.489 206.924 211.489C200.261 211.489 194.86 216.892 194.86 223.556C194.86 230.221 200.261 235.624 206.924 235.624Z" fill="#1EA3C0"/>
</g>
<g style="mix-blend-mode:multiply">
<path d="M251.907 235.624C258.57 235.624 263.971 230.221 263.971 223.556C263.971 216.892 258.57 211.489 251.907 211.489C245.245 211.489 239.844 216.892 239.844 223.556C239.844 230.221 245.245 235.624 251.907 235.624Z" fill="#1EA3C0"/>
</g>
<g style="mix-blend-mode:multiply">
<path d="M206.924 276.531C213.586 276.531 218.988 271.128 218.988 264.464C218.988 257.799 213.586 252.396 206.924 252.396C200.261 252.396 194.86 257.799 194.86 264.464C194.86 271.128 200.261 276.531 206.924 276.531Z" fill="#1EA3C0"/>
</g>
<g style="mix-blend-mode:multiply">
<path d="M251.907 276.531C258.57 276.531 263.971 271.128 263.971 264.464C263.971 257.799 258.57 252.396 251.907 252.396C245.245 252.396 239.844 257.799 239.844 264.464C239.844 271.128 245.245 276.531 251.907 276.531Z" fill="#1EA3C0"/>
</g>
<g style="mix-blend-mode:multiply">
<path d="M449.426 381.662C456.088 381.662 461.489 376.259 461.489 369.594C461.489 362.93 456.088 357.527 449.426 357.527C442.763 357.527 437.362 362.93 437.362 369.594C437.362 376.259 442.763 381.662 449.426 381.662Z" fill="#1EA3C0"/>
</g>
<g style="mix-blend-mode:multiply">
<path d="M494.409 381.662C501.072 381.662 506.473 376.259 506.473 369.594C506.473 362.93 501.072 357.527 494.409 357.527C487.746 357.527 482.345 362.93 482.345 369.594C482.345 376.259 487.746 381.662 494.409 381.662Z" fill="#1EA3C0"/>
</g>
<g style="mix-blend-mode:multiply">
<path d="M449.426 422.569C456.088 422.569 461.489 417.166 461.489 410.501C461.489 403.837 456.088 398.434 449.426 398.434C442.763 398.434 437.362 403.837 437.362 410.501C437.362 417.166 442.763 422.569 449.426 422.569Z" fill="#1EA3C0"/>
</g>
<g style="mix-blend-mode:multiply">
<path d="M494.409 422.569C501.072 422.569 506.473 417.166 506.473 410.501C506.473 403.837 501.072 398.434 494.409 398.434C487.746 398.434 482.345 403.837 482.345 410.501C482.345 417.166 487.746 422.569 494.409 422.569Z" fill="#1EA3C0"/>
</g>
<g style="mix-blend-mode:multiply">
<path d="M358.641 531.177C365.304 531.177 370.705 525.774 370.705 519.109C370.705 512.445 365.304 507.042 358.641 507.042C351.978 507.042 346.577 512.445 346.577 519.109C346.577 525.774 351.978 531.177 358.641 531.177Z" fill="#1EA3C0"/>
</g>
<g style="mix-blend-mode:multiply">
<path d="M403.624 531.177C410.287 531.177 415.688 525.774 415.688 519.109C415.688 512.445 410.287 507.042 403.624 507.042C396.962 507.042 391.561 512.445 391.561 519.109C391.561 525.774 396.962 531.177 403.624 531.177Z" fill="#1EA3C0"/>
</g>
<g style="mix-blend-mode:multiply">
<path d="M358.641 572.084C365.304 572.084 370.705 566.681 370.705 560.016C370.705 553.351 365.304 547.949 358.641 547.949C351.978 547.949 346.577 553.351 346.577 560.016C346.577 566.681 351.978 572.084 358.641 572.084Z" fill="#1EA3C0"/>
</g>
<g style="mix-blend-mode:multiply">
<path d="M403.624 572.084C410.287 572.084 415.688 566.681 415.688 560.016C415.688 553.351 410.287 547.949 403.624 547.949C396.962 547.949 391.561 553.351 391.561 560.016C391.561 566.681 396.962 572.084 403.624 572.084Z" fill="#1EA3C0"/>
</g>
<path d="M434.193 271.009C434.704 269.066 436.033 267.122 437.975 266.304C439.1 265.691 440.327 265.384 441.554 265.384C444.109 265.384 446.563 266.918 447.79 269.066C447.79 269.066 447.79 269.134 447.79 269.27C447.79 269.27 448.199 270.19 448.403 270.6L448.71 271.418C449.221 272.952 449.63 274.383 450.141 275.917C451.675 280.724 453.208 285.633 454.742 290.439C455.049 291.667 455.56 292.792 455.866 293.916C456.378 292.28 456.991 290.542 457.4 288.803C458.934 284.201 460.467 279.395 462.001 274.69C462.41 273.463 462.716 272.236 463.125 271.009C463.33 270.395 463.534 269.884 463.841 269.372C463.841 269.372 463.841 269.372 463.841 269.168C464.148 268.861 464.352 268.452 464.659 268.145C465.988 266.509 468.135 265.486 470.282 265.486C472.429 265.486 474.473 266.407 475.905 267.941C476.211 268.247 476.518 268.759 476.722 269.168C476.722 269.168 476.722 269.168 476.722 269.372C477.029 269.781 477.234 270.293 477.438 270.804C477.643 271.52 477.847 272.134 478.052 272.849C479.176 276.327 480.505 280.008 481.63 283.485L486.435 298.519C487.866 302.916 489.4 307.314 490.831 311.711C490.831 311.711 490.831 311.711 490.831 311.916C491.955 308.848 492.876 305.78 493.796 302.814C495.431 297.7 496.965 292.689 498.601 287.678L502.895 274.179C502.895 274.179 502.895 273.872 502.895 273.77C502.895 273.668 502.895 273.463 502.895 273.259V272.236L502.588 271.315C502.588 271.315 502.588 271.111 502.383 271.009C502.383 271.009 502.383 270.804 502.077 270.6C502.077 270.6 501.463 269.986 501.361 269.986C501.361 269.986 501.157 269.781 501.054 269.679C500.85 269.679 500.748 269.475 500.543 269.372C500.543 269.372 500.339 269.372 500.237 269.372C500.032 269.372 499.828 269.372 499.623 269.372H498.294C498.294 269.372 497.885 269.372 497.681 269.372C497.681 269.372 497.681 269.372 497.476 269.372C497.476 269.372 497.408 269.372 497.272 269.372C497.272 269.372 496.965 269.577 496.658 269.781L496.454 269.986C496.454 269.986 496.147 270.293 495.943 270.395C495.943 270.395 495.738 270.6 495.738 270.702C495.738 270.702 495.534 271.111 495.431 271.418C495.431 271.418 495.431 271.622 495.431 271.724C495.431 271.724 495.431 271.929 495.227 272.031C494.614 273.872 494.102 275.611 493.489 277.451C492.262 281.133 491.138 284.815 490.013 288.496C489.604 289.724 488.888 289.826 487.866 289.826C486.844 289.519 486.23 288.496 486.639 287.576C487.457 285.019 488.173 282.463 488.991 280.008C489.706 277.656 490.422 275.406 491.138 272.952C491.547 271.622 491.955 270.395 492.467 269.27C492.467 269.27 492.467 269.202 492.467 269.066C492.467 269.066 492.978 268.247 493.285 267.736C494.92 265.998 496.863 265.282 499.214 265.282C501.566 265.486 503.508 266.509 504.837 268.35C506.371 270.293 506.575 272.849 505.859 275.304C504.939 278.065 504.019 280.826 503.099 283.69C501.566 288.496 500.032 293.405 498.499 298.314C497.067 302.814 495.534 307.518 494.205 312.018C493.489 314.063 492.876 316.006 492.16 318.154C491.955 318.972 491.24 319.483 490.422 319.483C489.706 319.483 488.991 319.074 488.684 318.154C488.173 316.722 487.764 315.188 487.253 313.654L483.163 301.075C481.425 296.064 479.892 291.053 478.154 286.042C476.927 282.156 475.7 278.372 474.371 274.486C474.064 273.565 473.758 272.645 473.553 271.724V271.52C473.553 271.52 473.553 271.452 473.553 271.315C473.553 271.315 473.349 270.906 473.349 270.804C473.349 270.6 473.042 270.497 473.042 270.293L472.735 270.088L472.531 269.781C472.531 269.781 472.122 269.475 472.02 269.475C472.02 269.475 471.713 269.27 471.611 269.27C471.611 269.27 471.611 269.27 471.406 269.27C471.406 269.27 471.202 269.27 471.1 269.066H469.055C469.055 269.066 468.748 269.066 468.748 269.27L468.237 269.577L467.419 270.191L467.215 270.497C467.215 270.497 467.215 270.566 467.215 270.702C467.215 270.702 467.01 271.009 466.908 271.111L466.601 271.622V271.827C466.601 271.827 466.397 272.236 466.397 272.543C465.988 274.077 465.477 275.611 464.965 277.042C463.534 282.054 461.898 286.86 460.365 291.667C459.547 294.53 458.525 297.291 457.707 300.053C457.4 300.871 456.889 301.382 455.866 301.382H455.56C454.64 301.382 454.026 300.768 453.72 300.053C453.72 299.644 453.515 299.235 453.311 298.825C451.982 294.632 450.653 290.542 449.323 286.246L445.336 273.463C445.336 273.463 445.03 272.645 444.927 272.134C444.927 272.134 444.927 272.134 444.927 271.929L444.723 271.622C444.723 271.622 444.518 271.111 444.416 270.906C444.416 270.906 444.416 270.838 444.416 270.702L443.803 270.088C443.803 270.088 443.803 270.088 443.598 270.088C443.598 270.088 443.53 270.088 443.394 270.088C443.394 270.088 443.087 269.781 442.883 269.781C442.883 269.781 442.883 269.781 442.678 269.781C442.678 269.781 442.167 269.577 441.86 269.577H440.736C440.736 269.577 440.327 269.577 440.02 269.781H439.713C439.713 269.781 439.304 270.088 439.1 270.191C438.793 270.497 438.589 270.6 438.384 270.906C438.384 270.906 438.316 270.906 438.18 270.906C438.18 270.906 437.873 271.213 437.873 271.418C437.873 271.622 437.669 271.929 437.669 271.929C437.669 272.134 437.669 272.134 437.669 272.338C437.669 272.338 437.669 272.849 437.464 272.849V273.668C437.464 273.668 437.669 274.281 437.669 274.384C437.669 274.384 437.669 274.383 437.669 274.588C437.669 274.588 437.669 275.099 437.873 275.304C438.18 276.531 438.691 277.656 438.998 278.781C440.327 283.076 441.656 287.269 442.985 291.462C444.621 296.576 446.256 301.484 447.892 306.495C449.017 310.177 450.244 313.859 451.368 317.643C451.573 318.358 451.777 319.074 452.084 319.79V319.995V320.199C452.084 320.199 452.39 320.711 452.493 321.017C452.493 321.017 452.493 321.222 452.697 321.324C452.697 321.529 453.004 321.631 453.106 321.631V321.836C453.106 321.836 453.822 322.142 454.026 322.245H454.231C454.435 322.245 454.64 322.449 454.946 322.449C454.946 322.449 455.151 322.449 455.253 322.449H455.969C455.969 322.449 456.173 322.449 456.275 322.449C456.275 322.449 456.684 322.449 456.991 322.245H457.196H457.4C457.4 322.245 457.707 321.938 458.013 321.938C458.013 321.938 458.218 321.733 458.32 321.733C458.525 321.733 458.627 321.427 458.729 321.324C458.729 321.324 458.729 321.12 458.934 321.017C458.934 321.017 459.342 320.097 459.445 320.097V319.893L459.751 319.074C460.16 317.643 460.672 316.109 461.08 314.472C462.716 309.666 464.25 304.757 465.783 299.848C466.601 297.087 467.521 294.326 468.441 291.564C468.748 290.746 469.362 290.235 470.179 290.235C470.895 290.235 471.611 290.644 471.917 291.564C472.838 294.735 473.86 297.905 474.882 300.973C476.416 305.882 477.847 310.586 479.381 315.393C479.79 316.722 480.198 318.154 480.71 319.381C480.71 319.586 480.71 319.586 480.71 319.79C480.71 319.79 480.914 319.995 480.914 320.199C480.914 320.199 480.914 320.404 481.119 320.404C481.119 320.608 481.323 320.711 481.425 320.813C481.63 321.017 481.63 321.12 481.834 321.324C481.834 321.324 482.345 321.631 482.141 321.631L482.959 322.04C483.266 322.04 483.368 322.245 483.674 322.245H483.981C483.981 322.245 484.288 322.245 484.492 322.245C485.515 322.245 486.333 323.063 486.333 323.983C486.333 325.108 485.515 325.824 484.39 325.824C481.732 325.824 479.381 324.392 478.052 322.142C477.745 321.631 477.54 321.12 477.336 320.506L477.029 319.79C476.518 318.154 476.109 316.62 475.598 315.086C473.962 310.279 472.531 305.473 470.997 300.564C470.691 299.541 470.282 298.621 470.077 297.598C468.748 301.484 467.624 305.37 466.397 309.257C465.272 312.836 464.045 316.518 462.921 319.995C462.103 323.472 458.934 325.722 455.355 325.722C452.084 325.722 449.221 323.472 448.199 320.404C447.483 318.154 446.768 316.006 446.052 313.756C444.621 309.154 443.087 304.45 441.656 299.95C440.122 295.144 438.589 290.133 437.055 285.224C436.135 282.258 435.113 279.088 434.09 275.917C433.579 274.383 433.375 272.85 433.784 271.213L434.193 271.009Z" fill="#010C23"/>
<path d="M120.331 208.83C121.046 208.626 121.762 208.523 122.478 208.523C124.216 208.523 126.056 209.035 127.385 210.057C128.407 210.773 129.123 211.591 129.736 212.716C129.941 213.023 130.043 213.227 130.248 213.534C130.248 213.943 130.554 214.25 130.656 214.659C130.861 215.477 131.168 216.091 131.474 217.011C132.701 221 134.132 225.193 135.359 229.181C137.302 235.011 139.142 240.635 141.084 246.362C142.72 251.373 144.356 256.384 145.992 261.498V261.702C147.423 257.1 149.059 252.396 150.49 247.589C152.33 241.965 154.171 236.34 156.011 230.613C157.135 226.931 158.26 223.25 159.487 219.568C159.487 219.159 159.691 218.852 159.794 218.545C159.794 218.545 159.794 218.341 159.794 218.239C159.794 218.034 159.794 217.83 159.998 217.625V216.5C159.998 216.5 159.998 215.989 159.998 215.887C159.998 215.682 159.998 215.58 159.794 215.375C159.794 215.375 159.589 214.966 159.487 214.864C159.487 214.455 158.771 213.637 158.362 213.534C158.362 213.534 158.294 213.534 158.158 213.534C158.158 213.534 157.851 213.228 157.544 213.125C157.34 213.125 157.238 213.125 157.238 212.921C156.931 212.921 156.624 212.921 156.318 212.921H156.011C156.011 212.921 155.602 212.921 155.397 212.921H154.988C154.988 212.921 154.375 212.921 154.068 212.921C154.068 212.921 154.068 212.921 153.864 212.921C153.557 213.125 153.25 213.227 152.944 213.534H153.25L151.512 215.273V215.477C151.512 215.477 151.512 215.682 151.512 215.887C151.206 216.602 151.001 217.114 150.797 217.83C149.979 220.284 149.263 222.943 148.445 225.397C147.116 229.386 145.787 233.477 144.56 237.465C144.56 237.976 144.049 238.488 143.64 238.692C143.027 238.692 142.618 238.897 142.107 238.897C140.982 238.488 140.267 237.465 140.676 236.34C142.516 229.897 144.56 223.25 146.912 216.909C147.219 215.682 147.628 214.557 148.036 213.432C148.241 213.125 148.343 212.921 148.445 212.614C148.752 212.103 149.161 211.591 149.57 211.182C151.41 209.239 153.557 208.421 156.215 208.421C158.976 208.625 161.225 209.75 162.758 212C164.394 214.25 164.701 217.216 163.883 219.977C162.758 223.147 161.838 226.318 160.714 229.59C159.078 235.113 157.34 240.635 155.5 246.26C153.864 251.476 152.024 256.793 150.388 262.009L148.241 268.963C147.934 269.986 147.014 270.395 146.298 270.395C145.378 270.395 144.663 269.884 144.356 268.963C141.596 261.498 139.244 253.828 136.893 246.158C135.053 240.533 133.11 234.908 131.168 229.181C129.941 225.295 128.612 221.409 127.385 217.42C127.181 216.807 126.976 216.193 126.772 215.682C126.772 215.477 126.772 215.375 126.567 215.273C126.567 215.068 126.567 214.966 126.567 214.762C126.567 214.557 126.363 214.455 126.26 214.25C126.26 214.25 125.851 213.943 125.749 213.943C125.749 213.739 125.545 213.637 125.34 213.534C125.34 213.534 125.136 213.228 124.931 213.125C124.931 213.125 124.113 212.716 124.42 212.818C124.216 212.818 124.011 212.818 123.807 212.614H123.296C123.296 212.614 122.887 212.614 122.682 212.614H121.558C121.558 212.614 121.149 212.614 121.046 212.818H120.842C120.842 212.818 120.535 213.023 120.433 213.125C120.229 213.125 120.024 213.33 119.922 213.432C119.922 213.432 119.922 213.637 119.717 213.739L119.104 214.25C119.104 214.25 119.104 214.455 119.104 214.557C118.899 214.762 118.797 215.068 118.695 215.273V215.58C118.695 215.58 118.491 216.091 118.491 216.398V217.523C118.491 217.523 118.695 218.443 118.797 218.75C119.206 219.977 119.513 221 119.82 222.125C121.251 226.727 122.784 231.329 124.216 235.829C126.056 241.658 127.794 247.283 129.736 253.01C131.168 257.612 132.701 262.111 134.03 266.611C134.337 267.634 134.644 268.759 135.053 269.781C135.053 269.781 135.053 269.986 135.053 270.088C135.053 270.088 135.257 270.702 135.462 270.906C135.462 271.111 135.462 271.213 135.666 271.418C135.666 271.418 135.973 271.827 136.075 272.031C136.075 272.031 136.791 272.44 136.586 272.338C136.791 272.338 136.893 272.543 137.097 272.645C137.097 272.645 137.302 272.645 137.506 272.849C137.711 272.849 138.017 273.054 138.222 273.156H138.631C138.631 273.156 139.04 273.156 139.244 273.156C140.471 273.156 141.391 274.077 141.391 275.099C141.391 276.327 140.369 277.247 139.244 277.247C135.257 277.247 132.292 274.793 131.065 271.111C131.065 270.702 130.861 270.497 130.759 270.088C130.248 268.759 129.736 267.225 129.43 265.895C127.896 260.884 126.26 255.975 124.727 251.067C122.887 245.34 121.046 239.613 119.308 233.886C117.979 229.897 116.65 225.704 115.321 221.613L114.708 219.568C113.379 215.068 116.037 209.955 120.74 208.83H120.331Z" fill="#010C23"/>
<path d="M407.407 130.596C409.656 136.118 410.678 141.947 410.167 147.776C408.02 165.571 394.219 178.457 376.021 178.763H375.714C356.801 178.457 341.465 163.628 341.465 144.402C341.465 143.174 342.385 142.356 343.51 142.356H354.449C355.165 131.414 365.082 123.028 375.816 123.028H376.021C380.826 123.028 385.222 124.664 389.107 127.527C396.263 132.948 399.228 142.868 396.263 151.253C394.832 155.446 392.174 159.23 388.391 161.787C384.813 164.548 380.417 165.776 376.021 165.878C366.922 165.673 359.254 160.253 355.778 151.867C355.369 150.844 356.289 149.72 357.21 149.413C357.414 149.413 357.721 149.413 357.925 149.413C358.845 149.413 359.459 150.129 359.765 150.947C359.765 150.947 359.97 151.151 359.97 151.253C359.97 151.458 360.174 151.663 360.174 151.867C360.583 152.685 361.094 153.606 361.606 154.322C361.606 154.322 361.912 154.731 362.015 154.935C363.139 156.162 364.059 157.185 365.286 158.105L365.491 158.31C365.695 158.31 365.797 158.617 366.104 158.719C366.82 159.23 367.535 159.742 368.455 160.151C368.762 160.151 368.967 160.355 369.171 160.355C369.171 160.355 369.375 160.355 369.478 160.56C369.989 160.764 370.398 160.867 370.705 161.071C371.727 161.378 372.647 161.582 373.567 161.787H373.976C373.976 161.787 374.487 161.787 374.794 161.787H378.065C378.065 161.787 378.27 161.582 378.372 161.787C379.19 161.787 380.008 161.48 380.826 161.276C381.133 161.276 381.541 160.969 382.053 160.867C382.257 160.867 382.359 160.662 382.564 160.662C382.564 160.662 382.871 160.662 382.973 160.458C383.688 160.253 384.302 159.844 384.915 159.435L386.244 158.617C386.244 158.617 386.653 158.31 386.858 158.105C386.858 158.105 386.926 158.037 387.062 157.901C387.062 157.901 389.925 155.344 389.925 154.833C389.925 154.833 390.538 154.015 390.743 153.606C391.254 152.788 391.765 151.969 392.072 151.151C392.072 151.151 392.072 150.947 392.072 150.844C392.072 150.844 392.072 150.64 392.276 150.435C392.276 150.231 392.276 150.026 392.481 149.822C392.685 149.31 392.787 148.697 392.89 148.288C392.89 147.776 393.094 147.265 393.196 146.856V146.447C393.196 146.447 393.196 145.936 393.196 145.629C393.196 144.504 393.196 143.481 393.196 142.356V142.049C393.196 142.049 393.196 141.334 393.196 141.129C393.196 140.618 392.89 140.106 392.89 139.697C392.685 139.186 392.583 138.675 392.378 138.163C392.378 138.163 392.174 137.857 392.174 137.754C392.174 137.754 391.969 137.345 391.867 137.243C391.458 136.322 390.947 135.402 390.436 134.584C390.231 134.277 390.027 134.073 389.925 133.766C389.925 133.766 389.925 133.766 389.925 133.561C389.516 133.254 389.209 132.845 388.8 132.436C388.085 131.72 387.471 131.107 386.653 130.391C386.653 130.391 386.449 130.391 386.347 130.186C386.142 129.982 385.938 129.88 385.631 129.777C385.222 129.471 384.813 129.164 384.404 128.857C383.995 128.857 383.484 128.448 382.973 128.243C382.973 128.243 382.973 128.243 382.768 128.039C382.564 128.039 382.359 128.039 382.155 127.834C381.133 127.425 380.11 127.221 379.088 127.016H378.679H377.861C377.861 127.016 376.839 127.016 376.43 127.016H376.123C375.51 127.016 374.896 127.016 374.283 127.016H373.772C373.772 127.016 373.26 127.221 372.852 127.221C371.829 127.425 370.807 127.732 369.784 128.141C369.784 128.141 369.58 128.141 369.376 128.141C369.171 128.346 368.967 128.448 368.66 128.55C368.149 128.755 367.74 128.959 367.433 129.266L366.104 130.186C366.104 130.186 365.695 130.391 365.491 130.493C365.491 130.493 365.286 130.698 365.184 130.8C364.366 131.516 363.65 132.129 363.037 133.05L362.424 133.663C362.424 133.663 362.424 133.663 362.424 133.868C362.015 134.379 361.81 134.891 361.503 135.095C361.197 135.607 360.89 136.118 360.583 136.527C360.583 136.731 360.379 137.038 360.379 137.243C360.379 137.243 360.379 137.447 360.174 137.55C359.765 138.572 359.356 139.493 359.152 140.618C359.152 140.925 358.948 141.231 358.948 141.64C358.948 141.64 358.948 142.049 358.948 141.947V142.356C358.948 142.97 358.948 143.583 358.948 144.299C358.948 145.424 357.823 146.345 356.801 146.345H345.964C345.964 146.345 345.964 146.651 345.964 146.754C345.964 147.265 345.964 147.674 345.964 147.981V148.185C345.964 148.185 345.964 148.492 345.964 148.595C346.168 150.026 346.577 151.458 346.884 152.89C347.19 153.708 347.497 154.322 347.804 155.14C347.804 155.446 347.804 155.651 348.008 155.753C348.008 155.753 348.213 156.571 348.315 156.878C348.928 158.105 349.542 159.23 350.258 160.355C350.666 160.969 351.075 161.582 351.382 161.992C351.587 162.298 351.791 162.503 351.996 162.81C351.996 162.81 352.2 163.014 352.302 163.117C353.12 164.241 353.938 165.162 354.96 166.082C355.472 166.491 355.88 167.003 356.392 167.412C356.596 167.616 356.903 167.821 357.107 167.923C357.107 168.128 357.414 168.23 357.516 168.332C359.356 169.662 362.015 171.4 364.162 172.116C364.162 172.116 364.468 172.321 364.57 172.321C364.775 172.321 364.877 172.525 365.082 172.525C365.388 172.73 365.695 172.832 366.002 172.934L367.944 173.548C368.66 173.548 369.273 173.855 370.091 174.059C370.398 174.059 370.705 174.059 371.011 174.264H371.625C373.056 174.57 374.487 174.673 375.919 174.673H376.123C377.043 174.673 377.861 174.673 378.781 174.468C379.19 174.468 379.599 174.468 380.008 174.468C380.008 174.468 380.417 174.468 380.621 174.468C381.235 174.468 381.848 174.264 382.462 174.059C383.791 173.855 385.222 173.445 386.449 172.832C386.858 172.832 387.164 172.627 387.573 172.423C387.573 172.423 387.88 172.218 388.085 172.218C388.596 171.912 389.209 171.707 389.72 171.4C390.845 170.787 391.867 170.173 392.992 169.355C393.401 169.355 393.707 169.048 394.014 168.741L394.321 168.434C394.321 168.434 394.525 168.434 394.628 168.23C395.139 167.923 395.548 167.616 395.854 167.207C396.979 166.184 397.797 165.366 398.717 164.446C399.126 163.832 399.637 163.321 400.046 162.912C400.046 162.912 400.046 162.707 400.046 162.605C400.046 162.605 400.046 162.537 400.046 162.401C400.046 162.401 400.455 161.889 400.659 161.685C401.477 160.458 401.989 159.435 402.704 158.31C403.011 157.594 403.215 157.083 403.522 156.469C403.522 156.469 403.727 156.162 403.727 155.958C403.727 155.958 404.033 155.242 404.135 154.935C404.544 153.708 404.953 152.276 405.362 151.049C405.362 150.231 405.669 149.617 405.771 148.799V148.492V148.288C405.771 147.879 405.771 147.572 405.771 147.163C405.771 145.833 405.976 144.299 405.771 142.97V140.822C405.771 140.822 405.567 140.618 405.771 140.515V140.209C405.771 140.209 405.771 139.493 405.567 139.186C405.26 137.857 404.953 136.322 404.442 135.095C404.238 134.379 404.033 133.766 403.727 133.152C403.727 132.948 403.727 132.845 403.727 132.743C403.727 132.743 403.727 132.675 403.727 132.539C403.727 132.539 403.42 131.925 403.318 131.618C402.704 130.391 402.091 129.266 401.477 128.141C401.068 127.527 400.762 126.914 400.251 126.505C400.046 126.3 399.842 125.994 399.739 125.789C399.739 125.789 399.535 125.38 399.433 125.278C398.513 124.357 397.695 123.335 396.775 122.414C396.263 121.903 395.65 121.494 395.241 121.187C395.037 120.88 394.73 120.676 394.525 120.471C394.525 120.471 394.219 120.471 394.116 120.164C393.094 119.346 392.072 118.63 390.947 118.017L387.573 116.38C387.573 116.38 387.062 116.38 387.062 116.176C386.858 116.176 386.755 116.176 386.551 115.971C386.244 115.971 385.938 115.767 385.529 115.664C384.915 115.46 384.302 115.153 383.688 115.051C382.973 114.846 382.257 114.642 381.644 114.539C381.235 114.539 380.928 114.539 380.621 114.335C380.417 114.335 380.212 114.335 380.11 114.335H379.906C378.577 114.13 377.145 114.13 375.816 114.13H372.647C372.647 114.13 372.34 114.13 372.136 114.13H371.931C371.931 114.13 371.625 114.13 371.522 114.13C371.114 114.13 370.705 114.13 370.296 114.335C368.558 114.642 366.82 115.153 364.979 115.664C364.57 115.869 364.162 115.971 363.855 116.176C363.855 116.176 363.548 116.176 363.344 116.38C361.606 117.301 359.97 118.017 358.334 119.141C358.13 119.448 357.721 119.653 357.414 119.857C357.414 119.857 357.21 120.062 357.005 120.062L356.801 120.266C356.392 120.676 355.88 120.982 355.574 121.391C354.551 122.312 353.734 123.13 352.813 124.255C352.302 124.664 351.893 125.278 351.587 125.789H351.382C351.382 125.789 351.382 125.993 351.178 125.993L350.666 126.914C349.849 127.937 349.235 129.061 348.724 130.289C348.315 130.8 348.008 131.516 347.804 131.925C347.804 132.129 347.804 132.334 347.599 132.436C347.599 132.436 347.293 133.254 347.088 133.561C346.577 134.891 346.27 136.322 345.861 137.652C345.453 138.879 344.635 139.186 343.306 139.186C342.181 138.777 341.67 137.754 341.874 136.527C345.657 120.88 359.152 109.733 375.407 109.733H375.612C377.963 109.733 380.315 110.04 382.564 110.551C393.299 112.699 402.704 120.266 406.998 130.289L407.407 130.596Z" fill="#010C23"/>
<path d="M405.362 711.065C405.873 706.565 409.247 703.088 413.848 703.088C418.448 703.088 422.333 706.975 422.333 711.679V749.927C422.333 751.052 421.311 751.87 420.186 751.87C419.062 751.87 418.244 750.949 418.244 749.825V710.963C418.244 710.963 418.244 710.758 418.244 710.554C418.244 710.349 418.039 710.043 417.937 709.838C417.937 709.838 417.937 709.531 417.733 709.429C417.733 709.224 417.528 708.918 417.324 708.713C417.324 708.713 417.256 708.713 417.119 708.713C417.119 708.713 416.915 708.304 416.71 708.099C416.71 708.099 416.506 708.099 416.404 707.895C416.404 707.895 415.995 707.588 415.688 707.486C415.688 707.486 415.177 707.281 414.87 707.281H414.359C414.359 707.281 414.052 707.281 413.746 707.281H413.439C413.439 707.281 412.928 707.281 412.723 707.281C412.723 707.281 412.417 707.281 412.314 707.281C412.008 707.281 411.803 707.486 411.599 707.69C411.599 707.69 411.19 708.099 411.19 707.997C411.19 708.202 410.883 708.304 410.781 708.406L410.474 708.713L410.167 709.327C410.167 709.327 409.861 710.043 409.861 709.838L409.656 710.758V754.631H437.055C438.078 754.631 438.998 754.836 440.02 755.04C442.371 755.858 444.212 757.495 445.336 759.744C446.359 762.097 446.359 764.858 445.03 767.21C443.905 769.358 441.758 770.994 439.407 771.403C438.384 771.71 437.464 771.71 436.442 771.71H407.509C406.385 771.71 405.465 770.687 405.465 769.562C405.465 768.437 406.487 767.619 407.611 767.619H438.078C438.078 767.619 438.486 767.619 438.589 767.415C438.793 767.415 438.998 767.415 439.202 767.415C439.202 767.415 439.202 767.415 439.407 767.415C439.407 767.415 439.611 767.21 439.713 767.21C439.918 767.21 440.122 766.903 440.327 766.801C440.327 766.801 440.531 766.801 440.531 766.596C440.736 766.392 440.94 766.29 441.145 766.085C441.145 766.085 441.145 765.778 441.145 765.676C441.145 765.676 441.656 764.96 441.656 764.756C441.656 764.449 441.86 764.244 441.962 763.835V762.608C441.962 762.608 441.962 762.608 441.962 762.404C441.962 762.199 441.962 761.994 441.758 761.79C441.758 761.79 441.758 761.483 441.758 761.381C441.758 761.176 441.451 760.972 441.349 760.665C441.349 760.665 441.349 760.597 441.349 760.46C441.349 760.46 441.042 760.051 440.838 759.847C440.633 759.847 440.531 759.642 440.429 759.54C440.224 759.54 440.02 759.233 439.816 759.131C439.816 759.131 439.611 759.131 439.509 759.131C439.202 759.131 438.998 759.131 438.793 758.926C438.589 758.926 438.486 758.926 438.282 758.926H407.714C406.589 758.926 405.669 757.801 405.669 756.779V713.724C405.669 712.804 405.669 711.986 405.669 711.065H405.362Z" fill="#010C23"/>
</svg>
